SplineFontDB: 3.0
FontName: MJ-Regular
FullName: MJ-Regular
FamilyName: MJ
Weight: Regular
Copyright: Copyright (c) 2009-2010 Design Science, Inc.
Version: 3.0
ItalicAngle: 0
UnderlinePosition: -100
UnderlineWidth: 50
Ascent: 800
Descent: 200
InvalidEm: 0
sfntRevision: 0x00030000
LayerCount: 2
Layer: 0 0 "Back" 1
Layer: 1 0 "Fore" 0
XUID: [1021 555 1361428464 29015]
StyleMap: 0x0040
FSType: 0
OS2Version: 3
OS2_WeightWidthSlopeOnly: 0
OS2_UseTypoMetrics: 0
CreationTime: 1255375311
ModificationTime: 1520407201
PfmFamily: 81
TTFWeight: 400
TTFWidth: 5
LineGap: 0
VLineGap: 0
Panose: 0 0 0 0 0 0 0 0 0 0
OS2TypoAscent: 900
OS2TypoAOffset: 0
OS2TypoDescent: -272
OS2TypoDOffset: 0
OS2TypoLinegap: 0
OS2WinAscent: 900
OS2WinAOffset: 0
OS2WinDescent: 272
OS2WinDOffset: 0
HheadAscent: 900
HheadAOffset: 0
HheadDescent: -272
HheadDOffset: 0
OS2SubXSize: 650
OS2SubYSize: 700
OS2SubXOff: 0
OS2SubYOff: 140
OS2SupXSize: 650
OS2SupYSize: 700
OS2SupXOff: 0
OS2SupYOff: 480
OS2StrikeYSize: 49
OS2StrikeYPos: 258
OS2CapHeight: 680
OS2XHeight: 442
OS2Vendor: 'PfEd'
OS2CodePages: 2000008f.5e030000
OS2UnicodeRanges: 800000ef.1000eced.00000000.00000000
MarkAttachClasses: 1
DEI: 91125
LangName: 1033 "" "" "" "FontForge 2.0 : MJ-Regular" "" "Version 1.1" "" "" "" "" "" "" "" "Copyright (c) 2009-2010, Design Science, Inc. (<www.mathjax.org>),+AAoA-with Reserved Font Name MathJax_Main.+AAoACgAA-This Font Software is licensed under the SIL Open Font License, Version 1.1.+AAoA-This license available with a FAQ at:+AAoA-http://scripts.sil.org/OFL" "http://scripts.sil.org/OFL" "" "MJ" "Regular"
Encoding: UnicodeBmp
UnicodeInterp: none
NameList: AGL For New Fonts
DisplaySize: -48
AntiAlias: 1
FitToEm: 0
WinInfo: 38 38 12
BeginPrivate: 6
BlueValues 31 [-22 0 431 448 665 666 680 705]
OtherBlues 11 [-206 -204]
BlueScale 7 0.03963
BlueShift 1 0
StdHW 4 [50]
StdVW 4 [50]
EndPrivate
BeginChars: 65537 291

StartChar: .notdef
Encoding: 65536 -1 0
Width: 250
Flags: MW
HStem: 0 50<100 150 100 200> 483 50<100 150 100 100>
VStem: 50 50<50 50 50 483> 150 50<50 483 483 483>
LayerCount: 2
Fore
SplineSet
50 0 m 1
 50 533 l 1
 200 533 l 1
 200 0 l 1
 50 0 l 1
100 50 m 1
 150 50 l 1
 150 483 l 1
 100 483 l 1
 100 50 l 1
EndSplineSet
EndChar

StartChar: exclam
Encoding: 33 33 2
Width: 278
GlyphClass: 2
Flags: MW
HStem: 1 120<132 141 123.5 145.5> 696 20G<120.5 154>
VStem: 79 119<47.5 79.5 47.5 80.5>
LayerCount: 2
Fore
SplineSet
78 661 m 0
 78 688 103 716 138 716 c 0
 170 716 199 691 199 661 c 0
 199 651 159 210 158 206 c 0
 156 199 152 198 139 198 c 0
 125 198 121 199 119 206 c 0
 118 210 78 651 78 661 c 0
141 121 m 0
 173 118 198 98 198 61 c 0
 198 34 187 19 171 10 c 0
 161 3 152 1 139 1 c 0
 125 1 116 3 106 10 c 0
 90 19 79 34 79 61 c 0
 79 100 106 121 141 121 c 0
EndSplineSet
EndChar

StartChar: quotedbl
Encoding: 34 34 3
Width: 500
GlyphClass: 2
Flags: MW
HStem: 584 110<75.5 130.5>
VStem: 131 37<572 575.5> 335 37<572 575.5>
LayerCount: 2
Fore
SplineSet
34 634 m 0
 34 667 58 694 93 694 c 0
 114 694 125 687 138 675 c 0
 159 651 168 625 168 579 c 0
 168 529 158 499 140 464 c 0
 126 435 112 415 91 394 c 0
 81 384 77 379 73 379 c 0
 68 379 50 398 50 401 c 0
 50 405 56 411 62 417 c 0
 104 460 128 512 131 572 c 0
 131 579 131 584 130 584 c 2
 130 584 127 582 123 580 c 0
 114 575 104 573 94 573 c 0
 60 573 34 600 34 634 c 0
238 634 m 0
 238 667 262 694 297 694 c 0
 318 694 329 687 342 675 c 0
 363 651 372 625 372 579 c 0
 372 529 362 499 344 464 c 0
 330 435 316 415 295 394 c 0
 285 384 281 379 277 379 c 0
 272 379 254 398 254 401 c 0
 254 405 260 411 266 417 c 0
 308 460 332 512 335 572 c 0
 335 579 335 584 334 584 c 2
 334 584 331 582 327 580 c 0
 318 575 308 573 298 573 c 0
 264 573 238 600 238 634 c 0
EndSplineSet
EndChar

StartChar: numbersign
Encoding: 35 35 4
Width: 833
GlyphClass: 2
Flags: MW
HStem: -194 21G<182.5 189 412.5 419> 133 40<72 248 70 260 395 478 72 289 601 704.5> 327 40<72 186 72 72 70 342 354 437 584 667> 674 20G<412.5 421 643 649.5>
VStem: 167 35 397 35 630 35
LayerCount: 2
Fore
SplineSet
56 347 m 0
 56 358 62 363 70 367 c 1
 313 367 l 1
 355 524 l 2
 388 649 398 682 400 685 c 0
 402 690 409 694 416 694 c 0
 426 694 435 686 436 676 c 0
 436 672 429 646 396 522 c 0
 373 439 355 370 355 369 c 2
 354 367 l 1
 543 367 l 1
 585 524 l 2
 618 649 628 682 630 685 c 0
 634 691 640 694 646 694 c 0
 653 694 665 688 665 678 c 0
 665 668 657 638 626 522 c 0
 603 439 585 370 585 369 c 2
 584 367 l 1
 762 367 l 1
 770 363 777 358 777 347 c 0
 777 338 773 333 767 330 c 0
 763 328 762 327 667 327 c 2
 572 327 l 1
 552 251 l 2
 541 210 532 175 531 174 c 0
 531 173 555 173 647 173 c 0
 762 173 763 172 767 170 c 0
 772 167 777 162 777 153 c 0
 777 142 770 137 762 133 c 1
 519 133 l 1
 477 -24 l 2
 444 -149 434 -182 432 -185 c 0
 428 -191 422 -194 416 -194 c 0
 409 -194 397 -187 397 -177 c 0
 397 -167 405 -137 436 -21 c 0
 459 61 477 130 477 131 c 2
 478 133 l 1
 289 133 l 1
 247 -24 l 2
 214 -149 204 -182 202 -185 c 0
 198 -191 192 -194 186 -194 c 0
 179 -194 167 -187 167 -177 c 0
 167 -167 175 -137 206 -21 c 0
 229 61 247 130 247 131 c 2
 248 133 l 1
 70 133 l 1
 62 137 56 142 56 153 c 0
 56 165 62 170 72 173 c 2
 260 173 l 1
 280 249 l 2
 291 290 300 325 301 326 c 0
 301 327 278 327 186 327 c 2
 72 327 l 2
 62 330 56 335 56 347 c 0
531 326 m 0
 531 327 512 327 437 327 c 2
 342 327 l 1
 322 251 l 2
 311 210 302 175 301 174 c 0
 301 173 320 173 395 173 c 2
 490 173 l 1
 510 249 l 2
 521 290 530 325 531 326 c 0
EndSplineSet
EndChar

StartChar: dollar
Encoding: 36 36 5
Width: 500
GlyphClass: 2
Flags: MW
HStem: 133 108<108.5 109 103 125.5> 319 105 657 47<225 226>
VStem: 55 48<130 182.5> 55 66<512 551.5> 55 107<176 182.5> 227 46<-56 -10 -10 -10 37 169 420 539 539 595 704 750> 337 107<525 531> 378 66<149.5 201.5>
LayerCount: 2
Fore
SplineSet
162 187 m 0xe680
 162 159 140 133 109 133 c 2
 103 133 l 1
 103 130 l 2xf2
 105 124 110 112 115 105 c 0
 134 68 172 42 223 37 c 1
 227 36 l 1
 227 313 l 1
 223 314 l 2
 221 314 213 317 205 319 c 0
 144 333 101 371 75 423 c 0
 62 450 55 478 55 508 c 0
 55 595 105 656 165 685 c 0
 183 694 197 698 225 704 c 1
 227 704 l 1
 227 750 l 1
 273 750 l 1
 273 704 l 1
 286 703 l 1
 341 694 384 669 413 631 c 0
 432 602 442 569 444 531 c 0
 444 519 444 514 443 509 c 0
 437 484 416 468 391 468 c 0
 360 468 337 491 337 522 c 0xeb
 337 551 359 575 390 575 c 0
 395 575 395 575 394 578 c 0
 375 623 335 650 277 657 c 1
 273 658 l 1
 273 408 l 1
 288 405 l 2
 314 398 336 389 355 376 c 0
 410 338 444 269 444 199 c 0
 444 100 385 28 313 1 c 0
 302 -3 280 -9 276 -9 c 2
 273 -9 l 1
 273 -56 l 1
 227 -56 l 1
 227 -10 l 1
 221 -10 l 1
 162 1 117 23 89 66 c 0
 68 97 57 134 55 176 c 0
 55 189 55 194 56 199 c 0
 61 219 75 233 95 238 c 0
 100 240 106 241 111 241 c 0
 140 241 162 213 162 187 c 0xe680
227 539 m 2
 227 651 227 657 225 657 c 0
 222 657 210 653 202 650 c 0
 158 634 121 594 121 538 c 0xea
 121 486 157 440 214 424 c 0
 221 422 226 420 227 420 c 2
 227 539 l 2
286 298 m 0
 280 300 275 301 274 301 c 0
 273 301 273 285 273 169 c 2
 273 37 l 1
 329 51 378 102 378 169 c 0xe280
 378 234 339 282 286 298 c 0
EndSplineSet
EndChar

StartChar: percent
Encoding: 37 37 6
Width: 833
GlyphClass: 2
Flags: MW
HStem: -56 38<647 651 651 658 647 666.5> 309 38<644 655.5> 347 38<203 207 207 214 203 222.5> 605 37<457 471 457 487.5> 712 38<199 211.5>
VStem: 56 76<513 583 513 601> 292 40<517 578 517 580.5> 500 77<118 184 118 199> 736 40<115 177 115 178.5>
LayerCount: 2
Fore
SplineSet
319 641 m 2
 319 641 332 608 332 548 c 0
 332 486 319 441 293 403 c 0
 274 374 243 347 202 347 c 0
 175 347 155 357 136 369 c 0
 88 402 56 465 56 548 c 0
 56 654 112 736 185 748 c 0
 191 749 196 750 202 750 c 0
 233 750 254 737 272 719 c 0
 320 676 368 652 429 643 c 0
 435 642 450 642 464 642 c 0
 478 642 493 642 500 643 c 0
 562 653 613 684 650 732 c 0
 660 746 660 750 673 750 c 0
 685 750 695 739 693 726 c 0
 691 723 179 -46 170 -52 c 0
 167 -55 164 -56 160 -56 c 0
 149 -56 139 -47 139 -36 c 0
 139 -33 140 -30 142 -27 c 0
 143 -24 243 125 363 304 c 0
 484 484 582 630 581 630 c 0
 548 615 510 605 465 605 c 0
 420 605 374 616 332 635 c 0
 325 638 320 641 319 641 c 2
245 693 m 0
 232 706 223 712 200 712 c 0
 185 712 174 705 163 693 c 0
 135 662 132 618 132 548 c 0
 132 478 136 432 165 403 c 0
 177 391 182 385 203 385 c 2
 207 385 l 2
 221 385 231 390 245 404 c 0
 275 434 292 483 292 548 c 0
 292 613 275 663 245 693 c 0
500 146 m 0
 500 252 556 333 629 345 c 0
 635 346 641 347 647 347 c 0
 687 347 718 319 737 292 c 0
 763 253 776 208 776 146 c 0
 776 84 763 38 737 0 c 0
 718 -29 687 -56 646 -56 c 0
 619 -56 599 -46 580 -34 c 0
 532 -1 500 63 500 146 c 0
689 290 m 0
 676 303 667 309 644 309 c 0
 629 309 618 302 607 290 c 0
 578 257 577 222 577 146 c 0
 577 90 577 79 582 55 c 0
 589 20 607 -6 630 -16 c 0
 636 -18 638 -18 647 -18 c 2
 651 -18 l 2
 665 -18 675 -13 689 1 c 0
 719 31 736 81 736 146 c 0
 736 211 719 260 689 290 c 0
EndSplineSet
EndChar

StartChar: ampersand
Encoding: 38 38 7
Width: 778
GlyphClass: 2
Flags: MW
HStem: -22 46<210.5 253 574 610.5> 385 46<493 498 493 502 721 727> 679 37<282.5 306.5 282.5 307>
VStem: 42 98<122 149.5> 156 76<544 569.5> 361 40<573.5 580.5> 682 40<113 121 112 121>
LayerCount: 2
Fore
SplineSet
195 347 m 1
 173 404 156 464 156 540 c 0
 156 599 176 643 208 675 c 0
 232 699 263 716 302 716 c 0
 311 716 320 715 326 713 c 0
 369 701 401 647 401 578 c 0
 401 555 396 538 384 513 c 0
 366 477 335 436 287 386 c 2
 274 373 l 1
 306 294 367 209 416 148 c 2
 429 132 l 1
 437 142 l 2
 466 180 486 211 543 309 c 2
 562 341 l 1
 562 349 l 2
 562 374 528 385 498 385 c 2
 493 385 l 1
 493 431 l 1
 502 431 l 2
 514 429 603 428 626 428 c 0
 648 428 708 428 721 431 c 2
 727 431 l 1
 727 385 l 1
 712 385 l 2
 661 382 625 368 608 344 c 0
 606 342 593 319 578 295 c 0
 521 196 493 154 460 113 c 0
 455 107 453 104 454 103 c 0
 456 100 487 70 497 62 c 0
 530 35 557 24 585 24 c 0
 636 24 678 65 682 113 c 1
 682 121 l 1
 722 121 l 1
 722 112 l 1
 715 37 663 -22 574 -22 c 0
 518 -20 466 1 414 42 c 2
 402 51 l 1
 391 42 l 2
 338 -1 282 -22 224 -22 c 0
 123 -22 42 49 42 135 c 0
 42 164 50 191 68 217 c 0
 76 230 81 234 156 308 c 2
 195 347 l 1
315 678 m 0
 312 679 309 679 305 679 c 0
 256 679 232 629 232 572 c 0
 232 516 240 472 255 426 c 2
 259 411 l 1
 267 420 l 2
 326 482 353 524 360 562 c 0
 360 566 361 571 361 576 c 0
 361 585 360 596 358 607 c 0
 352 648 338 671 315 678 c 0
140 164 m 0
 140 80 181 24 240 24 c 0
 281 24 327 41 366 70 c 0
 371 73 374 76 374 77 c 2
 374 77 371 80 368 84 c 0
 329 121 269 203 235 262 c 1
 220 292 l 1
 210 310 l 1
 193 293 l 2
 158 258 140 230 140 164 c 0
EndSplineSet
EndChar

StartChar: quotesingle
Encoding: 39 39 8
Width: 278
GlyphClass: 2
Flags: MW
VStem: 176 36<572 575.5>
LayerCount: 2
Fore
SplineSet
78 634 m 0
 78 667 103 694 138 694 c 0
 159 694 170 687 183 675 c 0
 204 651 212 625 212 579 c 0
 212 529 203 499 185 464 c 0
 171 435 157 415 136 394 c 0
 126 384 122 379 118 379 c 0
 113 379 95 398 95 401 c 0
 95 405 101 411 107 417 c 0
 149 460 173 512 176 572 c 0
 176 579 176 584 175 584 c 2
 175 584 172 582 168 580 c 0
 159 575 149 573 139 573 c 0
 105 573 78 600 78 634 c 0
EndSplineSet
EndChar

StartChar: parenleft
Encoding: 40 40 9
Width: 389
GlyphClass: 2
Flags: MW
VStem: 94 73<144.5 296>
LayerCount: 2
Fore
SplineSet
333 -241 m 0
 333 -249 328 -250 315 -250 c 2
 302 -250 l 1
 274 -226 l 1
 160 -122 94 39 94 250 c 0
 94 342 103 403 123 473 c 0
 153 575 205 663 274 726 c 2
 302 750 l 1
 315 750 l 2
 327 750 327 750 330 747 c 0
 332 745 333 743 333 741 c 0
 333 737 332 736 322 726 c 0
 217 615 167 463 167 250 c 0
 167 37 217 -115 322 -226 c 0
 332 -236 333 -237 333 -241 c 0
EndSplineSet
EndChar

StartChar: parenright
Encoding: 41 41 10
Width: 389
GlyphClass: 2
Flags: MW
VStem: 221 73<204.5 355.5 204.5 356>
LayerCount: 2
Fore
SplineSet
60 749 m 0
 62 749 66 750 74 750 c 2
 86 750 l 1
 114 726 l 1
 228 622 294 461 294 250 c 0
 294 159 285 96 265 28 c 0
 235 -75 183 -163 114 -226 c 2
 86 -250 l 1
 74 -250 l 2
 59 -250 55 -249 55 -238 c 0
 56 -237 61 -231 66 -225 c 0
 172 -115 221 38 221 250 c 0
 221 462 172 615 66 725 c 0
 61 731 56 737 55 738 c 0
 55 742 57 747 60 749 c 0
EndSplineSet
EndChar

StartChar: asterisk
Encoding: 42 42 11
Width: 500
GlyphClass: 2
Flags: MW
VStem: 215 69<348 348.5 720.5 721>
LayerCount: 2
Fore
SplineSet
100 409 m 0
 79 409 64 428 64 447 c 0
 64 455 70 466 75 470 c 2
 144 504 l 1
 210 534 l 1
 144 566 l 2
 96 588 77 597 74 600 c 0
 68 605 64 615 64 624 c 0
 64 640 74 651 86 657 c 0
 93 660 104 661 111 657 c 0
 113 656 141 636 172 613 c 2
 229 571 l 1
 229 586 215 699 215 721 c 0
 216 735 230 750 248 750 c 0
 269 750 283 737 284 721 c 0
 284 720 270 571 270 571 c 1
 327 613 l 2
 358 636 386 656 388 657 c 0
 395 661 406 660 413 657 c 0
 425 651 435 640 435 624 c 0
 435 615 431 605 425 600 c 0
 422 597 403 588 355 566 c 2
 289 534 l 1
 355 504 l 1
 424 470 l 2
 429 466 435 455 435 447 c 0
 435 431 424 420 413 412 c 0
 406 409 395 408 388 412 c 0
 386 413 358 433 327 456 c 2
 270 498 l 2
 270 497 284 349 284 348 c 0
 283 334 270 320 250 320 c 0
 229 320 216 333 215 348 c 0
 215 349 229 498 229 498 c 1
 172 456 l 2
 141 433 113 413 111 412 c 0
 107 410 104 409 100 409 c 0
EndSplineSet
EndChar

StartChar: plus
Encoding: 43 43 12
Width: 778
GlyphClass: 2
Flags: MW
HStem: 230 40<70 369 70 369 409 707>
VStem: 369 40<-68 230 -68 230 270 420 420 420>
LayerCount: 2
Fore
SplineSet
56 250 m 0
 56 261 62 266 70 270 c 1
 369 270 l 1
 369 420 l 1
 370 570 l 2
 374 575 379 583 389 583 c 0
 399 583 405 576 409 568 c 1
 409 270 l 1
 707 270 l 1
 715 266 722 261 722 250 c 0
 722 239 715 234 707 230 c 1
 409 230 l 1
 409 -68 l 1
 405 -76 400 -82 389 -82 c 0
 378 -82 373 -76 369 -68 c 1
 369 230 l 1
 70 230 l 1
 62 234 56 239 56 250 c 0
EndSplineSet
EndChar

StartChar: comma
Encoding: 44 44 13
Width: 278
GlyphClass: 2
Flags: MW
HStem: -194 21G<114.5 119>
VStem: 173 37<1.5 9 9 9>
LayerCount: 2
Fore
SplineSet
78 60 m 0
 78 93 102 121 137 121 c 0
 191 121 210 66 210 8 c 0
 210 -5 209 -19 208 -27 c 0
 199 -86 175 -137 135 -180 c 0
 126 -189 121 -194 117 -194 c 0
 112 -194 95 -177 95 -172 c 0
 95 -169 97 -165 105 -157 c 0
 147 -114 169 -62 173 -3 c 1
 173 9 l 2
 172 9 170 8 167 6 c 0
 158 2 149 0 140 0 c 0
 105 0 78 26 78 60 c 0
EndSplineSet
EndChar

StartChar: hyphen
Encoding: 45 45 14
Width: 333
GlyphClass: 2
Flags: MW
HStem: 179 73<11 277 11 277>
VStem: 11 266<179 252 179 252>
LayerCount: 2
Fore
SplineSet
11 179 m 1
 11 252 l 1
 277 252 l 1
 277 179 l 1
 11 179 l 1
EndSplineSet
EndChar

StartChar: period
Encoding: 46 46 15
Width: 278
GlyphClass: 2
Flags: MW
HStem: 0 120<121 154.5>
VStem: 78 121<44.5 76.5 43 77>
LayerCount: 2
Fore
SplineSet
78 60 m 0
 78 94 104 120 138 120 c 0
 174 120 199 92 199 61 c 0
 199 25 170 0 139 0 c 0
 103 0 78 29 78 60 c 0
EndSplineSet
EndChar

StartChar: slash
Encoding: 47 47 16
Width: 500
GlyphClass: 2
Flags: W
LayerCount: 2
Fore
SplineSet
75 -250 m 0
 65 -250 56 -241 56 -231 c 0
 56 -216 405 737 407 740 c 0
 410 746 415 750 425 750 c 0
 436 749 445 740 444 730 c 0
 444 723 98 -228 92 -240 c 0
 88 -246 82 -250 75 -250 c 0
EndSplineSet
EndChar

StartChar: zero
Encoding: 48 48 17
Width: 500
GlyphClass: 2
Flags: MW
HStem: -22 38<234 264.5> 629 37<237 265.5>
VStem: 39 98<305.5 352.5 305.5 381> 362 98<305.5 352.5>
LayerCount: 2
Fore
SplineSet
96 585 m 0
 129 633 182 666 249 666 c 0
 296 666 342 648 377 616 c 0
 396 598 410 577 423 548 c 0
 449 490 460 423 460 320 c 0
 460 210 448 142 417 83 c 0
 397 42 372 17 335 -1 c 0
 307 -15 279 -22 250 -22 c 0
 167 -22 112 24 82 83 c 0
 51 142 39 210 39 320 c 0
 39 442 53 516 96 585 c 0
321 597 m 0
 303 617 281 629 250 629 c 0
 224 629 198 618 178 597 c 0
 149 567 141 535 138 427 c 0
 138 409 137 372 137 333 c 0
 137 278 138 218 139 199 c 0
 144 106 152 76 181 46 c 0
 198 27 218 16 250 16 c 0
 282 16 301 27 318 46 c 0
 347 76 355 106 360 199 c 0
 361 218 362 278 362 333 c 0
 362 372 361 409 361 427 c 0
 358 535 350 567 321 597 c 0
EndSplineSet
EndChar

StartChar: one
Encoding: 49 49 18
Width: 500
GlyphClass: 2
Flags: MW
HStem: 0 46<88 100 88 114 416 427 416 416> 556 46<83 102 83 102>
VStem: 213 89<361 578 578 578>
LayerCount: 2
Fore
SplineSet
416 0 m 2
 399 3 289 3 257 3 c 0
 225 3 117 3 100 0 c 2
 88 0 l 1
 88 46 l 1
 114 46 l 2
 143 46 178 47 189 49 c 0
 201 50 206 56 213 61 c 1
 213 578 l 2
 212 578 209 577 205 575 c 0
 176 564 140 557 102 556 c 2
 83 556 l 1
 83 602 l 1
 102 602 l 2
 158 604 205 617 242 640 c 0
 251 645 268 658 273 663 c 0
 275 666 276 666 285 666 c 0
 298 666 296 665 302 660 c 1
 302 361 l 1
 303 61 l 1
 317 47 338 46 368 46 c 2
 401 46 l 1
 427 46 l 1
 427 0 l 1
 416 0 l 2
EndSplineSet
EndChar

StartChar: two
Encoding: 50 50 19
Width: 500
GlyphClass: 2
Flags: MW
HStem: 0 93<142 142 142 421 50 142> 429 120<112.5 128.5> 619 47<189.5 255>
VStem: 50 59<474 550.5> 343 106<443 471> 409 40<186 189 186 189>
LayerCount: 2
Fore
SplineSet
110 429 m 0xf8
 72 429 50 457 50 491 c 0
 50 586 133 666 235 666 c 0
 352 666 430 596 447 498 c 0
 448 489 449 477 449 465 c 0xf8
 449 421 438 391 414 356 c 0
 393 325 367 298 301 241 c 0
 266 211 269 214 201 149 c 2
 142 93 l 1
 218 92 l 2
 319 92 379 94 385 97 c 0
 388 98 392 108 395 118 c 0
 400 132 401 141 409 186 c 1
 409 189 l 1
 449 189 l 1
 449 186 l 2xf4
 446 180 424 9 421 3 c 2
 421 0 l 1
 50 0 l 1
 50 19 l 2
 50 36 50 39 52 42 c 0
 53 43 91 86 136 137 c 0
 249 262 254 269 276 297 c 0
 321 358 343 406 343 464 c 0
 343 548 298 619 212 619 c 0
 167 619 140 599 118 567 c 0
 114 559 109 551 109 550 c 0
 109 549 111 549 114 549 c 0
 149 549 170 520 170 489 c 0
 170 457 147 429 110 429 c 0xf8
EndSplineSet
EndChar

StartChar: three
Encoding: 51 51 20
Width: 500
GlyphClass: 2
Flags: MW
HStem: -22 43<213.5 255.5 213.5 283.5> 330 36<171 175.5> 626 39<225 233 233 240.5 218 250>
VStem: 42 127<122.5 148 114.5 149> 69 117<506.5 534.5 504.5 564.5> 322 108<487 527 481.5 547> 338 119<175 195 195 203.5 161.5 226>
LayerCount: 2
Fore
SplineSet
127 463 m 0xec
 90 463 69 489 69 524 c 0
 69 605 145 656 218 665 c 1
 233 665 l 2
 248 665 268 665 277 664 c 0
 301 660 322 653 344 643 c 0
 388 621 416 589 427 549 c 0
 429 542 430 532 430 522 c 0xec
 430 441 372 376 302 350 c 0
 300 349 299 349 299 348 c 0
 299 345 333 343 375 315 c 0
 426 282 457 232 457 175 c 0
 457 148 451 122 438 96 c 0
 407 29 329 -22 238 -22 c 0
 150 -22 76 19 52 81 c 0
 45 96 42 115 42 130 c 0
 42 168 71 193 105 193 c 0
 142 193 169 166 169 130 c 0
 169 99 150 75 121 68 c 2
 114 66 l 1
 145 40 189 21 238 21 c 0
 273 21 303 40 321 74 c 0
 334 99 338 125 338 175 c 2
 338 195 l 2
 338 257 314 302 274 322 c 0
 259 328 259 328 213 329 c 2
 171 330 l 1
 168 332 l 2
 166 335 166 336 166 348 c 0
 166 360 166 360 169 363 c 0xf2
 171 365 173 366 174 366 c 0
 177 366 226 370 232 371 c 0
 293 379 322 449 322 525 c 0
 322 569 313 596 287 612 c 0
 272 622 260 626 240 626 c 0
 210 626 176 616 152 599 c 0
 144 594 131 581 132 580 c 2
 132 580 135 579 139 578 c 0
 166 575 186 549 186 520 c 0
 186 489 163 463 127 463 c 0xec
EndSplineSet
EndChar

StartChar: four
Encoding: 52 52 21
Width: 500
GlyphClass: 2
Flags: MW
HStem: 0 46<190 199 190 221 462 471 462 462> 165 46<183 287 28 28 379 471> 657 20G<355 373 373 373>
VStem: 293 86<211 545 545 545>
LayerCount: 2
Fore
SplineSet
462 0 m 2
 448 3 359 3 333 3 c 0
 306 3 213 3 199 0 c 2
 190 0 l 1
 190 46 l 1
 221 46 l 2
 253 47 266 48 274 51 c 0
 279 52 284 57 286 61 c 0
 287 63 287 81 287 115 c 2
 287 165 l 1
 28 165 l 1
 28 211 l 1
 179 442 l 2
 274 586 332 674 334 675 c 0
 336 677 338 677 355 677 c 2
 373 677 l 1
 379 671 l 1
 379 211 l 1
 471 211 l 1
 471 165 l 1
 379 165 l 1
 379 114 l 2
 379 59 379 60 385 54 c 0
 392 48 401 47 442 46 c 2
 471 46 l 1
 471 0 l 1
 462 0 l 2
293 211 m 1
 293 545 l 1
 74 212 l 1
 183 211 l 1
 293 211 l 1
EndSplineSet
EndChar

StartChar: five
Encoding: 53 53 22
Width: 500
GlyphClass: 2
Flags: MW
HStem: -22 44<205.5 249.5 194.5 292> 101 113<102 109 102 102> 382 38<229.5 263 229.5 270.5> 538 96<227 253>
VStem: 50 114<151 173 140 173.5> 93 46<407 512> 345 104<179 248.5>
LayerCount: 2
Fore
SplineSet
107 214 m 0xfa
 139 214 164 190 164 156 c 0xfa
 164 124 135 101 109 101 c 2
 102 101 l 1
 105 96 l 1
 124 56 165 22 224 22 c 0
 275 22 307 45 326 82 c 0
 340 109 345 148 345 210 c 0
 345 287 338 322 318 349 c 0
 302 369 287 382 254 382 c 0
 200 382 159 353 136 314 c 0
 131 305 129 304 114 304 c 0
 100 304 97 305 95 310 c 0
 93 314 93 329 93 485 c 0
 93 539 92 579 92 608 c 0
 92 646 93 664 98 664 c 0
 99 665 101 666 102 666 c 0
 103 666 111 663 120 660 c 0
 160 644 201 634 253 634 c 0
 300 634 347 644 389 662 c 0
 395 665 399 666 402 666 c 0
 408 666 410 660 410 648 c 2
 410 635 l 1
 365 581 301 538 205 538 c 0
 186 538 166 540 149 544 c 2
 139 546 l 1
 139 374 l 1xf6
 170 399 203 420 256 420 c 0
 270 420 284 418 297 415 c 0
 385 393 449 307 449 201 c 0
 449 81 355 -22 229 -22 c 0
 182 -22 151 -10 122 13 c 0
 113 19 96 36 89 46 c 0
 68 71 56 102 51 135 c 0
 51 141 50 148 50 154 c 0
 50 193 74 214 107 214 c 0xfa
EndSplineSet
EndChar

StartChar: six
Encoding: 54 54 23
Width: 500
GlyphClass: 2
Flags: MW
HStem: -22 43<247 260> 397 36<245 274.5> 626 40<283 311>
VStem: 42 105<362.5 386> 326 106<533 564.5> 352 104<193 209 209 210 183 225 183 257>
LayerCount: 2
Fore
SplineSet
373 601 m 1xf8
 357 617 337 624 311 626 c 0
 255 626 222 602 194 566 c 0
 163 523 147 456 147 364 c 0
 147 361 148 360 148 360 c 2
 149 360 153 368 156 373 c 0
 180 408 211 433 267 433 c 0
 300 433 322 428 348 414 c 0
 380 396 415 357 435 317 c 0
 450 282 456 261 456 210 c 2
 456 192 l 2xf4
 456 174 455 165 451 149 c 0
 443 108 423 73 389 38 c 0
 359 7 330 -10 293 -18 c 0
 281 -21 267 -22 253 -22 c 0
 241 -22 229 -21 219 -19 c 0
 172 -10 129 19 101 61 c 0
 61 124 42 210 42 313 c 0
 42 459 96 569 186 628 c 0
 220 652 258 666 303 666 c 0
 380 666 432 622 432 550 c 0
 432 516 411 495 379 495 c 0
 348 495 326 514 326 548 c 0
 326 581 345 596 373 601 c 1xf8
329 361 m 0
 311 384 292 397 257 397 c 0
 233 397 213 390 197 374 c 0
 166 343 148 287 148 216 c 0
 148 164 154 110 160 93 c 0
 172 56 204 21 251 21 c 0
 287 21 311 34 329 59 c 0
 351 90 352 130 352 193 c 2
 352 209 l 1
 352 225 l 2
 352 289 351 331 329 361 c 0
EndSplineSet
EndChar

StartChar: seven
Encoding: 55 55 24
Width: 500
GlyphClass: 2
Flags: MW
HStem: 552 92<238.5 485 364 395> 656 20G<108 128 128 128>
VStem: 55 40<455 458 455 458> 88 40<674 675> 168 106<19 48>
LayerCount: 2
Fore
SplineSet
55 458 m 2xe8
 57 462 87 673 88 674 c 0
 88 676 88 676 108 676 c 2
 128 676 l 1
 128 672 l 2xd8
 128 666 134 659 143 655 c 0
 163 645 193 644 364 644 c 2
 485 644 l 1
 485 605 l 1
 417 512 l 2
 380 461 346 415 342 409 c 0
 308 356 287 285 280 192 c 0
 277 159 276 135 275 80 c 0
 275 49 274 22 274 19 c 0
 269 -4 245 -22 221 -22 c 0
 190 -22 168 1 168 40 c 0
 168 56 170 76 172 97 c 0
 182 187 214 279 265 368 c 0
 281 394 302 424 349 489 c 2
 395 552 l 1
 302 552 l 2
 175 552 125 550 119 546 c 0
 117 545 111 533 108 524 c 0
 105 513 101 495 98 477 c 0
 97 469 96 460 95 458 c 2
 95 455 l 1
 55 455 l 1
 55 458 l 2xe8
EndSplineSet
EndChar

StartChar: eight
Encoding: 56 56 25
Width: 500
GlyphClass: 2
Flags: MW
HStem: -22 43<213.5 278 213.5 309.5> 625 41<222 247.5>
VStem: 43 64<136 165 116.5 198.5> 70 58<485 546> 371 58<509.5 519.5 509.5 543.5> 392 65<127.5 150.5>
LayerCount: 2
Fore
SplineSet
43 155 m 0xe4
 43 242 101 296 172 335 c 1
 154 348 l 2
 144 354 131 363 127 368 c 0
 99 392 80 425 72 463 c 0
 70 472 70 476 70 494 c 0
 70 528 74 544 86 566 c 0
 114 624 173 666 248 666 c 0
 338 666 412 614 428 539 c 0
 429 533 429 524 429 515 c 0xd8
 429 504 429 493 427 485 c 0
 417 440 387 403 336 371 c 0
 330 367 324 364 324 363 c 1
 323 363 380 325 382 323 c 0
 422 291 457 241 457 174 c 0
 457 67 370 -22 249 -22 c 0
 164 -22 102 15 68 68 c 0
 52 91 43 117 43 155 c 0xe4
371 513 m 0
 371 574 324 614 275 624 c 0
 268 625 253 625 242 625 c 0
 202 625 174 610 153 589 c 0
 138 575 128 558 128 534 c 0
 128 505 145 479 164 466 c 0
 167 463 196 444 228 424 c 2
 286 386 l 1
 294 392 306 398 317 408 c 0
 347 432 371 466 371 513 c 0
107 157 m 0xe4
 107 76 177 21 250 21 c 0
 306 21 353 48 375 82 c 0
 386 99 392 118 392 137 c 0
 392 164 380 191 357 213 c 0
 347 223 346 223 274 270 c 0
 240 292 211 310 210 311 c 0
 209 311 204 308 198 305 c 0
 158 279 128 244 115 205 c 0
 110 189 107 173 107 157 c 0xe4
EndSplineSet
EndChar

StartChar: nine
Encoding: 57 57 26
Width: 500
GlyphClass: 2
Flags: MW
HStem: -22 44<194 213.5 194 244> 211 37<244 248 244 256.5> 625 40<235 235.5 235 251>
VStem: 42 105<419 476> 68 63<42.5 111.5> 352 104<282 287 287 287>
LayerCount: 2
Fore
SplineSet
173 96 m 0xec
 173 68 157 48 135 44 c 0
 133 44 131 43 131 43 c 2xec
 131 42 143 34 149 32 c 0
 165 25 182 22 206 22 c 0
 221 22 225 22 232 24 c 0
 265 32 291 52 313 86 c 0
 340 125 352 204 352 280 c 2
 352 287 l 1
 347 279 l 2
 321 236 281 211 232 211 c 0
 177 211 134 233 96 280 c 0
 59 326 42 364 42 436 c 0xf4
 42 516 62 557 111 606 c 0
 145 640 176 659 235 665 c 0
 236 665 239 666 243 666 c 0
 247 666 252 665 257 665 c 0
 271 665 278 665 286 663 c 0
 345 650 386 610 413 560 c 0
 443 499 456 431 456 334 c 0
 456 230 436 162 396 97 c 0
 349 22 280 -22 208 -22 c 0
 128 -22 68 16 68 93 c 0
 68 130 88 149 121 149 c 0
 151 149 173 130 173 96 c 0xec
274 623 m 0
 269 624 256 625 246 625 c 0
 216 625 198 615 181 598 c 0
 154 569 147 541 147 441 c 0xf4
 147 397 150 349 152 333 c 0
 158 283 192 248 244 248 c 2
 248 248 l 1
 325 255 351 342 351 430 c 0
 351 468 348 521 343 542 c 0
 336 580 307 615 274 623 c 0
EndSplineSet
EndChar

StartChar: colon
Encoding: 58 58 27
Width: 278
GlyphClass: 2
Flags: MW
HStem: 0 120<121 154.5> 310 120<121 154.5>
VStem: 78 121<44.5 76.5 43 77 354.5 386.5>
LayerCount: 2
Fore
SplineSet
78 370 m 0
 78 404 104 430 138 430 c 0
 174 430 199 402 199 371 c 0
 199 335 170 310 139 310 c 0
 103 310 78 339 78 370 c 0
78 60 m 0
 78 94 104 120 138 120 c 0
 174 120 199 92 199 61 c 0
 199 25 170 0 139 0 c 0
 103 0 78 29 78 60 c 0
EndSplineSet
EndChar

StartChar: semicolon
Encoding: 59 59 28
Width: 278
GlyphClass: 2
Flags: MW
HStem: -194 21G<115.5 119.5> 0 121<123 142> 310 120<121 154.5>
VStem: 78 124<0 77.5>
LayerCount: 2
Fore
SplineSet
78 370 m 0
 78 404 104 430 138 430 c 0
 174 430 199 402 199 371 c 0
 199 335 170 310 139 310 c 0
 103 310 78 339 78 370 c 0
78 60 m 0
 78 95 102 121 137 121 c 0
 189 121 202 62 202 8 c 0
 202 -8 201 -25 198 -40 c 0
 189 -93 164 -145 130 -185 c 0
 124 -191 121 -194 118 -194 c 0
 113 -194 97 -178 95 -174 c 0
 94 -170 96 -168 105 -157 c 0
 133 -122 153 -81 160 -38 c 0
 163 -26 166 4 165 4 c 2
 165 4 146 1 142 0 c 0
 104 0 78 25 78 60 c 0
EndSplineSet
EndChar

StartChar: less
Encoding: 60 60 29
Width: 778
GlyphClass: 2
Flags: MW
HStem: -40 35 505 35
LayerCount: 2
Fore
SplineSet
694 -19 m 0
 694 -26 688 -40 678 -40 c 0
 662 -40 90 235 90 235 c 2
 86 238 83 244 83 250 c 0
 83 256 86 263 91 266 c 2
 91 266 664 540 678 540 c 0
 688 540 694 526 694 519 c 0
 694 513 692 509 687 505 c 0
 685 503 564 446 417 376 c 2
 151 250 l 1
 417 124 l 2
 564 54 685 -3 687 -5 c 0
 692 -9 694 -13 694 -19 c 0
EndSplineSet
EndChar

StartChar: equal
Encoding: 61 61 30
Width: 778
GlyphClass: 2
Flags: MW
HStem: 133 40<72 707 70 708> 327 40<72 390 72 72>
LayerCount: 2
Fore
SplineSet
56 347 m 0
 56 358 62 363 70 367 c 1
 707 367 l 1
 715 363 722 358 722 347 c 0
 722 336 715 332 708 328 c 2
 390 327 l 1
 72 327 l 2
 62 330 56 335 56 347 c 0
56 153 m 0
 56 165 62 170 72 173 c 2
 708 173 l 1
 714 168 722 165 722 153 c 0
 722 142 715 137 707 133 c 1
 70 133 l 1
 62 137 56 142 56 153 c 0
EndSplineSet
EndChar

StartChar: greater
Encoding: 62 62 31
Width: 778
GlyphClass: 2
Flags: W
LayerCount: 2
Fore
SplineSet
84 520 m 0
 84 529 90 540 99 540 c 0
 115 540 687 265 687 265 c 2
 691 262 694 256 694 250 c 0
 694 244 691 238 687 235 c 0
 685 233 554 171 395 96 c 2
 107 -40 l 1
 101 -40 l 2
 90 -39 83 -30 83 -20 c 0
 83 -16 84 -13 86 -9 c 0
 90 -4 62 -17 378 132 c 2
 626 250 l 1
 378 368 l 2
 61 518 90 504 86 509 c 0
 84 513 84 514 84 520 c 0
EndSplineSet
EndChar

StartChar: question
Encoding: 63 63 32
Width: 472
GlyphClass: 2
Flags: MW
HStem: 1 120<215 224 206.5 228.5> 668 37<224 228 228 243>
VStem: 55 59<550 621.5> 162 119<47.5 79.5 47.5 80.5> 202 40<233 249> 317 99<574 577 543 587 543 602>
LayerCount: 2
Fore
SplineSet
109 514 m 0xf4
 79 514 55 534 55 566 c 0
 55 616 82 654 115 673 c 0
 139 689 171 701 199 704 c 0
 204 704 215 705 224 705 c 2
 228 705 l 2
 313 705 375 677 401 626 c 0
 411 607 416 587 416 567 c 0
 416 519 391 485 361 462 c 0
 301 419 260 362 247 303 c 0
 243 284 242 275 242 241 c 0
 242 204 242 202 236 199 c 0
 233 198 229 198 222 198 c 0
 210 198 205 199 203 203 c 0
 202 205 202 217 202 249 c 0xec
 204 329 211 360 238 414 c 0
 253 443 268 465 289 488 c 0
 313 513 317 527 317 574 c 2
 317 587 l 2
 317 617 314 633 299 648 c 0
 284 660 260 668 226 668 c 0
 189 668 158 659 133 640 c 0
 128 635 114 622 114 621 c 0
 114 620 144 617 155 594 c 0
 159 587 162 575 162 567 c 0
 162 536 139 514 109 514 c 0xf4
224 121 m 0
 256 118 281 98 281 61 c 0
 281 34 270 19 254 10 c 0
 244 3 235 1 222 1 c 0
 208 1 199 3 189 10 c 0
 173 19 162 34 162 61 c 0xf4
 162 100 189 121 224 121 c 0
EndSplineSet
EndChar

StartChar: at
Encoding: 64 64 33
Width: 778
GlyphClass: 2
Flags: MW
HStem: -11 37<386 432.5> 126 36<380 393.5 374.5 411> 532 36<384.5 391.5> 668 37<381.5 408.5>
VStem: 56 40<338.5 419 331 447.5> 190 84<333.5 374> 504 84<266 411.5 266 449 266 449> 682 40<294 357>
LayerCount: 2
Fore
SplineSet
722 349 m 0
 722 236 706 126 608 126 c 0
 561 126 528 147 513 176 c 0
 511 179 510 183 509 183 c 2
 509 183 504 178 497 172 c 0
 469 144 437 126 385 126 c 0
 375 126 366 126 360 127 c 0
 275 147 219 202 197 286 c 0
 191 310 190 320 190 347 c 0
 190 401 203 443 227 477 c 0
 258 526 304 556 360 567 c 0
 366 568 375 568 385 568 c 0
 456 568 499 529 528 485 c 1
 531 479 l 1
 555 479 l 2
 570 479 580 479 582 478 c 0
 588 476 588 485 588 338 c 0
 588 194 588 195 593 182 c 0
 598 170 602 163 619 163 c 0
 630 163 637 165 644 170 c 0
 675 191 682 258 682 330 c 0
 682 403 673 445 647 500 c 0
 616 561 568 610 509 639 c 0
 470 658 429 668 388 668 c 0
 347 668 307 658 268 639 c 0
 171 591 96 491 96 347 c 0
 96 315 100 282 109 250 c 0
 139 141 227 52 343 30 c 0
 358 27 376 26 396 26 c 0
 479 26 586 51 650 81 c 2
 657 84 l 1
 716 84 l 2
 719 81 722 78 722 74 c 0
 722 63 673 46 639 33 c 0
 562 5 473 -11 392 -11 c 0
 340 -11 293 0 247 23 c 0
 149 72 74 171 57 304 c 0
 56 314 56 330 56 347 c 0
 56 548 198 688 361 704 c 0
 369 705 377 705 386 705 c 0
 435 705 486 693 530 671 c 0
 628 622 703 522 720 391 c 0
 721 380 722 365 722 349 c 0
413 529 m 0
 406 531 396 532 387 532 c 0
 382 532 377 532 374 531 c 0
 310 516 274 432 274 347 c 0
 274 290 286 247 309 214 c 0
 332 179 359 162 390 162 c 0
 397 162 405 163 413 165 c 0
 446 174 476 198 498 235 c 2
 504 245 l 1
 504 449 l 1
 498 459 l 2
 476 496 446 520 413 529 c 0
EndSplineSet
EndChar

StartChar: A
Encoding: 65 65 34
Width: 750
GlyphClass: 2
Flags: MW
HStem: 0 46<32 39 32 47 259 264 427 437 708 708 708 717> 209 46<345 447 345 462> 696 20G<367 376 376 376>
LayerCount: 2
Fore
SplineSet
255 0 m 2
 243 2 163 3 140 3 c 0
 118 3 51 3 39 0 c 2
 32 0 l 1
 32 46 l 1
 47 46 l 2
 95 48 126 63 139 88 c 0
 142 95 345 705 348 708 c 0
 351 715 356 716 367 716 c 2
 376 716 l 2
 394 715 396 715 400 709 c 0
 401 708 450 564 508 390 c 2
 617 67 l 2
 619 63 621 60 624 57 c 0
 633 49 642 47 687 46 c 2
 717 46 l 1
 717 0 l 1
 708 0 l 2
 693 3 608 3 581 3 c 0
 553 3 452 3 437 0 c 2
 427 0 l 1
 427 46 l 1
 440 46 l 2
 472 46 510 50 510 64 c 0
 510 66 499 99 486 138 c 2
 462 209 l 1
 229 209 l 1
 209 150 l 2
 194 106 189 92 189 85 c 0
 189 81 190 79 192 76 c 0
 200 59 230 46 259 46 c 2
 264 46 l 1
 264 0 l 1
 255 0 l 2
447 255 m 1
 345 557 l 1
 244 256 l 2
 244 255 288 255 345 255 c 2
 447 255 l 1
EndSplineSet
EndChar

StartChar: B
Encoding: 66 66 35
Width: 708
GlyphClass: 2
Flags: MW
HStem: 0 47 337 37<229 312 229 329 229 312> 637 46<28 61 28 229>
VStem: 131 98<151.5 200 200 337 374 499> 511 113<480 520.5 478 544.5> 537 114<181.5 191.5 181.5 227>
LayerCount: 2
Fore
SplineSet
131 622 m 1xf4
 119 634 118 636 61 637 c 2
 28 637 l 1
 28 683 l 1
 229 683 l 2
 429 682 430 682 443 680 c 0
 478 674 505 666 531 651 c 0
 568 630 597 600 612 567 c 0
 620 549 624 529 624 512 c 0xf8
 624 444 564 382 476 360 c 1
 466 357 l 1
 557 346 632 293 650 211 c 0
 651 205 651 196 651 187 c 0
 651 176 651 164 649 156 c 0
 632 78 562 17 469 3 c 0
 456 1 455 1 242 0 c 2
 28 0 l 1
 28 46 l 1
 61 46 l 2
 118 47 119 49 131 61 c 1
 131 622 l 1xf4
511 513 m 0
 511 576 472 625 416 636 c 0
 412 636 373 637 333 637 c 0
 293 637 254 636 248 636 c 0
 239 635 234 632 232 628 c 0
 230 625 229 622 229 499 c 2
 229 374 l 1
 312 374 l 1
 396 375 l 1
 406 377 l 2
 411 379 419 381 422 382 c 0
 472 400 511 447 511 513 c 0
537 188 m 0xf4
 537 266 491 322 430 336 c 1
 329 337 l 1
 229 337 l 1
 229 200 l 2
 229 103 229 61 230 59 c 0
 231 56 233 53 234 52 c 0
 240 47 241 47 334 47 c 2
 383 47 l 2
 427 47 428 48 443 53 c 0
 500 72 537 126 537 188 c 0xf4
EndSplineSet
EndChar

StartChar: C
Encoding: 67 67 36
Width: 722
GlyphClass: 2
Flags: MW
HStem: -21 45<389.5 417.5> 658 47<387.5 393.5 381.5 437>
VStem: 56 117<333.5 350.5> 619 47 626 40<238.5 248.5>
LayerCount: 2
Fore
SplineSet
660 257 m 1xe8
 666 251 l 1
 666 236 l 1
 660 117 582 16 468 -14 c 0
 443 -20 432 -21 403 -21 c 0
 376 -21 362 -20 340 -15 c 0
 192 14 81 132 57 299 c 0
 56 308 56 325 56 342 c 0
 56 359 56 375 57 385 c 0
 80 549 192 668 340 699 c 0
 356 702 372 705 391 705 c 0
 396 705 402 704 408 704 c 0
 424 704 432 704 442 702 c 0
 491 693 532 672 569 636 c 2
 582 624 l 1
 612 663 l 2
 628 685 642 703 643 704 c 0
 645 704 648 705 653 705 c 0
 662 705 662 703 666 699 c 1xe8
 666 419 l 1xf0
 660 413 l 1
 626 413 l 1xe8
 621 418 620 417 619 430 c 0xf0
 607 539 551 626 476 651 c 0
 460 657 448 658 426 658 c 0
 349 658 296 632 252 588 c 0
 198 534 173 457 173 342 c 0
 173 262 186 197 211 151 c 0
 252 74 332 24 428 24 c 0
 529 24 606 109 621 200 c 0
 624 215 626 233 626 244 c 0
 626 253 628 253 632 257 c 1
 660 257 l 1xe8
EndSplineSet
EndChar

StartChar: D
Encoding: 68 68 37
Width: 764
GlyphClass: 2
Flags: MW
HStem: 0 46<27 60 27 228 27 60> 637 46<27 60 27 228>
VStem: 130 101<243.5 483 243.5 622> 593 115<328 344 328 357.5>
LayerCount: 2
Fore
SplineSet
130 622 m 1
 118 634 117 636 60 637 c 2
 27 637 l 1
 27 683 l 1
 228 683 l 2
 449 682 431 683 461 676 c 0
 594 647 688 523 706 379 c 0
 707 369 708 352 708 336 c 0
 708 320 707 303 706 293 c 0
 688 148 589 27 442 3 c 0
 429 1 428 1 228 0 c 2
 27 0 l 1
 27 46 l 1
 60 46 l 2
 117 47 118 49 130 61 c 1
 130 622 l 1
395 636 m 0
 389 636 355 637 322 637 c 0
 289 637 256 636 250 636 c 0
 241 635 236 632 234 628 c 0
 232 625 231 622 231 344 c 0
 231 143 231 62 232 59 c 0
 233 53 238 49 244 48 c 0
 248 47 297 46 339 46 c 0
 423 46 466 55 515 95 c 0
 575 145 593 226 593 338 c 0
 593 377 591 416 586 442 c 0
 575 516 545 567 493 602 c 0
 466 620 430 633 395 636 c 0
EndSplineSet
EndChar

StartChar: E
Encoding: 69 69 38
Width: 681
GlyphClass: 2
Flags: MW
HStem: 0 47<289 340 340 379 289 610> 330 46<232 286 232 286> 440 21G<585 625 585 585> 634 46<25 58 25 597 328.5 368>
VStem: 128 104<149 196 196 330 376 497> 416 40<213 233 233 233 473 493 213 493> 585 40<440 444 440 444> 612 40<270 273 270 273>
LayerCount: 2
Fore
SplineSet
128 619 m 1xfd
 116 631 115 633 58 634 c 2
 25 634 l 1
 25 680 l 1
 597 680 l 1
 597 676 l 2
 597 675 625 445 625 444 c 2
 625 440 l 1
 585 440 l 1
 585 444 l 2xfe
 584 447 583 456 582 465 c 0
 566 590 530 627 421 633 c 0
 411 634 383 634 353 634 c 0
 304 634 249 633 245 632 c 0
 239 631 235 627 233 621 c 0
 232 619 232 581 232 497 c 2
 232 376 l 1
 286 376 l 2
 343 377 351 377 366 382 c 0
 406 393 414 421 416 473 c 2
 416 493 l 1
 456 493 l 1
 456 213 l 1
 416 213 l 1
 416 233 l 2
 414 285 406 313 366 324 c 0
 351 329 343 329 286 330 c 2
 232 330 l 1
 232 196 l 2
 232 102 232 61 233 59 c 0
 234 56 236 53 237 52 c 0
 242 48 244 47 289 47 c 2
 340 47 l 2
 418 47 430 47 444 48 c 0
 521 57 561 85 584 146 c 0
 594 173 600 198 607 243 c 0
 609 256 611 268 612 270 c 2
 612 273 l 1
 652 273 l 1
 652 270 l 2
 649 264 613 9 610 3 c 2
 610 0 l 1
 25 0 l 1
 25 46 l 1
 58 46 l 2
 115 47 116 49 128 61 c 1
 128 619 l 1xfd
EndSplineSet
EndChar

StartChar: F
Encoding: 70 70 39
Width: 653
GlyphClass: 2
Flags: MW
HStem: 0 46<25 36 25 58 348 360 348 348> 317 46<232 284 232 284> 440 21G<570 610 570 570> 633 47<265 286 286 334>
VStem: 128 104<189 317 363 490> 410 40<200 221 221 221 459 480 200 480> 570 40<440 444 440 444>
LayerCount: 2
Fore
SplineSet
128 619 m 1
 116 631 115 633 58 634 c 2
 25 634 l 1
 25 680 l 1
 582 680 l 1
 582 676 l 2
 582 675 610 445 610 444 c 2
 610 440 l 1
 570 440 l 1
 570 444 l 1
 565 479 564 489 561 501 c 0
 549 575 523 614 455 628 c 0
 429 633 422 633 334 633 c 2
 286 633 l 2
 244 633 242 632 237 628 c 0
 236 627 234 624 233 621 c 0
 232 619 232 579 232 490 c 2
 232 363 l 1
 284 363 l 2
 381 365 405 369 410 459 c 1
 410 480 l 1
 450 480 l 1
 450 200 l 1
 410 200 l 1
 410 221 l 1
 405 311 381 315 284 317 c 2
 232 317 l 1
 232 189 l 1
 233 61 l 1
 244 50 247 49 285 47 c 0
 296 46 318 46 333 46 c 2
 360 46 l 1
 360 0 l 1
 348 0 l 2
 331 2 214 3 182 3 c 0
 150 3 55 3 36 0 c 2
 25 0 l 1
 25 46 l 1
 58 46 l 2
 115 47 116 49 128 61 c 1
 128 619 l 1
EndSplineSet
EndChar

StartChar: G
Encoding: 71 71 40
Width: 785
GlyphClass: 2
Flags: MW
HStem: -22 46<396.5 423> 0 21G<655.5 658.5> 227 46<437 449 437 463 437 449 727 735> 658 47<387.5 393.5 381.5 437>
VStem: 56 117<333.5 350.5> 562 104<6 212> 619 47
LayerCount: 2
Fore
SplineSet
449 273 m 2xbc
 465 271 579 270 609 270 c 0
 629 270 646 271 666 271 c 0xba
 696 272 723 272 727 273 c 2
 735 273 l 1
 735 227 l 1
 721 227 l 1
 711 227 l 2
 690 227 674 226 668 215 c 0
 666 211 666 206 666 108 c 2xbc
 666 6 l 1
 662 2 660 0 657 0 c 0x7a
 654 0 649 3 639 10 c 0
 623 21 613 29 600 42 c 2
 587 54 l 1
 571 27 536 8 504 -6 c 0
 474 -16 440 -22 406 -22 c 0
 384 -22 361 -20 340 -15 c 0
 192 14 81 132 57 299 c 0
 56 308 56 325 56 342 c 0
 56 359 56 375 57 385 c 0
 80 549 192 668 340 699 c 0
 356 702 372 705 391 705 c 0
 396 705 402 704 408 704 c 0
 424 704 432 704 442 702 c 0
 491 693 532 672 569 636 c 2
 582 624 l 1
 612 663 l 2
 628 685 642 703 643 704 c 0
 645 704 648 705 653 705 c 0
 662 705 662 703 666 699 c 1
 666 419 l 1
 660 413 l 1
 626 413 l 1
 621 418 620 417 619 430 c 0xba
 607 539 551 626 476 651 c 0
 460 657 448 658 426 658 c 0
 349 658 296 632 252 588 c 0
 195 531 173 449 173 335 c 0
 173 228 198 153 248 101 c 0
 294 52 362 24 431 24 c 0
 494 24 546 55 559 100 c 0
 561 107 562 108 562 160 c 2
 562 212 l 1
 555 217 550 223 538 224 c 0
 527 226 492 227 463 227 c 2
 437 227 l 1
 437 273 l 1
 449 273 l 2xbc
EndSplineSet
EndChar

StartChar: H
Encoding: 72 72 41
Width: 750
GlyphClass: 2
Flags: MW
HStem: 0 46<25 36 25 58 324 335 324 324 414 425 713 724 713 713> 332 46<232 517 232 517> 637 46<25 36 25 58 25 36 324 335 414 425 713 724>
VStem: 128 104<197 332 378 500> 517 105<61 332 332 332 378 622 61 622>
LayerCount: 2
Fore
SplineSet
128 622 m 1
 116 634 115 636 58 637 c 2
 25 637 l 1
 25 683 l 1
 36 683 l 2
 53 680 150 680 180 680 c 0
 210 680 307 680 324 683 c 2
 335 683 l 1
 335 637 l 1
 302 637 l 2
 248 636 242 635 233 622 c 1
 232 500 l 1
 232 378 l 1
 517 378 l 1
 517 622 l 1
 505 634 504 636 447 637 c 2
 414 637 l 1
 414 683 l 1
 425 683 l 2
 442 680 539 680 569 680 c 0
 599 680 696 680 713 683 c 2
 724 683 l 1
 724 637 l 1
 691 637 l 2
 637 636 631 635 622 622 c 1
 622 61 l 1
 631 48 637 47 691 46 c 2
 724 46 l 1
 724 0 l 1
 713 0 l 2
 696 3 599 3 569 3 c 0
 539 3 442 3 425 0 c 2
 414 0 l 1
 414 46 l 1
 447 46 l 2
 504 47 505 49 517 61 c 1
 517 332 l 1
 232 332 l 1
 232 197 l 1
 233 61 l 1
 242 48 248 47 302 46 c 2
 335 46 l 1
 335 0 l 1
 324 0 l 2
 307 3 210 3 180 3 c 0
 150 3 53 3 36 0 c 2
 25 0 l 1
 25 46 l 1
 58 46 l 2
 115 47 116 49 128 61 c 1
 128 622 l 1
EndSplineSet
EndChar

StartChar: I
Encoding: 73 73 42
Width: 361
GlyphClass: 2
Flags: MW
HStem: 0 46<21 32 21 43 328 339 328 328> 637 46<21 32 21 43 21 32 328 339>
VStem: 128 104<207.5 476>
LayerCount: 2
Fore
SplineSet
328 0 m 2
 312 3 210 3 180 3 c 0
 150 3 48 3 32 0 c 2
 21 0 l 1
 21 46 l 1
 43 46 l 2
 70 46 100 48 109 49 c 0
 118 51 123 55 126 60 c 0
 128 63 128 73 128 342 c 0
 128 610 128 620 126 623 c 0
 123 628 118 632 109 634 c 0
 100 635 70 637 43 637 c 2
 21 637 l 1
 21 683 l 1
 32 683 l 2
 48 680 150 680 180 680 c 0
 210 680 312 680 328 683 c 2
 339 683 l 1
 339 637 l 1
 317 637 l 2
 290 637 260 635 251 634 c 0
 242 632 237 628 234 623 c 0
 232 620 232 610 232 342 c 0
 232 73 232 63 234 60 c 0
 237 55 242 51 251 49 c 0
 260 48 290 46 317 46 c 2
 339 46 l 1
 339 0 l 1
 328 0 l 2
EndSplineSet
EndChar

StartChar: J
Encoding: 74 74 43
Width: 514
GlyphClass: 2
Flags: MW
HStem: -22 37<188.5 194.5 180.5 240.5> 637 46<154 166 154 182 154 166 457 465>
VStem: 25 127<107.5 131> 286 101
LayerCount: 2
Fore
SplineSet
89 177 m 0
 124 177 152 153 152 112 c 0
 152 79 129 57 102 52 c 0
 99 51 99 51 101 49 c 0
 105 44 119 35 129 29 c 0
 148 20 171 15 190 15 c 0
 199 15 207 16 213 18 c 0
 252 30 280 72 286 126 c 0
 286 133 287 256 287 378 c 0
 287 500 286 619 286 621 c 0
 282 628 275 632 261 634 c 0
 249 636 213 637 182 637 c 2
 154 637 l 1
 154 683 l 1
 166 683 l 2
 181 681 301 680 332 680 c 0
 352 680 371 681 393 681 c 0
 423 682 452 682 457 683 c 2
 465 683 l 1
 465 637 l 1
 449 637 l 2
 430 637 408 635 401 634 c 0
 396 632 391 627 389 623 c 0
 388 621 388 546 388 376 c 0
 388 169 388 131 387 123 c 0
 374 38 287 -22 194 -22 c 0
 183 -22 167 -20 160 -20 c 0
 88 -8 36 37 26 95 c 0
 25 100 25 105 25 110 c 0
 25 152 53 177 89 177 c 0
EndSplineSet
EndChar

StartChar: K
Encoding: 75 75 44
Width: 778
GlyphClass: 2
Flags: MW
HStem: 0 46<25 36 25 58 324 335 324 324 461 469 469 472 728 736 728 728> 637 46<25 36 25 58 25 36 324 335 489 493 716 722>
VStem: 128 104<109 156 156 251 462 504.5>
LayerCount: 2
Fore
SplineSet
128 622 m 1
 116 634 115 636 58 637 c 2
 25 637 l 1
 25 683 l 1
 36 683 l 2
 53 680 150 680 180 680 c 0
 210 680 307 680 324 683 c 2
 335 683 l 1
 335 637 l 1
 313 637 l 1
 289 637 l 2
 262 637 235 635 233 620 c 0
 232 618 232 547 232 462 c 2
 233 307 l 1
 379 449 l 2
 483 551 525 592 527 596 c 0
 529 599 530 603 531 607 c 0
 531 624 518 632 503 636 c 0
 499 636 495 637 493 637 c 2
 489 637 l 1
 489 683 l 1
 499 683 l 2
 510 681 607 680 630 680 c 0
 645 680 659 681 673 681 c 0
 694 682 713 682 716 683 c 2
 722 683 l 1
 722 637 l 1
 708 637 l 2
 658 634 619 621 589 597 c 0
 582 591 406 420 406 419 c 0
 406 418 624 90 631 80 c 0
 637 71 648 61 655 57 c 0
 668 50 684 47 715 46 c 2
 736 46 l 1
 736 0 l 1
 728 0 l 2
 724 1 698 1 670 2 c 0
 650 2 633 3 615 3 c 0
 588 3 486 2 472 0 c 2
 461 0 l 1
 461 46 l 1
 469 46 l 2
 494 46 515 51 515 72 c 0
 515 76 514 80 512 84 c 2
 336 351 l 1
 316 334 297 314 278 296 c 2
 232 251 l 1
 232 156 l 2
 232 62 233 61 235 58 c 0
 242 49 251 47 302 46 c 2
 335 46 l 1
 335 0 l 1
 324 0 l 2
 307 3 210 3 180 3 c 0
 150 3 53 3 36 0 c 2
 25 0 l 1
 25 46 l 1
 58 46 l 2
 115 47 116 49 128 61 c 1
 128 622 l 1
EndSplineSet
EndChar

StartChar: L
Encoding: 76 76 45
Width: 625
GlyphClass: 2
Flags: MW
HStem: 0 46<25 58 25 554 25 58> 637 46<25 36 25 58 25 36 348 360>
VStem: 128 105<61 622 622 622> 542 40<271 272.5>
LayerCount: 2
Fore
SplineSet
128 622 m 1
 116 634 115 636 58 637 c 2
 25 637 l 1
 25 683 l 1
 36 683 l 2
 54 680 151 680 182 680 c 0
 215 680 330 680 348 683 c 2
 360 683 l 1
 360 637 l 1
 333 637 l 2
 318 637 296 637 285 636 c 0
 247 634 244 633 233 622 c 1
 232 342 l 2
 232 143 232 62 233 59 c 0
 234 56 236 53 237 52 c 0
 243 47 246 47 313 47 c 0
 380 47 384 47 410 53 c 0
 490 76 522 126 536 221 c 0
 537 232 542 270 542 272 c 0
 542 273 551 273 562 273 c 2
 582 273 l 1
 582 268 l 2
 579 262 557 11 554 5 c 2
 554 0 l 1
 25 0 l 1
 25 46 l 1
 58 46 l 2
 115 47 116 49 128 61 c 1
 128 622 l 1
EndSplineSet
EndChar

StartChar: M
Encoding: 77 77 46
Width: 917
GlyphClass: 2
Flags: MW
HStem: 0 46<29 37 29 46 269 278 269 269 585 596 876 887 876 876> 637 46<29 62 29 135 854 854 854 887>
VStem: 132 44<86 622> 688 97<61 347 347 426>
LayerCount: 2
Fore
SplineSet
132 622 m 1
 120 634 119 636 62 637 c 2
 29 637 l 1
 29 683 l 1
 135 683 l 2
 241 683 241 682 244 680 c 2
 249 675 l 2
 250 674 297 549 354 398 c 2
 458 124 l 1
 562 398 l 2
 619 549 666 674 668 675 c 0
 669 677 671 679 672 680 c 0
 675 682 675 683 781 683 c 2
 887 683 l 1
 887 637 l 1
 854 637 l 2
 800 636 794 635 785 622 c 1
 785 61 l 1
 794 48 800 47 854 46 c 2
 887 46 l 1
 887 0 l 1
 876 0 l 2
 860 3 765 3 736 3 c 0
 707 3 612 3 596 0 c 2
 585 0 l 1
 585 46 l 1
 618 46 l 2
 675 47 676 49 688 61 c 1
 688 347 l 2
 688 505 688 633 687 632 c 2
 687 632 454 14 450 7 c 0
 446 1 444 1 430 1 c 0
 416 1 414 1 410 7 c 0
 409 9 356 148 292 316 c 2
 176 624 l 2
 175 625 175 504 175 356 c 2
 176 86 l 1
 186 56 220 48 261 46 c 2
 278 46 l 1
 278 0 l 1
 269 0 l 2
 256 3 178 3 154 3 c 0
 130 3 50 3 37 0 c 2
 29 0 l 1
 29 46 l 1
 46 46 l 2
 84 48 117 56 129 80 c 2
 132 86 l 1
 132 622 l 1
EndSplineSet
EndChar

StartChar: N
Encoding: 78 78 47
Width: 750
GlyphClass: 2
Flags: MW
HStem: 0 46<25 33 25 42 265 274 265 265> 637 46<25 52 25 232 475 483 715 724>
VStem: 128 43<345 605 345 634 345 634> 578 43<178 302 6 598>
LayerCount: 2
Fore
SplineSet
265 0 m 2
 252 3 174 3 150 3 c 0
 126 3 46 3 33 0 c 2
 25 0 l 1
 25 46 l 1
 42 46 l 2
 80 48 113 56 125 80 c 2
 128 86 l 1
 128 634 l 1
 124 634 l 2
 117 636 78 637 52 637 c 2
 25 637 l 1
 25 683 l 1
 232 683 l 1
 235 680 l 2
 240 678 577 178 578 178 c 2
 578 598 l 1
 564 625 535 635 492 637 c 2
 475 637 l 1
 475 683 l 1
 483 683 l 2
 495 681 576 680 600 680 c 0
 624 680 702 680 715 683 c 2
 724 683 l 1
 724 637 l 1
 707 637 l 2
 667 635 632 627 622 598 c 1
 621 302 l 1
 621 6 l 1
 614 0 l 1
 600 0 l 2
 585 0 585 0 582 3 c 0
 573 12 174 600 171 605 c 2
 171 345 l 1
 172 86 l 1
 182 56 216 48 257 46 c 2
 274 46 l 1
 274 0 l 1
 265 0 l 2
EndSplineSet
EndChar

StartChar: O
Encoding: 79 79 48
Width: 778
GlyphClass: 2
Flags: MW
HStem: -22 42<380 394.5 364 480> 665 40<383.5 404>
VStem: 56 118<324.5 375 287 393> 603 119<298.5 349 240 375>
LayerCount: 2
Fore
SplineSet
722 341 m 0
 722 139 572 -22 388 -22 c 0
 372 -22 356 -21 339 -18 c 0
 198 5 86 122 61 273 c 0
 56 298 56 309 56 340 c 0
 56 446 90 519 138 581 c 0
 151 596 176 622 191 633 c 0
 241 674 301 698 362 704 c 0
 371 705 379 705 388 705 c 0
 458 705 528 680 587 633 c 0
 601 622 626 596 639 581 c 0
 684 525 710 459 720 383 c 0
 721 374 722 357 722 341 c 0
467 647 m 0
 442 658 420 665 388 665 c 0
 362 665 336 659 311 647 c 0
 240 612 193 539 179 439 c 0
 174 411 174 396 174 354 c 0
 174 220 202 121 277 61 c 0
 308 35 339 20 389 20 c 0
 400 20 411 20 417 21 c 0
 466 31 508 63 537 99 c 0
 585 163 603 243 603 354 c 0
 603 396 603 411 598 439 c 0
 584 539 537 612 467 647 c 0
EndSplineSet
EndChar

StartChar: P
Encoding: 80 80 49
Width: 681
GlyphClass: 2
Flags: MW
HStem: 0 46<27 38 27 60 326 337 326 326> 301 41<234 302 302 321.5 231 328 234 234> 637 46<27 60 27 214>
VStem: 130 101<342 483 342 622> 507 117<483.5 494.5 483.5 517.5>
LayerCount: 2
Fore
SplineSet
130 622 m 1
 118 634 117 636 60 637 c 2
 27 637 l 1
 27 683 l 1
 214 683 l 2
 334 683 406 683 413 682 c 0
 513 674 604 611 622 519 c 0
 624 511 624 500 624 489 c 0
 624 478 624 468 622 460 c 0
 606 381 532 324 451 307 c 0
 425 301 429 302 328 301 c 2
 234 301 l 1
 234 181 l 2
 234 61 235 61 237 58 c 0
 244 49 253 47 304 46 c 2
 337 46 l 1
 337 0 l 1
 326 0 l 2
 309 3 212 3 182 3 c 0
 152 3 55 3 38 0 c 2
 27 0 l 1
 27 46 l 1
 60 46 l 2
 117 47 118 49 130 61 c 1
 130 622 l 1
474 604 m 0
 437 635 405 637 333 637 c 2
 307 637 l 2
 280 637 256 636 251 636 c 0
 241 635 236 633 234 628 c 0
 232 625 231 622 231 483 c 2
 231 342 l 1
 302 342 l 2
 341 342 379 342 385 343 c 0
 474 351 507 390 507 488 c 0
 507 547 502 579 474 604 c 0
EndSplineSet
EndChar

StartChar: Q
Encoding: 81 81 50
Width: 778
GlyphClass: 2
Flags: MW
HStem: -193 117<597.5 610.5> -22 40<371 394.5 371 414> 117 38<371.5 399 367 406.5> 665 40<383.5 393.5>
VStem: 56 114<272 349> 301 37<64 79 53.5 93> 607 115<333 349 333 387> 706 21
LayerCount: 2
Fore
SplineSet
388 -22 m 0xfd
 204 -22 56 139 56 341 c 0
 56 357 56 374 57 383 c 0
 67 462 97 528 138 581 c 0
 151 596 176 622 191 633 c 0
 241 674 301 698 362 704 c 0
 371 705 379 705 388 705 c 0
 458 705 528 680 587 633 c 0
 601 622 626 596 639 581 c 0
 684 525 710 459 720 383 c 0
 721 374 722 357 722 341 c 0xfe
 722 325 721 308 720 299 c 0
 711 221 683 153 636 97 c 0
 607 63 575 37 536 15 c 0
 529 12 523 9 523 8 c 2
 523 8 536 -18 541 -26 c 0
 560 -59 580 -76 615 -76 c 0
 666 -76 702 -48 706 -3 c 0
 707 7 711 10 716 10 c 0
 720 10 724 8 728 5 c 1
 727 -13 l 1
 727 -109 687 -178 631 -191 c 0
 625 -193 615 -193 606 -193 c 0
 574 -193 557 -185 540 -168 c 0
 521 -150 508 -124 498 -83 c 0
 495 -71 483 -10 483 -8 c 0
 483 -7 440 -22 388 -22 c 0xfd
301 68 m 0
 301 118 343 155 391 155 c 0
 407 155 418 151 431 146 c 0
 456 133 476 110 495 70 c 2
 501 58 l 1
 509 63 528 82 537 92 c 0
 584 149 607 231 607 339 c 0
 607 435 590 509 554 566 c 0
 519 621 467 656 410 664 c 0
 403 665 397 665 390 665 c 0
 348 665 306 649 271 620 c 0
 261 612 244 594 236 584 c 0
 192 525 170 446 170 339 c 0
 170 205 204 116 277 57 c 0
 285 51 304 39 305 39 c 1
 305 40 304 42 304 46 c 0
 302 51 301 60 301 68 c 0
338 67 m 0
 338 40 357 18 385 18 c 0
 404 18 426 21 445 28 c 0
 457 32 472 38 472 40 c 0
 472 42 465 62 461 69 c 0
 447 102 427 117 386 117 c 0
 357 117 338 91 338 67 c 0
EndSplineSet
EndChar

StartChar: R
Encoding: 82 82 51
Width: 736
GlyphClass: 2
Flags: MW
HStem: -22 38<630 645> 0 46<27 38 27 60 323 334 323 323> 323 37<231 289 289 297 231 289> 637 46<27 60 27 202>
VStem: 130 101<192 323 192 360 360 492> 491 119<473.5 503.5 460.5 510.5> 692 40<87 94.5>
LayerCount: 2
Fore
SplineSet
130 622 m 1x7e
 118 634 117 636 60 637 c 2
 27 637 l 1
 27 683 l 1
 202 683 l 2
 396 682 385 683 420 676 c 0
 449 670 474 662 500 648 c 0
 561 617 600 570 609 517 c 0
 610 512 610 506 610 501 c 0
 610 420 535 364 467 342 c 0
 462 340 457 339 456 338 c 2
 456 338 459 335 467 332 c 0
 507 310 544 273 556 226 c 0
 558 217 576 102 578 94 c 0
 588 46 600 26 623 18 c 0
 627 16 631 16 640 16 c 2
 645 16 l 2
 656 16 661 19 669 27 c 0
 683 41 690 60 692 87 c 0
 692 102 695 105 712 105 c 0
 728 105 732 103 732 90 c 0
 732 41 705 -2 672 -16 c 0
 659 -21 650 -22 630 -22 c 0xbe
 534 -18 473 21 458 90 c 0
 452 118 460 209 449 246 c 0
 437 282 408 310 373 320 c 2
 363 322 l 1
 297 323 l 1
 231 323 l 1
 231 192 l 1
 232 61 l 1
 241 48 247 47 301 46 c 2
 334 46 l 1
 334 0 l 1
 323 0 l 2
 307 3 210 3 181 3 c 0
 151 3 54 3 38 0 c 2
 27 0 l 1
 27 46 l 1
 60 46 l 2
 117 47 118 49 130 61 c 1
 130 622 l 1x7e
490 539 m 0
 476 626 409 637 304 637 c 0
 279 637 256 636 250 636 c 0
 241 635 236 632 234 628 c 0
 232 625 231 622 231 492 c 2
 231 360 l 1
 289 360 l 2
 375 360 424 361 463 400 c 0
 487 424 491 448 491 499 c 0
 491 522 491 531 490 539 c 0
EndSplineSet
EndChar

StartChar: S
Encoding: 83 83 52
Width: 556
GlyphClass: 2
Flags: MW
HStem: -21 45<243 308 243 312> 662 42<226.5 266.5>
VStem: 55 40<101 218.5> 55 80<519.5 549> 420 80<135 183.5> 430 42
LayerCount: 2
Fore
SplineSet
89 227 m 1xe8
 93 223 95 223 95 214 c 0
 95 93 181 24 305 24 c 0
 311 24 317 24 321 25 c 0
 379 37 420 89 420 155 c 0xe8
 420 212 387 265 340 281 c 0
 336 282 302 290 266 300 c 0
 229 309 194 317 189 319 c 0
 115 344 55 415 55 507 c 0
 55 591 105 655 163 684 c 0
 189 697 210 704 243 704 c 0
 302 704 335 695 371 670 c 0
 383 662 397 649 405 641 c 1
 426 672 l 2
 438 688 448 703 449 704 c 0
 451 704 454 705 459 705 c 0
 468 705 468 703 472 699 c 1
 472 462 l 1
 466 456 l 1
 448 456 l 2
 433 456 434 457 430 479 c 0
 419 562 384 619 329 646 c 0
 306 656 279 662 254 662 c 0
 184 662 135 612 135 542 c 0xd4
 135 497 159 456 200 435 c 0
 220 426 355 397 370 389 c 0
 442 361 500 289 500 191 c 0
 500 79 432 1 337 -19 c 0
 327 -21 323 -21 301 -21 c 0
 169 -21 126 45 122 41 c 0
 113 28 79 -19 78 -21 c 0
 76 -22 73 -22 68 -22 c 0
 59 -22 59 -20 55 -16 c 1
 55 101 l 2
 55 190 55 220 56 222 c 0
 58 226 62 227 76 227 c 2
 89 227 l 1xe8
EndSplineSet
EndChar

StartChar: T
Encoding: 84 84 53
Width: 722
GlyphClass: 2
Flags: MW
HStem: 0 46<164 177 164 194 545 558 545 545> 437 21G<36 76 36 36 645 685 645 645> 630 47<224.5 244 244 271 436 451 451 478>
VStem: 36 40<437 443 437 443> 309 104<63 339 63 437> 645 40<437 443 437 443>
LayerCount: 2
Fore
SplineSet
36 443 m 2
 37 446 54 667 55 671 c 2
 55 677 l 1
 666 677 l 1
 666 671 l 2
 667 668 684 447 685 443 c 2
 685 437 l 1
 645 437 l 1
 645 443 l 2
 644 447 643 457 642 467 c 0
 637 534 627 573 610 593 c 0
 599 606 578 618 555 625 c 0
 534 630 526 630 478 630 c 2
 451 630 l 2
 421 630 418 630 414 618 c 0
 413 616 413 535 413 339 c 2
 413 63 l 1
 418 56 425 51 438 49 c 0
 450 48 492 46 528 46 c 2
 558 46 l 1
 558 0 l 1
 545 0 l 2
 524 3 398 3 361 3 c 0
 323 3 198 3 177 0 c 2
 164 0 l 1
 164 46 l 1
 194 46 l 2
 230 46 272 48 284 49 c 0
 297 51 304 56 309 63 c 1
 309 339 l 2
 309 535 309 616 308 618 c 0
 304 630 301 630 271 630 c 2
 244 630 l 2
 205 630 197 630 187 629 c 0
 157 624 137 616 119 601 c 0
 97 582 85 544 79 467 c 0
 78 457 77 447 76 443 c 2
 76 437 l 1
 36 437 l 1
 36 443 l 2
EndSplineSet
EndChar

StartChar: U
Encoding: 85 85 54
Width: 750
GlyphClass: 2
Flags: MW
HStem: -22 46<368 394.5 368 448.5> 637 46<25 36 25 58 25 36 324 335 472 481 715 724>
VStem: 128 104<412 418 314.5 622> 575 46<399 598>
LayerCount: 2
Fore
SplineSet
128 622 m 1
 116 634 115 636 58 637 c 2
 25 637 l 1
 25 683 l 1
 36 683 l 2
 53 680 150 680 180 680 c 0
 210 680 307 680 324 683 c 2
 335 683 l 1
 335 637 l 1
 302 637 l 2
 248 636 242 635 233 622 c 1
 232 418 l 2
 232 211 232 194 236 169 c 0
 242 124 256 92 280 67 c 0
 309 39 347 24 389 24 c 0
 400 24 411 25 422 27 c 0
 501 41 556 97 571 183 c 0
 575 206 575 213 575 410 c 2
 575 598 l 1
 561 625 532 635 489 637 c 2
 472 637 l 1
 472 683 l 1
 481 683 l 2
 494 680 574 680 598 680 c 0
 622 680 702 680 715 683 c 2
 724 683 l 1
 724 637 l 1
 707 637 l 2
 667 635 632 627 622 598 c 1
 621 399 l 2
 620 184 621 197 615 171 c 0
 593 70 508 -22 389 -22 c 0
 341 -22 303 -11 264 9 c 0
 192 46 144 112 130 192 c 0
 129 202 129 216 128 412 c 2
 128 622 l 1
EndSplineSet
EndChar

StartChar: V
Encoding: 86 86 55
Width: 750
GlyphClass: 2
Flags: MW
HStem: 637 46<19 28 19 48 19 28 294 305 503 508 724 730>
VStem: 114 109<619 620> 575 52<595.5 596 595.5 610.5>
LayerCount: 2
Fore
SplineSet
114 620 m 0
 100 634 99 636 48 637 c 2
 19 637 l 1
 19 683 l 1
 28 683 l 2
 42 680 126 680 152 680 c 0
 180 680 279 681 294 683 c 2
 305 683 l 1
 305 637 l 1
 284 637 l 2
 253 636 234 632 227 626 c 0
 224 624 223 622 223 620 c 0
 223 617 403 126 404 126 c 2
 490 358 l 2
 571 577 575 591 575 597 c 0
 575 624 537 637 508 637 c 2
 503 637 l 1
 503 683 l 1
 512 683 l 2
 523 681 605 680 627 680 c 0
 648 680 713 680 724 683 c 2
 730 683 l 1
 730 637 l 1
 723 637 l 2
 680 637 642 624 627 596 c 0
 627 595 403 -12 401 -14 c 0
 398 -21 394 -22 383 -22 c 2
 374 -22 l 1
 365 -22 l 2
 354 -22 351 -21 348 -14 c 0
 347 -13 294 130 231 303 c 0
 167 475 114 618 114 620 c 0
EndSplineSet
EndChar

StartChar: W
Encoding: 87 87 56
Width: 1028
GlyphClass: 2
Flags: MW
HStem: 637 46<18 27 18 35 18 27 287 298 380 388 650 660 783 792 1003 1009>
LayerCount: 2
Fore
SplineSet
792 683 m 2
 804 681 892 680 914 680 c 0
 935 680 991 680 1003 683 c 2
 1009 683 l 1
 1009 637 l 1
 996 637 l 2
 963 635 941 627 926 612 c 0
 921 607 917 602 915 598 c 0
 907 582 720 -13 716 -17 c 0
 712 -21 708 -22 694 -22 c 0
 681 -22 676 -21 673 -15 c 0
 672 -14 636 97 593 231 c 0
 550 365 515 476 514 477 c 2
 435 234 l 2
 392 99 356 -13 355 -15 c 0
 351 -22 346 -22 331 -22 c 0
 316 -21 314 -21 310 -15 c 0
 307 -12 109 614 104 622 c 0
 101 627 95 632 87 633 c 0
 80 635 57 637 35 637 c 2
 18 637 l 1
 18 683 l 1
 27 683 l 2
 48 682 102 681 154 681 c 0
 187 681 272 681 287 683 c 2
 298 683 l 1
 298 637 l 1
 285 637 l 2
 260 637 233 634 223 629 c 0
 217 627 213 623 213 620 c 0
 213 618 247 511 289 381 c 2
 364 144 l 1
 427 339 l 2
 463 453 490 533 492 546 c 1
 477 593 l 2
 469 618 467 622 464 625 c 0
 456 634 448 636 408 637 c 2
 380 637 l 1
 380 683 l 1
 388 683 l 2
 402 680 482 680 508 680 c 0
 536 680 636 681 650 683 c 2
 660 683 l 1
 660 637 l 1
 647 637 l 2
 614 637 576 634 576 619 c 0
 576 615 727 146 727 146 c 1
 727 146 869 580 869 600 c 0
 869 604 868 604 867 606 c 0
 857 623 830 635 794 637 c 2
 783 637 l 1
 783 683 l 1
 792 683 l 2
EndSplineSet
EndChar

StartChar: X
Encoding: 88 88 57
Width: 750
GlyphClass: 2
Flags: MW
HStem: 0 46<23 31 23 40 272 280 434 440 440 445 717 717 717 726> 637 46<37 46 37 57 37 46 37 71 318 324 324 329 428 436 676 684>
VStem: 324 88<338.5 387.5>
LayerCount: 2
Fore
SplineSet
270 0 m 2
 257 3 165 3 141 3 c 0
 118 3 43 3 31 0 c 2
 23 0 l 1
 23 46 l 1
 40 46 l 2
 93 48 138 60 161 88 c 0
 166 95 324 338 324 339 c 0
 324 341 147 618 143 622 c 0
 126 636 106 637 71 637 c 2
 57 637 l 1
 37 637 l 1
 37 683 l 1
 46 683 l 2
 61 680 145 680 172 680 c 0
 200 680 303 681 318 683 c 2
 329 683 l 1
 329 637 l 1
 324 637 l 2
 301 637 265 627 263 621 c 0
 263 617 382 431 384 431 c 0
 386 431 489 592 489 593 c 0
 492 599 489 610 482 617 c 0
 472 628 454 635 436 637 c 2
 428 637 l 1
 428 683 l 1
 437 683 l 2
 450 680 542 680 566 680 c 0
 589 680 664 680 676 683 c 2
 684 683 l 1
 684 637 l 1
 667 637 l 2
 611 635 573 622 551 599 c 0
 547 595 526 563 478 491 c 0
 442 435 412 388 412 387 c 0
 412 385 616 66 620 62 c 0
 631 50 643 47 695 46 c 2
 726 46 l 1
 726 0 l 1
 717 0 l 2
 702 3 618 3 591 3 c 0
 563 3 460 2 445 0 c 2
 434 0 l 1
 434 46 l 1
 440 46 l 2
 458 46 499 53 499 64 c 0
 499 70 354 293 353 295 c 0
 352 296 336 273 286 195 c 0
 250 140 220 94 219 92 c 0
 218 91 218 87 218 84 c 0
 218 66 242 49 272 46 c 2
 280 46 l 1
 280 0 l 1
 270 0 l 2
EndSplineSet
EndChar

StartChar: Y
Encoding: 89 89 58
Width: 750
GlyphClass: 2
Flags: MW
HStem: 0 46<221 232 221 254 518 528 518 518> 637 46<11 20 11 31 11 20 11 52 294 305 508 517 731 738>
VStem: 324 101<167 169 169 273>
LayerCount: 2
Fore
SplineSet
518 0 m 2
 502 3 403 3 374 3 c 0
 345 3 248 3 232 0 c 2
 221 0 l 1
 221 46 l 1
 254 46 l 2
 305 47 314 49 321 58 c 0
 323 61 324 61 324 167 c 2
 324 273 l 1
 221 446 l 2
 151 563 117 620 114 623 c 0
 101 636 79 637 52 637 c 2
 31 637 l 1
 11 637 l 1
 11 683 l 1
 20 683 l 2
 36 680 121 680 148 680 c 0
 177 680 279 681 294 683 c 2
 305 683 l 1
 305 637 l 1
 287 637 l 2
 253 636 238 631 236 621 c 0
 236 619 247 600 321 475 c 2
 407 332 l 1
 483 460 l 2
 525 531 560 590 561 592 c 0
 563 595 563 599 563 604 c 0
 563 626 541 635 517 637 c 2
 508 637 l 1
 508 683 l 1
 517 683 l 2
 528 681 599 681 626 681 c 0
 669 681 713 682 731 683 c 2
 738 683 l 1
 738 637 l 1
 723 637 l 2
 667 634 632 619 613 588 c 0
 610 584 567 511 517 427 c 2
 425 273 l 1
 425 169 l 2
 425 68 425 64 427 60 c 0
 429 55 436 51 444 49 c 0
 454 47 482 46 506 46 c 2
 528 46 l 1
 528 0 l 1
 518 0 l 2
EndSplineSet
EndChar

StartChar: Z
Encoding: 90 90 59
Width: 611
GlyphClass: 2
Flags: MW
HStem: 0 49<227.5 543 227.5 302> 443 21G<69 69 69 89> 636 47
VStem: 69 40<444 455> 520 40<274 282 274 282 274 282>
LayerCount: 2
Fore
SplineSet
69 443 m 1
 69 467 80 635 80 683 c 1
 549 683 l 1
 554 678 555 680 555 664 c 0
 555 654 555 649 554 648 c 0
 552 645 180 52 179 50 c 0
 178 49 192 49 263 49 c 0
 335 50 349 50 361 51 c 0
 446 63 489 96 507 173 c 0
 513 198 515 217 520 273 c 1
 520 282 l 1
 560 282 l 1
 560 274 l 2
 559 271 543 10 543 8 c 2
 543 0 l 1
 302 0 l 1
 61 1 l 1
 58 3 l 2
 56 6 55 6 55 21 c 2
 55 35 l 1
 64 53 432 634 432 637 c 2
 432 637 288 637 275 636 c 0
 210 632 169 613 141 573 c 0
 123 544 109 493 109 445 c 0
 109 443 109 443 89 443 c 2
 69 443 l 1
EndSplineSet
EndChar

StartChar: bracketleft
Encoding: 91 91 60
Width: 278
GlyphClass: 2
Flags: MW
HStem: -250 40<158 255 158 255> 710 40<158 255 158 158>
VStem: 118 40<-210 710 -210 750> 118 137<-250 -210 710 750>
LayerCount: 2
Fore
SplineSet
118 -250 m 1xd0
 118 750 l 1
 255 750 l 1
 255 710 l 1xd0
 158 710 l 1
 158 -210 l 1xe0
 255 -210 l 1
 255 -250 l 1
 118 -250 l 1xd0
EndSplineSet
EndChar

StartChar: backslash
Encoding: 92 92 61
Width: 500
GlyphClass: 2
Flags: W
LayerCount: 2
Fore
SplineSet
56 731 m 0
 56 741 65 750 75 750 c 0
 82 750 88 746 92 740 c 0
 96 733 444 -221 444 -231 c 0
 444 -241 434 -250 424 -250 c 0
 417 -250 411 -246 407 -240 c 0
 405 -237 56 716 56 731 c 0
EndSplineSet
EndChar

StartChar: bracketright
Encoding: 93 93 62
Width: 278
GlyphClass: 2
Flags: MW
HStem: -250 40<22 119 22 159 22 119> 710 40<22 159 22 119>
VStem: 22 137<-250 -210 -210 -210 710 750 -250 750> 119 40<-210 710 710 710>
LayerCount: 2
Fore
SplineSet
22 710 m 1xe0
 22 750 l 1
 159 750 l 1
 159 -250 l 1
 22 -250 l 1
 22 -210 l 1xe0
 119 -210 l 1
 119 710 l 1xd0
 22 710 l 1xe0
EndSplineSet
EndChar

StartChar: asciicircum
Encoding: 94 94 63
Width: 500
GlyphClass: 2
Flags: MW
HStem: 531 163<249 361>
VStem: 112 275<560 560.5>
LayerCount: 2
Fore
SplineSet
112 560 m 1
 249 694 l 1
 257 686 l 2
 317 629 387 561 387 560 c 2
 361 531 l 1
 355 535 335 553 303 581 c 2
 250 627 l 1
 195 580 l 2
 166 554 141 533 140 532 c 0
 139 531 136 533 125 546 c 2
 112 560 l 1
EndSplineSet
EndChar

StartChar: underscore
Encoding: 95 95 64
Width: 500
GlyphClass: 2
Flags: MW
HStem: -62 37<0 499 0 499>
LayerCount: 2
Fore
SplineSet
0 -62 m 1
 0 -25 l 1
 499 -25 l 1
 499 -62 l 1
 0 -62 l 1
EndSplineSet
EndChar

StartChar: grave
Encoding: 96 96 65
Width: 500
GlyphClass: 2
Flags: MW
HStem: 505 194<138.5 267>
VStem: 106 189<532.5 666.5>
LayerCount: 2
Fore
SplineSet
106 655 m 0
 106 678 127 699 150 699 c 0
 160 699 172 693 177 688 c 0
 179 686 295 538 295 533 c 0
 295 532 289 526 282 519 c 2
 267 505 l 1
 196 563 l 2
 157 595 122 623 120 626 c 0
 111 635 106 645 106 655 c 0
EndSplineSet
EndChar

StartChar: a
Encoding: 97 97 66
Width: 500
GlyphClass: 2
Flags: MW
HStem: -11 37<185.5 211.5> -6 46<382.5 432> 233 35<317 317.5> 411 37<209 240>
VStem: 34 92<100.5 114 83.5 125.5> 63 85<344.5 405.5> 318 84<175 191 128.5 290 128.5 302.5> 453 40<109 145 106 145>
LayerCount: 2
Fore
SplineSet
116 305 m 0xb7
 84 305 63 330 63 359 c 0
 63 369 66 380 71 391 c 0
 88 427 144 448 218 448 c 0
 307 448 376 404 396 340 c 0
 402 322 402 324 402 194 c 0
 402 63 402 66 408 54 c 0
 412 45 420 40 428 40 c 0
 436 40 443 45 447 54 c 0
 452 64 453 70 453 109 c 2
 453 145 l 1
 493 145 l 1
 493 106 l 2
 492 68 492 66 490 59 c 0
 479 23 445 -6 400 -6 c 0x77
 365 -6 338 22 329 54 c 1
 329 58 l 1
 322 51 312 37 304 30 c 0
 272 3 233 -11 190 -11 c 0
 122 -11 61 20 42 69 c 0
 37 81 34 94 34 107 c 0xbb
 34 144 52 172 73 193 c 0
 90 210 105 220 130 231 c 0
 178 253 232 264 304 268 c 1
 318 268 l 1
 318 290 l 2
 318 315 317 327 312 340 c 0
 299 383 265 411 215 411 c 0
 203 411 148 408 148 403 c 1
 160 395 170 375 170 359 c 0
 170 330 148 305 116 305 c 0xb7
318 175 m 0
 318 207 318 233 317 233 c 2
 317 233 314 233 312 232 c 0
 222 226 162 198 137 151 c 0
 130 138 126 122 126 106 c 0
 126 61 162 26 209 26 c 0xbb
 264 26 304 65 315 109 c 0
 317 116 317 119 318 175 c 0
EndSplineSet
EndChar

StartChar: b
Encoding: 98 98 67
Width: 556
GlyphClass: 2
Flags: MW
HStem: -11 37<290 315 290 366> 0 21G<98 118 98 98> 405 37<295.5 305.5> 637 46<21 22.5 21 38 20 22.5> 674 20G<176 179 179 179>
VStem: 98 84<98 298 298 339 98 380> 424 98<209 235.5>
LayerCount: 2
Fore
SplineSet
98 688 m 0x76
 139 691 174 694 176 694 c 2
 179 694 l 1
 179 543 l 2
 179 459 179 391 180 391 c 2
 180 391 183 393 186 396 c 0
 217 422 268 442 323 442 c 0
 335 442 346 441 356 439 c 0
 448 421 522 336 522 216 c 0
 522 202 521 189 520 181 c 0
 504 79 425 -11 307 -11 c 0xae
 251 -11 204 17 175 48 c 2
 168 55 l 1
 158 37 l 2
 153 28 146 15 143 10 c 2
 138 1 l 1
 118 0 l 1
 98 0 l 1
 98 298 l 2
 98 462 98 599 97 603 c 0
 93 629 82 635 38 637 c 2
 20 637 l 1
 20 660 l 2
 20 681 20 683 22 683 c 0
 23 683 57 686 98 688 c 0x76
331 402 m 0
 323 403 311 405 300 405 c 0
 253 405 212 380 188 347 c 2
 182 339 l 1
 182 98 l 1
 187 91 l 2
 206 60 234 38 264 30 c 0
 274 27 285 26 295 26 c 0
 335 26 373 46 396 80 c 0
 404 91 407 99 412 113 c 0
 421 139 424 165 424 212 c 0
 424 259 420 298 412 323 c 0
 399 363 369 392 331 402 c 0
EndSplineSet
EndChar

StartChar: c
Encoding: 99 99 68
Width: 444
GlyphClass: 2
Flags: MW
HStem: -11 40<247 279> 408 40<237.5 266.5>
VStem: 34 97<207.5 220.5> 297 107<344 361 341.5 365> 374 41
LayerCount: 2
Fore
SplineSet
350 305 m 0xf0
 318 305 297 330 297 358 c 0xf0
 297 372 302 386 312 396 c 0
 318 403 319 402 307 404 c 0
 294 406 275 408 258 408 c 0
 217 408 199 399 178 376 c 0
 143 341 131 295 131 219 c 0
 131 163 141 122 162 90 c 0
 184 57 222 29 272 29 c 0
 288 29 303 32 316 39 c 0
 342 52 364 82 374 117 c 0
 377 128 378 129 395 129 c 2
 409 129 l 2
 411 127 415 123 415 120 c 0xe8
 415 111 400 77 390 61 c 0
 358 15 309 -11 249 -11 c 0
 213 -11 185 -4 154 12 c 0
 90 45 48 105 35 182 c 0
 34 188 34 201 34 214 c 0
 34 227 34 240 35 247 c 0
 43 309 72 362 117 400 c 0
 153 429 195 448 250 448 c 0
 322 448 384 432 401 380 c 0
 403 374 404 365 404 357 c 0
 404 326 380 305 350 305 c 0xf0
EndSplineSet
EndChar

StartChar: d
Encoding: 100 100 69
Width: 556
GlyphClass: 2
Flags: MW
HStem: -11 37<233.5 262> 0 46<534 535> 405 37<243.5 271 187.5 287> 637 46<299 300.5 299 316 298 300.5> 674 20G<454 457 457 457>
VStem: 34 97<208 249.5 175 281> 373 84<306.5 342 342 342>
LayerCount: 2
Fore
SplineSet
244 442 m 0xa6
 298 442 343 421 376 393 c 1
 376 495 l 2
 376 551 376 599 375 603 c 0
 371 629 360 635 316 637 c 2
 298 637 l 1
 298 660 l 2
 298 681 298 683 300 683 c 0xb6
 301 683 335 686 376 688 c 0
 417 691 452 694 454 694 c 2
 457 694 l 1
 457 390 l 2
 457 223 457 84 458 81 c 0
 462 54 473 48 517 46 c 2
 535 46 l 1
 535 0 l 2x6e
 533 0 386 -10 380 -11 c 2
 373 -11 l 1
 373 44 l 1
 365 37 l 2
 332 9 289 -11 235 -11 c 0
 183 -11 141 10 111 36 c 0
 70 72 44 121 35 180 c 0
 34 188 34 201 34 215 c 0
 34 347 131 442 244 442 c 0xa6
373 342 m 1
 348 377 314 405 260 405 c 0
 227 405 197 392 173 369 c 0
 138 333 131 288 131 211 c 0
 131 139 140 91 173 59 c 0
 193 38 216 26 251 26 c 0
 297 26 343 53 369 97 c 2
 373 103 l 1
 373 342 l 1
EndSplineSet
EndChar

StartChar: e
Encoding: 101 101 70
Width: 444
GlyphClass: 2
Flags: MW
HStem: -11 41<243 288.5 239.5 292.5> 231 36<127 333 127 408 126 333> 411 37<226 238>
VStem: 28 98<205 216 216 231 192 281> 333 82<267 275 275 275>
LayerCount: 2
Fore
SplineSet
415 245 m 0
 415 235 412 235 408 231 c 1
 126 231 l 1
 126 216 l 2
 126 168 133 129 146 104 c 0
 167 61 209 30 270 30 c 0
 307 30 323 41 342 62 c 0
 356 76 366 94 373 114 c 0
 375 122 377 126 379 128 c 0
 382 131 382 131 395 131 c 0
 409 131 415 129 415 121 c 0
 415 118 414 114 412 108 c 0
 389 45 335 -11 250 -11 c 0
 236 -11 221 -9 206 -6 c 0
 130 9 66 67 40 145 c 0
 32 169 28 192 28 218 c 0
 28 344 113 434 215 447 c 0
 219 448 223 448 229 448 c 0
 353 448 415 370 415 245 c 0
333 275 m 1
 327 346 307 390 259 407 c 0
 251 410 248 410 238 411 c 0
 199 411 173 392 153 363 c 0
 139 341 131 314 127 274 c 1
 127 267 l 1
 333 267 l 1
 333 275 l 1
EndSplineSet
EndChar

StartChar: f
Encoding: 102 102 71
Width: 306
GlyphClass: 2
Flags: MW
HStem: 0 46<26 34 26 42 273 282 273 273> 385 46<33 104 33 104 185 185 185 293> 576 129<284.5 336> 667 38<262 289 284.5 288>
VStem: 104 81<224 225 225 385> 270 102<612 636>
LayerCount: 2
Fore
SplineSet
273 0 m 2xdc
 261 2 170 3 146 3 c 0
 122 3 48 3 34 0 c 2
 26 0 l 1
 26 46 l 1
 42 46 l 2
 62 46 84 48 91 49 c 0
 96 51 101 56 103 60 c 0
 104 62 104 113 104 224 c 2
 104 385 l 1
 33 385 l 1
 33 431 l 1
 104 431 l 1
 104 497 l 1
 105 564 l 1
 107 574 l 1
 128 647 185 694 266 704 c 0
 270 704 280 705 289 705 c 0
 334 702 372 674 372 627 c 0
 372 597 351 576 321 576 c 0xec
 291 576 270 597 270 627 c 0
 270 645 279 656 288 667 c 1
 284 667 l 2
 278 668 270 668 262 667 c 0
 230 661 202 631 189 592 c 0
 183 572 183 570 182 497 c 2
 182 431 l 1
 293 431 l 1
 293 385 l 1
 185 385 l 1
 185 225 l 2
 185 114 185 63 186 61 c 0
 188 57 193 52 198 51 c 0
 206 48 219 47 251 46 c 2
 282 46 l 1
 282 0 l 1
 273 0 l 2xdc
EndSplineSet
EndChar

StartChar: g
Encoding: 103 103 72
Width: 500
GlyphClass: 2
Flags: MW
HStem: -206 39<238 261.5 238 281> 0 73 143 39<203.5 243.5 189.5 254> 360 93<438 445 407.5 459.5> 404 38<201.5 240 191 242.5>
VStem: 29 66<-77.5 -60 -77.5 -59> 52 90<268.5 302 259 310> 67 45<121.5 127> 302 90<282 302> 403 67<-76.5 -62.5> 415 70<411 412>
LayerCount: 2
Fore
SplineSet
329 409 m 1xea80
 352 432 386 453 429 453 c 0
 461 453 485 430 485 396 c 0
 485 375 470 360 449 360 c 0
 427 360 415 372 412 390 c 0
 411 397 412 407 415 411 c 0
 415 413 416 414 416 415 c 2
 416 415 412 414 407 413 c 0
 391 410 376 403 363 393 c 0
 358 390 355 387 355 386 c 2
 355 386 357 384 359 381 c 0
 379 356 392 332 392 292 c 0
 392 256 381 235 365 212 c 0
 338 172 286 143 222 143 c 0
 185 143 152 155 123 171 c 1
 117 160 112 148 112 133 c 0xf1a0
 112 110 123 91 138 81 c 0
 150 73 146 74 227 73 c 0
 300 72 310 72 335 67 c 0
 374 61 410 45 431 26 c 0
 454 3 470 -28 470 -72 c 0
 470 -81 470 -90 468 -96 c 0
 459 -128 434 -155 392 -175 c 0
 352 -196 312 -206 250 -206 c 0
 188 -206 148 -196 107 -175 c 0
 65 -155 40 -128 31 -96 c 0
 29 -90 29 -83 29 -75 c 0xf4c0
 29 -43 41 -23 60 -5 c 0
 71 6 79 12 92 18 c 2
 103 24 l 1
 83 41 67 70 67 108 c 0xf180
 67 146 79 170 96 193 c 1
 72 217 52 245 52 292 c 0
 52 328 63 350 79 373 c 0
 106 414 159 442 223 442 c 0
 257 442 289 433 318 416 c 2
 329 409 l 1xea80
142 292 m 0xea80
 142 226 157 182 222 182 c 0
 265 182 293 207 299 242 c 0
 301 253 302 272 302 292 c 0
 302 312 301 332 299 343 c 0
 292 380 264 404 221 404 c 0
 182 404 152 380 145 343 c 0
 143 332 142 312 142 292 c 0xea80
375 -23 m 0
 343 -1 304 0 247 0 c 2
 218 0 l 2
 152 0 151 0 138 -6 c 0
 111 -18 95 -46 95 -74 c 0
 95 -81 96 -88 98 -94 c 0
 108 -124 150 -153 199 -163 c 0
 217 -167 226 -167 250 -167 c 0
 273 -167 282 -167 300 -163 c 0
 349 -153 391 -124 401 -93 c 0
 403 -88 403 -81 403 -75 c 0xe4c0
 403 -50 392 -34 375 -23 c 0
EndSplineSet
EndChar

StartChar: h
Encoding: 104 104 73
Width: 556
GlyphClass: 2
Flags: MW
HStem: 0 46<25 33 25 41 257 265 257 257 302 310 534 534 534 542> 404 38<292.5 330> 637 46<26 27.5 26 43 25 27.5> 674 20G<181 184 184 184>
VStem: 103 84<141 396> 380 84<163 200>
LayerCount: 2
Fore
SplineSet
188 60 m 0xdc
 195 47 211 46 235 46 c 2
 249 46 l 1
 265 46 l 1
 265 0 l 1
 257 0 l 2
 244 3 168 3 145 3 c 0
 122 3 46 3 33 0 c 2
 25 0 l 1
 25 46 l 1
 41 46 l 1
 55 46 l 2
 79 46 95 47 102 60 c 0
 102 62 103 195 103 329 c 0
 103 463 102 598 102 603 c 0
 98 629 87 635 43 637 c 2
 25 637 l 1
 25 660 l 2
 25 681 25 683 27 683 c 0xec
 28 683 62 686 103 688 c 0
 144 691 179 694 181 694 c 2
 184 694 l 1
 184 367 l 1
 216 406 257 442 328 442 c 0
 411 442 455 405 463 329 c 0
 464 322 464 271 464 190 c 0
 464 103 464 62 465 60 c 0
 467 56 472 51 477 49 c 0
 484 48 506 46 526 46 c 2
 542 46 l 1
 542 0 l 1
 534 0 l 2
 521 3 445 3 422 3 c 0
 399 3 323 3 310 0 c 2
 302 0 l 1
 302 46 l 1
 318 46 l 1
 326 46 l 2
 351 46 379 47 379 62 c 0
 380 64 380 126 380 200 c 0
 379 322 379 334 378 343 c 0
 369 384 352 404 308 404 c 0
 269 404 251 392 229 370 c 0
 205 346 192 318 188 282 c 0
 188 276 187 222 187 168 c 0
 187 114 188 62 188 60 c 0xdc
EndSplineSet
EndChar

StartChar: i
Encoding: 105 105 74
Width: 278
GlyphClass: 2
Flags: MW
HStem: 0 46<26 34 26 42 247 255 247 247> 385 46<31 32.5 31 41 30 32.5> 422 20G<182 185 185 185> 549 120<122 131 113.5 135.5>
VStem: 69 119<595.5 627.5 595.5 628.5> 104 81<156 279>
LayerCount: 2
Fore
SplineSet
131 669 m 0x98
 163 666 188 646 188 609 c 0
 188 582 177 567 161 558 c 0
 151 551 142 549 129 549 c 0
 115 549 106 551 96 558 c 0
 80 567 69 582 69 609 c 0
 69 648 96 669 131 669 c 0x98
247 0 m 2
 236 3 164 3 143 3 c 0
 121 3 46 2 34 0 c 2
 26 0 l 1
 26 46 l 1
 42 46 l 2
 62 46 84 48 91 49 c 0
 96 51 101 56 103 60 c 0
 104 62 104 107 104 205 c 0
 104 353 104 355 100 365 c 0
 93 383 71 385 41 385 c 2
 30 385 l 1
 30 408 l 2
 30 429 30 431 32 431 c 0xd4
 33 431 66 434 106 436 c 0
 146 439 180 442 182 442 c 2
 185 442 l 1
 185 62 l 1xb4
 192 49 194 47 232 46 c 2
 255 46 l 1
 255 0 l 1
 247 0 l 2
EndSplineSet
EndChar

StartChar: j
Encoding: 106 106 75
Width: 306
GlyphClass: 2
Flags: MW
HStem: -205 37<58.5 68 58.5 97> 385 46<53 54.5 53 72 52 54.5> 422 20G<214 218 218 218> 549 120<151 160 142.5 164.5>
VStem: -55 107<-129 -102.5 -129 -101.5> 98 119<595.5 627.5 595.5 628.5> 137 81<184 226>
LayerCount: 2
Fore
SplineSet
160 669 m 0x9c
 192 666 217 646 217 609 c 0
 217 582 206 567 190 558 c 0
 180 551 171 549 158 549 c 0
 144 549 135 551 125 558 c 0
 109 567 98 582 98 609 c 0
 98 648 125 669 160 669 c 0x9c
28 -163 m 1
 40 -165 53 -168 64 -168 c 0
 72 -168 79 -167 85 -165 c 0
 111 -156 130 -123 135 -77 c 0
 137 -65 137 -38 137 141 c 0
 137 311 137 347 136 353 c 0
 130 381 114 384 72 385 c 2
 52 385 l 1
 52 408 l 2
 52 429 52 431 54 431 c 0xda
 55 431 90 434 133 436 c 0
 176 439 212 442 214 442 c 2
 218 442 l 1
 218 184 l 2xba
 217 -103 218 -77 211 -98 c 0
 192 -156 136 -205 58 -205 c 0
 2 -205 -55 -174 -55 -117 c 0
 -55 -86 -33 -64 -2 -64 c 0
 29 -64 52 -87 52 -118 c 0
 52 -140 40 -153 28 -163 c 1
EndSplineSet
EndChar

StartChar: k
Encoding: 107 107 76
Width: 528
GlyphClass: 2
Flags: MW
HStem: 0 46<20 28 20 36 246 254 246 246 299 306 505 511 505 505> 385 46<284 289 284 293 484 489> 637 46<21 22.5 21 38 20 22.5> 674 20G<176 179 179 179>
VStem: 98 81<262 694>
LayerCount: 2
Fore
SplineSet
36 46 m 1xd8
 50 46 l 2
 74 46 90 47 97 60 c 0
 97 62 98 195 98 329 c 0
 98 463 97 598 97 603 c 0
 93 629 82 635 38 637 c 2
 20 637 l 1
 20 660 l 2
 20 681 20 683 22 683 c 0xe8
 23 683 57 686 98 688 c 0
 139 691 174 694 176 694 c 2
 179 694 l 1
 179 463 l 1
 180 233 l 1
 240 287 l 2
 279 322 302 344 304 347 c 0
 308 353 310 359 310 364 c 0
 310 375 301 383 289 385 c 2
 284 385 l 1
 284 431 l 1
 293 431 l 2
 302 429 391 428 412 428 c 0
 425 428 436 429 448 429 c 0
 465 430 482 430 484 431 c 2
 489 431 l 1
 489 385 l 1
 476 385 l 2
 431 382 392 368 360 341 c 0
 346 329 286 275 286 274 c 0
 286 273 411 91 420 79 c 0
 439 54 458 46 500 46 c 2
 511 46 l 1
 511 0 l 1
 505 0 l 2
 493 3 438 3 418 3 c 0
 398 3 316 2 307 0 c 2
 299 0 l 1
 299 46 l 1
 306 46 l 2
 320 47 330 54 330 65 c 0
 330 69 329 74 326 79 c 0
 322 86 229 222 228 222 c 2
 176 176 l 1
 176 120 l 2
 176 82 176 62 177 60 c 0
 179 56 184 51 189 49 c 0
 196 48 218 46 238 46 c 2
 254 46 l 1
 254 0 l 1
 246 0 l 2
 235 3 158 3 137 3 c 0
 115 3 39 3 28 0 c 2
 20 0 l 1
 20 46 l 1
 36 46 l 1xd8
EndSplineSet
EndChar

StartChar: l
Encoding: 108 108 77
Width: 278
GlyphClass: 2
Flags: MW
HStem: 0 46<26 34 26 42 255 263 255 255> 637 46<27 28.5 27 44 26 28.5> 674 20G<182 185 185 185>
VStem: 104 81<269 379 379 396>
LayerCount: 2
Fore
SplineSet
42 46 m 1xb0
 56 46 l 2
 80 46 96 47 103 60 c 0
 103 62 104 195 104 329 c 0
 104 463 103 598 103 603 c 0
 99 629 88 635 44 637 c 2
 26 637 l 1
 26 660 l 2
 26 681 26 683 28 683 c 0xd0
 29 683 63 686 104 688 c 0
 145 691 180 694 182 694 c 2
 185 694 l 1
 185 379 l 2
 185 159 185 62 186 60 c 0
 188 56 193 51 198 49 c 0
 205 48 227 46 247 46 c 2
 263 46 l 1
 263 0 l 1
 255 0 l 2
 243 2 168 3 145 3 c 0
 122 3 47 3 34 0 c 2
 26 0 l 1
 26 46 l 1
 42 46 l 1xb0
EndSplineSet
EndChar

StartChar: m
Encoding: 109 109 78
Width: 833
GlyphClass: 2
Flags: MW
HStem: 0 46<25 33 25 41 257 265 257 257 302 310 534 534 534 542 579 587 811 811 811 819> 385 46<26 27.5 26 43 25 27.5> 404 38<298 330 578.5 607>
VStem: 103 84<167.5 195 141 238.5> 380 84<163 195 141 200> 657 84<163 200>
CounterMasks: 1 1c
LayerCount: 2
Fore
SplineSet
188 60 m 0xbc
 195 47 211 46 235 46 c 2
 249 46 l 1
 265 46 l 1
 265 0 l 1
 257 0 l 2
 244 3 168 3 145 3 c 0
 122 3 46 3 33 0 c 2
 25 0 l 1
 25 46 l 1
 41 46 l 1
 55 46 l 2
 79 46 95 47 102 60 c 0
 102 62 103 132 103 203 c 0
 103 274 102 346 102 351 c 0
 98 377 87 383 43 385 c 2
 25 385 l 1
 25 408 l 2
 25 429 25 431 27 431 c 0xdc
 28 431 61 434 102 436 c 0
 142 439 176 442 178 442 c 2
 181 442 l 1
 181 402 l 2
 181 371 181 364 182 364 c 2
 183 365 l 1
 216 412 260 442 336 442 c 0
 397 440 440 415 455 366 c 1
 457 361 l 1
 465 371 473 383 484 394 c 0
 515 423 554 442 603 442 c 0
 687 442 732 406 740 329 c 0
 741 322 741 271 741 190 c 0
 741 103 741 62 742 60 c 0
 744 56 749 51 754 49 c 0
 761 48 783 46 803 46 c 2
 819 46 l 1
 819 0 l 1
 811 0 l 2
 798 3 722 3 699 3 c 0
 676 3 600 3 587 0 c 2
 579 0 l 1
 579 46 l 1
 595 46 l 1
 603 46 l 2
 628 46 656 47 656 62 c 0
 657 64 657 126 657 200 c 0
 656 322 656 334 655 343 c 0
 646 384 629 404 585 404 c 0
 546 404 528 392 506 370 c 0
 482 346 469 318 465 282 c 0
 465 276 464 222 464 168 c 0
 464 114 465 62 465 60 c 0
 472 47 488 46 512 46 c 2
 526 46 l 1
 542 46 l 1
 542 0 l 1
 534 0 l 2
 521 3 445 3 422 3 c 0
 399 3 323 3 310 0 c 2
 302 0 l 1
 302 46 l 1
 318 46 l 1
 326 46 l 2
 351 46 379 47 379 62 c 0
 380 64 380 126 380 200 c 0
 379 322 379 334 378 343 c 0
 369 384 352 404 308 404 c 0
 269 404 251 392 229 370 c 0
 205 346 192 318 188 282 c 0
 188 276 187 222 187 168 c 0
 187 114 188 62 188 60 c 0xbc
EndSplineSet
EndChar

StartChar: n
Encoding: 110 110 79
Width: 556
GlyphClass: 2
Flags: MW
HStem: 0 46<25 33 25 41 257 265 257 257 302 310 534 534 534 542> 385 46<26 27.5 26 43 25 27.5> 404 38<298 330>
VStem: 103 84<167.5 195 141 238.5> 380 84<163 200>
LayerCount: 2
Fore
SplineSet
188 60 m 0xb8
 195 47 211 46 235 46 c 2
 249 46 l 1
 265 46 l 1
 265 0 l 1
 257 0 l 2
 244 3 168 3 145 3 c 0
 122 3 46 3 33 0 c 2
 25 0 l 1
 25 46 l 1
 41 46 l 1
 55 46 l 2
 79 46 95 47 102 60 c 0
 102 62 103 132 103 203 c 0
 103 274 102 346 102 351 c 0
 98 377 87 383 43 385 c 2
 25 385 l 1
 25 408 l 2
 25 429 25 431 27 431 c 0xd8
 28 431 61 434 102 436 c 0
 142 439 176 442 178 442 c 2
 181 442 l 1
 181 402 l 2
 181 371 181 364 182 364 c 2
 183 365 l 1
 216 412 260 442 336 442 c 0
 414 439 455 402 463 329 c 0
 464 322 464 271 464 190 c 0
 464 103 464 62 465 60 c 0
 467 56 472 51 477 49 c 0
 484 48 506 46 526 46 c 2
 542 46 l 1
 542 0 l 1
 534 0 l 2
 521 3 445 3 422 3 c 0
 399 3 323 3 310 0 c 2
 302 0 l 1
 302 46 l 1
 318 46 l 1
 326 46 l 2
 351 46 379 47 379 62 c 0
 380 64 380 126 380 200 c 0
 379 322 379 334 378 343 c 0
 369 384 352 404 308 404 c 0
 269 404 251 392 229 370 c 0
 205 346 192 318 188 282 c 0
 188 276 187 222 187 168 c 0
 187 114 188 62 188 60 c 0xb8
EndSplineSet
EndChar

StartChar: o
Encoding: 111 111 80
Width: 500
GlyphClass: 2
Flags: MW
HStem: -10 40<238.5 261> 411 37<246 254.5>
VStem: 28 98<194.5 240 194.5 276> 372 99<207 225 225 246.5 207 252.5>
LayerCount: 2
Fore
SplineSet
28 214 m 0
 28 338 120 433 225 446 c 0
 233 447 242 448 250 448 c 0
 305 448 360 425 401 384 c 0
 443 342 471 278 471 215 c 0
 471 199 469 184 466 168 c 0
 450 84 386 17 302 -4 c 0
 283 -9 272 -10 250 -10 c 0
 227 -10 216 -9 197 -4 c 0
 97 21 28 110 28 214 c 0
268 410 m 0
 263 411 257 411 252 411 c 0
 233 411 213 407 195 399 c 0
 155 379 136 347 128 290 c 0
 127 281 126 254 126 226 c 0
 126 163 128 127 145 91 c 0
 164 55 197 30 250 30 c 0
 342 30 372 98 372 193 c 2
 372 225 l 2
 372 280 372 290 367 313 c 0
 355 368 323 398 268 410 c 0
EndSplineSet
EndChar

StartChar: p
Encoding: 112 112 81
Width: 556
GlyphClass: 2
Flags: MW
HStem: -194 46<20 28 20 36 252 260 252 252> -11 37<288 308 267.5 320> 385 46<21 22.5 21 38 20 22.5> 402 39<296.5 307.5>
VStem: 98 84<98 166> 424 98<209 264.5>
LayerCount: 2
Fore
SplineSet
36 -148 m 1xdc
 50 -148 l 2
 74 -148 90 -147 97 -134 c 0
 97 -132 98 -14 98 106 c 0
 98 226 97 346 97 351 c 0
 93 377 82 383 38 385 c 2
 20 385 l 1
 20 408 l 2
 20 429 20 431 22 431 c 0xec
 23 431 57 434 98 436 c 0
 139 439 174 442 176 442 c 2
 179 442 l 1
 179 416 l 1
 180 390 l 1
 188 397 l 1
 224 423 267 441 326 441 c 0
 343 441 348 441 358 439 c 0
 449 421 522 335 522 216 c 0
 522 202 521 189 520 181 c 0
 506 94 452 30 372 -1 c 0
 351 -8 330 -11 310 -11 c 0
 266 -11 224 4 190 33 c 2
 182 40 l 1
 182 -45 l 2
 182 -103 182 -132 183 -134 c 0
 185 -138 190 -143 195 -145 c 0
 202 -146 224 -148 244 -148 c 2
 260 -148 l 1
 260 -194 l 1
 252 -194 l 2
 239 -191 163 -191 140 -191 c 0
 117 -191 41 -191 28 -194 c 2
 20 -194 l 1
 20 -148 l 1
 36 -148 l 1xdc
424 218 m 0
 424 311 377 391 319 401 c 0
 315 401 310 402 305 402 c 0xdc
 244 402 210 372 182 337 c 1
 182 98 l 1
 205 58 241 26 294 26 c 0
 322 26 347 38 370 63 c 0
 405 99 424 157 424 218 c 0
EndSplineSet
EndChar

StartChar: q
Encoding: 113 113 82
Width: 528
GlyphClass: 2
Flags: MW
HStem: -194 46<295 303 295 311 527 535 527 527> -11 38<248.5 256.5 248.5 261.5> 402 39<220.5 263>
VStem: 33 98<218 224 224 224> 373 84<-41 156 49 156>
LayerCount: 2
Fore
SplineSet
373 49 m 1
 336 12 287 -11 236 -11 c 0
 155 -11 95 41 65 93 c 0
 44 130 33 174 33 218 c 2
 33 224 l 1
 39 318 89 387 156 421 c 0
 181 433 205 441 236 441 c 0
 249 441 266 441 273 440 c 0
 315 432 355 407 381 372 c 2
 387 364 l 2
 388 364 395 381 404 403 c 2
 420 442 l 1
 457 442 l 1
 457 156 l 2
 457 -44 457 -132 458 -134 c 0
 460 -138 465 -143 470 -145 c 0
 477 -146 499 -148 519 -148 c 2
 535 -148 l 1
 535 -194 l 1
 527 -194 l 2
 514 -191 438 -191 415 -191 c 0
 392 -191 316 -191 303 -194 c 2
 295 -194 l 1
 295 -148 l 1
 311 -148 l 2
 331 -148 353 -146 360 -145 c 0
 365 -143 370 -138 372 -134 c 0
 373 -132 373 -102 373 -41 c 2
 373 49 l 1
376 300 m 1
 360 348 329 392 278 401 c 0
 273 401 265 402 261 402 c 0
 222 401 187 377 160 333 c 0
 141 301 131 258 131 214 c 0
 131 127 172 45 230 29 c 0
 236 27 244 27 253 27 c 0
 260 27 268 27 274 28 c 0
 318 38 355 71 376 118 c 1
 376 300 l 1
EndSplineSet
EndChar

StartChar: r
Encoding: 114 114 83
Width: 392
GlyphClass: 2
Flags: MW
HStem: 0 46<20 28 20 36 267 276 267 267> 322 119<249 326.5> 385 46<21 22.5 21 38 20 22.5>
VStem: 98 81<167.5 177.5 130.5 238.5>
LayerCount: 2
Fore
SplineSet
36 46 m 1xd0
 50 46 l 2
 74 46 90 47 97 60 c 0
 97 62 98 132 98 203 c 0
 98 274 97 346 97 351 c 0
 93 377 82 383 38 385 c 2
 20 385 l 1
 20 408 l 2
 20 429 20 431 22 431 c 0xb0
 23 431 56 434 96 436 c 0
 135 439 169 442 171 442 c 2
 174 442 l 1
 174 373 l 1
 195 409 221 441 277 441 c 0
 302 441 309 439 325 430 c 0
 345 420 364 401 364 373 c 0
 364 343 340 322 313 322 c 0
 285 322 263 342 263 372 c 0
 263 382 266 393 271 400 c 0
 272 402 273 404 273 405 c 0
 272 406 257 403 250 401 c 0
 242 397 234 393 226 386 c 0
 201 362 184 318 180 260 c 0
 180 250 179 201 179 154 c 0
 179 107 180 63 180 61 c 0
 182 57 187 52 192 51 c 0
 200 48 213 47 245 46 c 2
 276 46 l 1
 276 0 l 1
 267 0 l 2
 255 2 164 3 140 3 c 0
 116 3 42 3 28 0 c 2
 20 0 l 1
 20 46 l 1
 36 46 l 1xd0
EndSplineSet
EndChar

StartChar: s
Encoding: 115 115 84
Width: 394
GlyphClass: 2
Flags: MW
HStem: -10 36<177 227> 414 33<174 198 198 213.5 174 222.5>
VStem: 33 42 33 65<346 361> 295 40<312 347> 295 64<76.5 137.5>
LayerCount: 2
Fore
SplineSet
190 414 m 0xd8
 139 414 98 397 98 349 c 0xd8
 98 343 98 336 100 332 c 0
 113 296 150 288 199 278 c 0
 248 269 257 267 277 256 c 0
 319 236 346 203 358 157 c 0
 359 151 359 142 359 133 c 0
 359 104 354 83 345 64 c 0
 320 16 273 -10 198 -10 c 0
 147 -10 121 4 94 26 c 1
 86 19 l 1
 77 10 l 2
 76 9 71 4 65 -1 c 2
 54 -11 l 1
 46 -11 l 2
 37 -11 37 -9 33 -5 c 1
 33 74 l 2
 33 161 33 158 38 161 c 0
 40 162 46 162 54 162 c 0
 71 162 71 162 75 146 c 0
 81 118 90 96 101 77 c 0
 124 43 156 26 198 26 c 0
 256 26 295 49 295 104 c 0xe4
 295 128 289 139 277 151 c 0
 267 163 251 173 235 178 c 0
 231 179 210 184 187 189 c 0
 141 198 129 201 111 210 c 0
 68 230 41 263 34 303 c 0
 33 307 33 312 33 318 c 0
 33 404 93 439 174 447 c 0
 176 448 187 448 198 447 c 0
 229 447 244 444 268 432 c 2
 283 424 l 1
 292 431 l 2
 300 438 306 443 314 448 c 1
 322 448 l 2
 331 448 331 446 335 442 c 1
 335 310 l 1
 329 304 l 1
 301 304 l 1
 297 308 295 308 295 316 c 0
 295 378 255 414 190 414 c 0xd8
EndSplineSet
EndChar

StartChar: t
Encoding: 116 116 85
Width: 389
GlyphClass: 2
Flags: MW
HStem: -10 39<227 251.5> 385 37<18 27 18 97 18 27> 385 46<181 316 181 316>
VStem: 97 84<248 385 241 385> 141 40<600 615> 293 40<146 181 126.5 181>
LayerCount: 2
Fore
SplineSet
141 600 m 2xcc
 141 615 l 1
 181 615 l 1
 181 431 l 1xac
 316 431 l 1
 316 385 l 1
 181 385 l 1xb4
 181 241 l 2
 182 80 181 89 189 68 c 0
 198 43 216 29 238 29 c 0
 267 29 286 57 292 100 c 0
 293 108 293 121 293 146 c 2
 293 181 l 1
 333 181 l 1
 333 146 l 2
 333 107 332 96 328 80 c 0
 315 32 282 -10 221 -10 c 0
 147 -10 105 34 98 100 c 0
 97 107 97 154 97 248 c 2
 97 385 l 1xd4
 18 385 l 1
 18 422 l 1
 27 422 l 2
 51 424 73 435 90 454 c 0
 120 485 138 538 141 600 c 2xcc
EndSplineSet
EndChar

StartChar: u
Encoding: 117 117 86
Width: 556
GlyphClass: 2
Flags: MW
HStem: -10 36<250.5 262.5> 0 46<541 542> 385 46<26 27.5 26 36 25 27.5 302 303> 422 20G<184 187 187 187 457 464 464 464>
VStem: 103 84 383 81
LayerCount: 2
Fore
SplineSet
105 436 m 0xac
 146 439 182 442 184 442 c 2
 187 442 l 1x1c
 187 261 l 2
 188 103 188 78 189 71 c 0
 192 54 196 47 204 40 c 0
 217 31 237 26 264 26 c 0
 284 26 296 28 311 35 c 0
 348 53 373 94 379 144 c 0
 379 150 380 199 380 248 c 0
 380 297 379 347 379 351 c 0
 375 377 364 383 320 385 c 2
 302 385 l 1
 302 431 l 2xac
 304 431 451 441 457 442 c 2
 464 442 l 1
 464 264 l 2
 464 167 464 84 465 81 c 0
 469 54 480 48 524 46 c 2
 542 46 l 1
 542 0 l 2x5c
 540 0 396 -10 390 -11 c 2
 383 -11 l 1
 383 58 l 1
 363 34 336 6 302 -3 c 0
 283 -10 276 -10 249 -10 c 0
 165 -10 119 19 105 89 c 0
 104 97 104 109 103 226 c 0
 102 366 103 358 96 369 c 0
 89 380 71 385 36 385 c 2
 25 385 l 1
 25 408 l 2
 25 429 25 431 27 431 c 0
 28 431 63 434 105 436 c 0xac
EndSplineSet
EndChar

StartChar: v
Encoding: 118 118 87
Width: 528
GlyphClass: 2
Flags: MW
HStem: 385 46<19 25 19 43 19 25 232 240 331 335 503 508>
LayerCount: 2
Fore
SplineSet
338 431 m 2
 343 429 365 429 386 429 c 2
 422 429 l 2
 456 429 491 430 503 431 c 2
 508 431 l 1
 508 385 l 1
 497 385 l 2
 462 383 435 370 423 345 c 0
 419 338 293 9 288 -2 c 0
 284 -9 279 -11 263 -11 c 0
 248 -11 243 -9 239 -2 c 2
 239 -2 99 359 98 364 c 0
 89 384 80 383 43 385 c 2
 19 385 l 1
 19 431 l 1
 25 431 l 2
 35 428 102 428 122 428 c 0
 143 428 222 429 232 431 c 2
 240 431 l 1
 240 385 l 1
 226 385 l 2
 200 384 186 379 184 370 c 0
 184 367 194 340 235 234 c 2
 286 102 l 1
 377 341 l 1
 377 349 l 2
 377 372 355 385 335 385 c 2
 331 385 l 1
 331 431 l 1
 338 431 l 2
EndSplineSet
EndChar

StartChar: w
Encoding: 119 119 88
Width: 722
GlyphClass: 2
Flags: MW
HStem: 385 46<18 24 18 40 18 24 221 229 258 264 454 461 522 529 698 703>
LayerCount: 2
Fore
SplineSet
452 385 m 2
 432 385 404 383 404 369 c 0
 404 357 495 102 496 100 c 2
 537 219 l 2
 578 338 579 339 579 347 c 0
 579 371 554 383 530 385 c 2
 522 385 l 1
 522 431 l 1
 529 431 l 2
 538 429 606 428 624 428 c 0
 639 428 692 428 698 431 c 2
 703 431 l 1
 703 385 l 1
 697 385 l 2
 694 385 687 384 682 384 c 0
 649 379 630 364 619 334 c 2
 559 161 l 2
 528 72 502 -2 501 -3 c 0
 497 -11 494 -11 479 -11 c 0
 464 -11 459 -10 456 -4 c 0
 454 -3 433 59 407 133 c 2
 361 267 l 1
 327 178 298 86 266 -4 c 0
 262 -10 258 -11 243 -11 c 0
 227 -11 224 -11 220 -3 c 0
 219 -2 90 368 90 368 c 1
 80 384 74 384 40 385 c 2
 18 385 l 1
 18 431 l 1
 24 431 l 2
 35 428 96 428 116 428 c 0
 136 428 211 429 221 431 c 2
 229 431 l 1
 229 385 l 1
 215 385 l 2
 192 384 177 380 177 368 c 0
 177 367 197 309 221 239 c 2
 265 113 l 1
 339 328 l 1
 333 345 l 2
 326 365 324 371 321 375 c 0
 314 382 307 384 278 385 c 2
 258 385 l 1
 258 431 l 1
 264 431 l 2
 274 428 330 428 348 428 c 0
 368 428 445 429 454 431 c 2
 461 431 l 1
 461 385 l 1
 452 385 l 2
EndSplineSet
EndChar

StartChar: x
Encoding: 120 120 89
Width: 528
GlyphClass: 2
Flags: MW
HStem: 0 46<11 17 11 25 201 207 201 201 295 298 298 304 510 510 510 516> 385 46<16 23 16 44 16 23 302 307 493 499>
LayerCount: 2
Fore
SplineSet
201 0 m 2
 191 2 121 3 102 3 c 0
 83 3 28 3 17 0 c 2
 11 0 l 1
 11 46 l 1
 25 46 l 2
 71 49 106 61 129 84 c 0
 132 87 155 117 180 150 c 2
 226 210 l 1
 168 288 l 2
 136 332 109 369 107 371 c 0
 102 376 91 381 80 383 c 0
 75 383 59 384 44 385 c 2
 16 385 l 1
 16 431 l 1
 23 431 l 2
 41 430 85 429 126 429 c 2
 170 429 l 2
 196 429 223 429 229 431 c 2
 237 431 l 1
 237 385 l 1
 221 383 201 379 201 369 c 0
 201 365 261 281 272 270 c 1
 297 304 l 2
 311 322 324 339 325 342 c 0
 328 347 329 353 329 358 c 0
 329 367 325 376 317 381 c 0
 314 383 309 384 307 385 c 2
 302 385 l 1
 302 431 l 1
 309 431 l 2
 318 429 389 428 408 428 c 0
 426 428 484 428 493 431 c 2
 499 431 l 1
 499 385 l 1
 492 385 l 2
 465 385 430 378 411 368 c 0
 390 358 381 348 350 308 c 0
 338 291 320 268 312 257 c 2
 296 236 l 1
 358 151 l 2
 392 105 422 64 425 61 c 0
 440 46 463 46 499 46 c 2
 516 46 l 1
 516 0 l 1
 510 0 l 2
 500 3 434 3 414 3 c 0
 392 3 316 2 304 0 c 2
 295 0 l 1
 295 46 l 1
 298 46 l 2
 313 46 331 55 331 63 c 0
 331 64 318 83 291 120 c 2
 250 175 l 2
 248 174 188 93 185 88 c 0
 182 83 181 78 181 73 c 0
 181 59 192 46 206 46 c 0
 208 46 208 45 208 23 c 2
 208 0 l 1
 201 0 l 2
EndSplineSet
EndChar

StartChar: y
Encoding: 121 121 90
Width: 528
GlyphClass: 2
Flags: MW
HStem: -204 36<107.5 115.5 107.5 117> 385 46<19 26 19 34 19 26 19 43 233 241 331 334 503 508>
VStem: 19 99<-125.5 -102 -125.5 -100>
LayerCount: 2
Fore
SplineSet
69 -66 m 0
 97 -66 118 -88 118 -116 c 0
 118 -135 106 -155 91 -160 c 0
 87 -162 87 -162 91 -164 c 0
 96 -167 104 -168 111 -168 c 0
 120 -168 131 -166 140 -162 c 0
 184 -145 204 -99 225 -43 c 2
 242 0 l 1
 170 183 l 2
 130 283 97 368 95 370 c 0
 88 384 67 385 43 385 c 2
 34 385 l 1
 19 385 l 1
 19 431 l 1
 26 431 l 2
 37 428 101 428 122 428 c 0
 144 428 222 429 233 431 c 2
 241 431 l 1
 241 385 l 1
 232 385 l 2
 214 385 185 382 185 368 c 0
 185 337 286 112 286 112 c 2
 286 113 307 165 332 227 c 2
 376 341 l 1
 376 350 l 2
 376 373 356 385 334 385 c 2
 331 385 l 1
 331 431 l 1
 337 431 l 2
 346 429 401 429 422 429 c 0
 456 429 490 430 503 431 c 2
 508 431 l 1
 508 385 l 1
 497 385 l 2
 460 382 435 369 422 345 c 0
 415 338 261 -80 227 -131 c 0
 201 -171 170 -195 134 -203 c 0
 129 -204 121 -204 113 -204 c 0
 59 -204 19 -168 19 -116 c 0
 19 -84 42 -66 69 -66 c 0
EndSplineSet
EndChar

StartChar: z
Encoding: 122 122 91
Width: 444
GlyphClass: 2
Flags: MW
HStem: 0 41 394 37<236 294 236 236>
VStem: 42 40<255 263 263 263> 361 40<201 201.5>
LayerCount: 2
Fore
SplineSet
42 263 m 2
 43 268 51 417 53 423 c 2
 53 431 l 1
 393 431 l 1
 397 427 399 426 399 415 c 0
 399 408 399 403 398 402 c 0
 397 401 338 319 265 220 c 2
 134 41 l 1
 182 40 l 2
 231 40 252 41 268 43 c 0
 296 48 318 60 331 77 c 0
 346 97 354 127 359 185 c 2
 361 201 l 2
 361 202 370 202 381 202 c 2
 401 202 l 1
 401 196 l 2
 400 193 385 8 384 6 c 2
 384 0 l 1
 209 0 l 1
 34 1 l 1
 31 3 l 2
 29 6 28 7 28 17 c 0
 28 25 28 30 29 31 c 0
 32 34 292 391 294 394 c 2
 236 394 l 2
 176 393 169 393 152 388 c 0
 134 384 123 378 113 367 c 0
 94 349 87 323 82 264 c 1
 82 255 l 1
 42 255 l 1
 42 263 l 2
EndSplineSet
EndChar

StartChar: braceleft
Encoding: 123 123 92
Width: 500
GlyphClass: 2
Flags: MW
HStem: -250 37<363 421.5 415 421.5 415 428> 231 38<74.5 110.5> 713 37<415 421.5>
VStem: 209 82<0 0> 212 222
CounterMasks: 1 e0
LayerCount: 2
Fore
SplineSet
434 -231 m 0xe8
 434 -247 434 -244 428 -250 c 1
 410 -250 l 2
 316 -250 231 -221 212 -145 c 0xe8
 210 -138 210 -136 209 0 c 0
 208 149 209 139 203 155 c 0
 188 195 139 231 82 231 c 0
 67 231 65 233 65 250 c 0
 65 267 67 269 82 269 c 0
 139 269 188 305 203 345 c 0
 209 361 208 351 209 501 c 0xf0
 210 636 210 638 212 645 c 0
 218 668 226 682 244 698 c 0
 262 716 290 730 324 740 c 0
 338 743 362 748 377 749 c 0
 383 749 397 750 408 750 c 2
 428 750 l 1
 433 745 434 747 434 732 c 0xe8
 434 719 434 719 431 716 c 0
 429 713 428 713 415 713 c 0
 377 711 346 700 322 681 c 0
 310 672 300 659 296 647 c 0
 291 634 291 636 291 499 c 0
 291 413 291 369 290 363 c 0
 283 307 235 271 184 255 c 2
 170 250 l 1
 184 245 l 2
 235 229 283 194 290 137 c 0
 291 131 291 87 291 1 c 0xf0
 291 -136 291 -134 296 -147 c 0
 310 -185 362 -211 415 -213 c 0
 428 -213 429 -213 431 -216 c 0
 434 -219 434 -219 434 -231 c 0xe8
EndSplineSet
EndChar

StartChar: bar
Encoding: 124 124 93
Width: 278
GlyphClass: 2
Flags: MW
VStem: 119 40<-235 251 251 251>
LayerCount: 2
Fore
SplineSet
139 -249 m 0
 128 -249 123 -243 119 -235 c 1
 119 251 l 1
 120 737 l 2
 124 742 129 750 139 750 c 0
 149 750 155 743 159 735 c 1
 159 -235 l 1
 155 -243 150 -249 139 -249 c 0
EndSplineSet
EndChar

StartChar: braceright
Encoding: 125 125 94
Width: 500
GlyphClass: 2
Flags: MW
HStem: -250 37<72.5 78 78 89> 231 38<391 424.5> 713 37<79 88 88 110.5>
VStem: 207 84
CounterMasks: 1 e0
LayerCount: 2
Fore
SplineSet
65 731 m 0
 65 749 66 750 79 750 c 2
 88 750 l 2
 192 750 269 715 288 645 c 0
 293 629 290 377 293 357 c 0
 306 310 357 269 417 269 c 0
 432 269 434 267 434 250 c 0
 434 233 432 231 417 231 c 0
 365 231 313 197 298 157 c 0
 291 139 292 151 291 0 c 0
 290 -136 290 -138 288 -145 c 0
 282 -168 274 -182 256 -198 c 0
 223 -230 163 -250 89 -250 c 2
 78 -250 l 2
 67 -250 65 -248 65 -230 c 0
 65 -216 66 -213 77 -213 c 0
 144 -213 194 -181 207 -139 c 0
 208 -134 208 -124 209 3 c 2
 210 139 l 1
 224 199 271 234 330 250 c 1
 315 255 295 262 280 270 c 0
 248 289 222 314 212 352 c 2
 210 362 l 1
 209 498 l 2
 208 624 208 634 207 640 c 0
 194 681 144 713 77 713 c 0
 66 713 65 716 65 731 c 0
EndSplineSet
EndChar

StartChar: asciitilde
Encoding: 126 126 95
Width: 500
GlyphClass: 2
Flags: MW
HStem: 215 67<311 318.5> 251 67<177.5 188>
LayerCount: 2
Fore
SplineSet
142 304 m 0x80
 156 313 168 318 187 318 c 0x40
 213 318 228 310 253 300 c 0
 289 285 302 282 320 282 c 0x80
 343 282 363 291 381 311 c 2
 388 318 l 1x40
 402 306 l 2
 409 300 416 295 416 295 c 2
 416 294 407 283 396 270 c 0
 368 237 361 230 344 222 c 0
 334 217 324 215 313 215 c 0x80
 288 215 271 223 247 233 c 0
 210 248 197 251 179 251 c 0x40
 156 251 136 242 118 222 c 2
 111 215 l 1
 97 227 l 2
 90 233 83 238 83 238 c 2
 83 240 129 294 142 304 c 0x80
EndSplineSet
EndChar

StartChar: dieresis
Encoding: 168 168 97
Width: 500
GlyphClass: 2
Flags: MW
HStem: 554 115<152 169 344 361.5>
VStem: 95 115<601 626> 289 115<596 625>
LayerCount: 2
Fore
SplineSet
95 612 m 0
 95 640 119 669 153 669 c 0
 186 669 210 641 210 612 c 0
 210 582 186 554 152 554 c 1
 127 560 l 1
 108 570 95 590 95 612 c 0
289 611 m 0
 289 639 311 663 335 668 c 0
 337 668 342 669 346 669 c 0
 377 669 404 643 404 612 c 0
 404 580 377 554 346 554 c 0
 318 554 289 577 289 611 c 0
EndSplineSet
EndChar

StartChar: logicalnot
Encoding: 172 172 98
Width: 667
GlyphClass: 2
Flags: MW
HStem: 316 40<70 571 70 596>
VStem: 571 40<209 316 316 316>
LayerCount: 2
Fore
SplineSet
56 336 m 0
 56 347 62 352 70 356 c 1
 596 356 l 2
 603 353 607 348 611 343 c 1
 611 102 l 1
 605 96 600 89 591 89 c 0
 582 89 577 95 572 102 c 1
 571 209 l 1
 571 316 l 1
 70 316 l 1
 62 320 56 325 56 336 c 0
EndSplineSet
EndChar

StartChar: macron
Encoding: 175 175 99
Width: 500
GlyphClass: 2
Flags: MW
HStem: 544 46<69 430 69 430>
LayerCount: 2
Fore
SplineSet
69 544 m 1
 69 590 l 1
 430 590 l 1
 430 544 l 1
 69 544 l 1
EndSplineSet
EndChar

StartChar: degree
Encoding: 176 176 100
Width: 500
GlyphClass: 2
Flags: MW
HStem: 542 37<233.5 273> 679 36<219.5 236>
VStem: 147 40<624.5 631.5> 313 39<622 635.5 622 642>
LayerCount: 2
Fore
SplineSet
148 647 m 0
 158 684 195 715 244 715 c 0
 296 715 330 694 346 660 c 0
 351 649 352 642 352 629 c 0
 352 615 351 608 346 597 c 0
 331 565 297 542 249 542 c 0
 195 542 158 572 148 610 c 0
 147 614 147 621 147 628 c 0
 147 635 147 643 148 647 c 0
250 579 m 0
 297 579 313 586 313 628 c 0
 313 656 304 671 282 677 c 0
 277 678 269 678 253 678 c 0
 244 678 238 679 234 679 c 0
 201 679 187 665 187 629 c 0
 187 608 189 598 198 590 c 0
 209 580 217 579 250 579 c 0
EndSplineSet
EndChar

StartChar: plusminus
Encoding: 177 177 101
Width: 778
GlyphClass: 2
Flags: MW
HStem: 0 40<70 369 409 707 70 369> 313 40<70 369 70 369 409 707>
VStem: 369 40<40 313 40 313 353 500>
LayerCount: 2
Fore
SplineSet
56 333 m 0
 56 344 62 349 70 353 c 1
 369 353 l 1
 369 502 l 2
 369 647 369 651 371 655 c 0
 374 660 380 666 388 666 c 0
 393 666 399 663 403 660 c 0
 409 653 409 660 409 500 c 2
 409 353 l 1
 707 353 l 1
 715 349 722 344 722 333 c 0
 722 322 715 317 707 313 c 1
 409 313 l 1
 409 40 l 1
 707 40 l 1
 715 36 722 31 722 20 c 0
 722 9 715 4 707 0 c 1
 70 0 l 1
 62 4 56 9 56 20 c 0
 56 31 62 36 70 40 c 1
 369 40 l 1
 369 313 l 1
 70 313 l 1
 62 317 56 322 56 333 c 0
EndSplineSet
EndChar

StartChar: acute
Encoding: 180 180 102
Width: 500
GlyphClass: 2
Flags: MW
HStem: 505 194<232 359.5>
VStem: 204 189
LayerCount: 2
Fore
SplineSet
349 699 m 0
 370 699 393 679 393 656 c 0
 393 646 388 635 379 626 c 0
 377 623 342 595 303 563 c 2
 232 505 l 1
 217 519 l 2
 209 527 203 533 204 533 c 0
 205 535 304 665 313 678 c 0
 324 691 331 699 349 699 c 0
EndSplineSet
EndChar

StartChar: multiply
Encoding: 215 215 103
Width: 778
GlyphClass: 2
Flags: W
LayerCount: 2
Fore
SplineSet
630 29 m 0
 630 18 621 9 609 9 c 0
 602 9 593 18 493 118 c 2
 389 222 l 1
 284 117 l 2
 209 43 177 12 175 11 c 0
 172 10 170 9 167 9 c 0
 156 9 147 19 147 29 c 0
 147 32 148 34 149 37 c 0
 151 41 174 65 255 146 c 2
 359 250 l 1
 255 354 l 2
 174 435 151 459 149 463 c 0
 148 466 147 468 147 471 c 0
 147 481 156 491 167 491 c 0
 170 491 172 490 175 489 c 0
 177 488 209 457 284 383 c 2
 389 278 l 1
 493 382 l 2
 593 482 602 491 609 491 c 0
 621 491 630 482 630 471 c 0
 630 468 629 465 628 463 c 0
 627 461 596 429 522 355 c 2
 418 250 l 1
 522 145 l 2
 596 71 627 39 628 37 c 0
 629 35 630 32 630 29 c 0
EndSplineSet
EndChar

StartChar: divide
Encoding: 247 247 104
Width: 778
GlyphClass: 2
Flags: MW
HStem: -36 141<369 405 366 409> 230 40<70 706 70 706> 396 141<369 405 366 409>
VStem: 318 140<27.5 40.5 13 54.5 459.5 472.5>
LayerCount: 2
Fore
SplineSet
318 466 m 0
 318 507 346 537 386 537 c 0
 424 537 445 516 455 488 c 0
 458 480 458 479 458 466 c 0
 458 424 430 396 388 396 c 0
 350 396 331 417 321 444 c 0
 318 452 318 453 318 466 c 0
56 250 m 0
 56 261 62 266 70 270 c 1
 706 270 l 1
 714 266 721 261 721 250 c 0
 721 239 714 234 706 230 c 1
 70 230 l 1
 62 234 56 239 56 250 c 0
318 34 m 0
 318 75 346 105 386 105 c 0
 424 105 445 84 455 56 c 0
 458 48 458 47 458 34 c 0
 458 -8 430 -36 388 -36 c 0
 350 -36 331 -15 321 12 c 0
 318 20 318 21 318 34 c 0
EndSplineSet
EndChar

StartChar: dotlessi
Encoding: 305 305 105
Width: 278
GlyphClass: 2
Flags: MW
HStem: 0 46<26 34 26 42 247 255 247 247> 385 46<31 32.5 31 41 30 32.5> 422 20G<182 185 185 185>
VStem: 104 81<156 279>
LayerCount: 2
Fore
SplineSet
247 0 m 2xb0
 236 3 164 3 143 3 c 0
 121 3 46 2 34 0 c 2
 26 0 l 1
 26 46 l 1
 42 46 l 2
 62 46 84 48 91 49 c 0
 96 51 101 56 103 60 c 0
 104 62 104 107 104 205 c 0
 104 353 104 355 100 365 c 0
 93 383 71 385 41 385 c 2
 30 385 l 1
 30 408 l 2
 30 429 30 431 32 431 c 0xd0
 33 431 66 434 106 436 c 0
 146 439 180 442 182 442 c 2
 185 442 l 1
 185 62 l 1
 192 49 194 47 232 46 c 2
 255 46 l 1
 255 0 l 1
 247 0 l 2xb0
EndSplineSet
EndChar

StartChar: uni0237
Encoding: 567 567 106
Width: 306
GlyphClass: 2
Flags: MW
HStem: -205 37<58.5 68 58.5 97> 385 46<53 54.5 53 72 52 54.5> 422 20G<214 218 218 218>
VStem: -55 107<-129 -102.5 -129 -101.5> 137 81<184 226>
LayerCount: 2
Fore
SplineSet
28 -163 m 1xb8
 40 -165 53 -168 64 -168 c 0
 72 -168 79 -167 85 -165 c 0
 111 -156 130 -123 135 -77 c 0
 137 -65 137 -38 137 141 c 0
 137 311 137 347 136 353 c 0
 130 381 114 384 72 385 c 2
 52 385 l 1
 52 408 l 2
 52 429 52 431 54 431 c 0xd8
 55 431 90 434 133 436 c 0
 176 439 212 442 214 442 c 2
 218 442 l 1
 218 184 l 2
 217 -103 218 -77 211 -98 c 0
 192 -156 136 -205 58 -205 c 0
 2 -205 -55 -174 -55 -117 c 0
 -55 -86 -33 -64 -2 -64 c 0
 29 -64 52 -87 52 -118 c 0
 52 -140 40 -153 28 -163 c 1xb8
EndSplineSet
EndChar

StartChar: circumflex
Encoding: 710 710 107
Width: 500
GlyphClass: 2
Flags: MW
HStem: 531 163<249 361>
VStem: 112 275<560 560.5>
LayerCount: 2
Fore
SplineSet
112 560 m 1
 249 694 l 1
 257 686 l 2
 317 629 387 561 387 560 c 2
 361 531 l 1
 355 535 335 553 303 581 c 2
 250 627 l 1
 195 580 l 2
 166 554 141 533 140 532 c 0
 139 531 136 533 125 546 c 2
 112 560 l 1
EndSplineSet
EndChar

StartChar: caron
Encoding: 711 711 108
Width: 500
GlyphClass: 2
Flags: MW
HStem: 513 131<136 249.5>
VStem: 114 271<611 611>
LayerCount: 2
Fore
SplineSet
114 611 m 1
 127 630 l 2
 131 638 136 644 136 644 c 2
 137 644 162 630 193 612 c 0
 223 595 249 581 250 581 c 2
 306 612 l 2
 337 630 362 644 363 644 c 2
 385 611 l 1
 318 562 l 2
 280 535 250 513 249 513 c 2
 114 611 l 1
EndSplineSet
EndChar

StartChar: uni02C9
Encoding: 713 713 109
Width: 500
GlyphClass: 2
Flags: MW
HStem: 544 46<69 430 69 430>
LayerCount: 2
Fore
SplineSet
69 544 m 1
 69 590 l 1
 430 590 l 1
 430 544 l 1
 69 544 l 1
EndSplineSet
EndChar

StartChar: uni02CA
Encoding: 714 714 110
Width: 500
GlyphClass: 2
Flags: MW
HStem: 505 194<232 359.5>
VStem: 204 189
LayerCount: 2
Fore
SplineSet
349 699 m 0
 370 699 393 679 393 656 c 0
 393 646 388 635 379 626 c 0
 377 623 342 595 303 563 c 2
 232 505 l 1
 217 519 l 2
 209 527 203 533 204 533 c 0
 205 535 304 665 313 678 c 0
 324 691 331 699 349 699 c 0
EndSplineSet
EndChar

StartChar: uni02CB
Encoding: 715 715 111
Width: 500
GlyphClass: 2
Flags: MW
HStem: 505 194<138.5 267>
VStem: 106 189<532.5 666.5>
LayerCount: 2
Fore
SplineSet
106 655 m 0
 106 678 127 699 150 699 c 0
 160 699 172 693 177 688 c 0
 179 686 295 538 295 533 c 0
 295 532 289 526 282 519 c 2
 267 505 l 1
 196 563 l 2
 157 595 122 623 120 626 c 0
 111 635 106 645 106 655 c 0
EndSplineSet
EndChar

StartChar: breve
Encoding: 728 728 112
Width: 500
GlyphClass: 2
Flags: MW
HStem: 515 52<239.5 260> 674 20G<92 129 129 129 370 407 407 407>
VStem: 92 37<688 689 689 694 688 694> 370 37<689 694 683 694>
LayerCount: 2
Fore
SplineSet
130 675 m 0
 140 616 184 567 248 567 c 0
 293 567 335 592 356 636 c 0
 364 653 370 674 370 689 c 2
 370 694 l 1
 407 694 l 1
 407 683 l 1
 402 607 359 544 297 522 c 0
 280 516 270 515 250 515 c 0
 229 515 219 516 202 522 c 0
 140 544 97 607 92 683 c 1
 92 694 l 1
 129 694 l 1
 129 689 l 2
 129 687 130 680 130 675 c 0
EndSplineSet
EndChar

StartChar: dotaccent
Encoding: 729 729 113
Width: 500
GlyphClass: 2
Flags: MW
HStem: 549 120<243 252 234.5 256.5>
VStem: 190 119<595.5 627.5 595.5 628.5>
LayerCount: 2
Fore
SplineSet
252 669 m 0
 284 666 309 646 309 609 c 0
 309 582 298 567 282 558 c 0
 272 551 263 549 250 549 c 0
 236 549 227 551 217 558 c 0
 201 567 190 582 190 609 c 0
 190 648 217 669 252 669 c 0
EndSplineSet
EndChar

StartChar: ring
Encoding: 730 730 114
Width: 500
GlyphClass: 2
Flags: MW
HStem: 542 37<233.5 273> 679 36<219.5 236>
VStem: 147 40<624.5 631.5> 313 39<622 635.5 622 642>
LayerCount: 2
Fore
SplineSet
148 647 m 0
 158 684 195 715 244 715 c 0
 296 715 330 694 346 660 c 0
 351 649 352 642 352 629 c 0
 352 615 351 608 346 597 c 0
 331 565 297 542 249 542 c 0
 195 542 158 572 148 610 c 0
 147 614 147 621 147 628 c 0
 147 635 147 643 148 647 c 0
250 579 m 0
 297 579 313 586 313 628 c 0
 313 656 304 671 282 677 c 0
 277 678 269 678 253 678 c 0
 244 678 238 679 234 679 c 0
 201 679 187 665 187 629 c 0
 187 608 189 598 198 590 c 0
 209 580 217 579 250 579 c 0
EndSplineSet
EndChar

StartChar: tilde
Encoding: 732 732 115
Width: 500
GlyphClass: 2
Flags: MW
HStem: 565 67<311 318.5> 601 67<177.5 188>
LayerCount: 2
Fore
SplineSet
142 654 m 0x80
 156 663 168 668 187 668 c 0x40
 213 668 228 660 253 650 c 0
 289 635 302 632 320 632 c 0x80
 343 632 363 641 381 661 c 2
 388 668 l 1x40
 402 656 l 2
 409 650 416 645 416 645 c 2
 416 644 407 633 396 620 c 0
 368 587 361 580 344 572 c 0
 334 567 324 565 313 565 c 0x80
 288 565 271 573 247 583 c 0
 210 598 197 601 179 601 c 0x40
 156 601 136 592 118 572 c 2
 111 565 l 1
 97 577 l 2
 90 583 83 588 83 588 c 2
 83 590 129 644 142 654 c 0x80
EndSplineSet
EndChar

StartChar: gravecomb
Encoding: 768 768 116
Width: 0
GlyphClass: 2
Flags: MW
HStem: 505 194<-361.5 -233>
VStem: -394 189<532.5 666.5>
LayerCount: 2
Fore
SplineSet
-394 655 m 0
 -394 678 -373 699 -350 699 c 0
 -340 699 -328 693 -323 688 c 0
 -321 686 -205 538 -205 533 c 0
 -205 532 -211 526 -218 519 c 2
 -233 505 l 1
 -304 563 l 2
 -343 595 -378 623 -380 626 c 0
 -389 635 -394 645 -394 655 c 0
EndSplineSet
EndChar

StartChar: acutecomb
Encoding: 769 769 117
Width: 0
GlyphClass: 2
Flags: MW
HStem: 505 194<-268 -140.5>
VStem: -296 189
LayerCount: 2
Fore
SplineSet
-151 699 m 0
 -130 699 -107 679 -107 656 c 0
 -107 646 -112 635 -121 626 c 0
 -123 623 -158 595 -197 563 c 2
 -268 505 l 1
 -283 519 l 2
 -291 527 -297 533 -296 533 c 0
 -295 535 -196 665 -187 678 c 0
 -176 691 -169 699 -151 699 c 0
EndSplineSet
EndChar

StartChar: uni0302
Encoding: 770 770 118
Width: 0
GlyphClass: 2
Flags: MW
HStem: 531 163<-251 -139>
VStem: -388 275<560 560.5>
LayerCount: 2
Fore
SplineSet
-388 560 m 1
 -251 694 l 1
 -243 686 l 2
 -183 629 -113 561 -113 560 c 2
 -139 531 l 1
 -145 535 -165 553 -197 581 c 2
 -250 627 l 1
 -305 580 l 2
 -334 554 -359 533 -360 532 c 0
 -361 531 -364 533 -375 546 c 2
 -388 560 l 1
EndSplineSet
EndChar

StartChar: tildecomb
Encoding: 771 771 119
Width: 0
GlyphClass: 2
Flags: MW
HStem: 565 67<-189 -181.5> 601 67<-322.5 -312>
LayerCount: 2
Fore
SplineSet
-358 654 m 0x80
 -344 663 -332 668 -313 668 c 0x40
 -287 668 -272 660 -247 650 c 0
 -211 635 -198 632 -180 632 c 0x80
 -157 632 -137 641 -119 661 c 2
 -112 668 l 1x40
 -98 656 l 2
 -91 650 -84 645 -84 645 c 2
 -84 644 -93 633 -104 620 c 0
 -132 587 -139 580 -156 572 c 0
 -166 567 -176 565 -187 565 c 0x80
 -212 565 -229 573 -253 583 c 0
 -290 598 -303 601 -321 601 c 0x40
 -344 601 -364 592 -382 572 c 2
 -389 565 l 1
 -403 577 l 2
 -410 583 -417 588 -417 588 c 2
 -417 590 -371 644 -358 654 c 0x80
EndSplineSet
EndChar

StartChar: uni0304
Encoding: 772 772 120
Width: 0
GlyphClass: 2
Flags: MW
HStem: 544 46<-431 -70 -431 -70>
LayerCount: 2
Fore
SplineSet
-431 544 m 1
 -431 590 l 1
 -70 590 l 1
 -70 544 l 1
 -431 544 l 1
EndSplineSet
EndChar

StartChar: uni0306
Encoding: 774 774 121
Width: 0
GlyphClass: 2
Flags: MW
HStem: 515 52<-260.5 -240> 674 20G<-408 -371 -371 -371 -130 -93 -93 -93>
VStem: -408 37<688 689 689 694 688 694> -130 37<689 694 683 694>
LayerCount: 2
Fore
SplineSet
-370 675 m 0
 -360 616 -316 567 -252 567 c 0
 -207 567 -165 592 -144 636 c 0
 -136 653 -130 674 -130 689 c 2
 -130 694 l 1
 -93 694 l 1
 -93 683 l 1
 -98 607 -141 544 -203 522 c 0
 -220 516 -230 515 -250 515 c 0
 -271 515 -281 516 -298 522 c 0
 -360 544 -403 607 -408 683 c 1
 -408 694 l 1
 -371 694 l 1
 -371 689 l 2
 -371 687 -370 680 -370 675 c 0
EndSplineSet
EndChar

StartChar: uni0307
Encoding: 775 775 122
Width: 0
GlyphClass: 2
Flags: MW
HStem: 549 120<-257 -248 -265.5 -243.5>
VStem: -310 119<595.5 627.5 595.5 628.5>
LayerCount: 2
Fore
SplineSet
-248 669 m 0
 -216 666 -191 646 -191 609 c 0
 -191 582 -202 567 -218 558 c 0
 -228 551 -237 549 -250 549 c 0
 -264 549 -273 551 -283 558 c 0
 -299 567 -310 582 -310 609 c 0
 -310 648 -283 669 -248 669 c 0
EndSplineSet
EndChar

StartChar: uni0308
Encoding: 776 776 123
Width: 0
GlyphClass: 2
Flags: MW
HStem: 554 115<-348 -331 -156 -138.5>
VStem: -405 115<601 626> -211 115<596 625>
LayerCount: 2
Fore
SplineSet
-405 612 m 0
 -405 640 -381 669 -347 669 c 0
 -314 669 -290 641 -290 612 c 0
 -290 582 -314 554 -348 554 c 1
 -373 560 l 1
 -392 570 -405 590 -405 612 c 0
-211 611 m 0
 -211 639 -189 663 -165 668 c 0
 -163 668 -158 669 -154 669 c 0
 -123 669 -96 643 -96 612 c 0
 -96 580 -123 554 -154 554 c 0
 -182 554 -211 577 -211 611 c 0
EndSplineSet
EndChar

StartChar: uni030A
Encoding: 778 778 124
Width: 0
GlyphClass: 2
Flags: MW
HStem: 542 37<-266.5 -227> 679 36<-280.5 -264>
VStem: -353 40<624.5 631.5> -187 39<622 635.5 622 642>
LayerCount: 2
Fore
SplineSet
-352 647 m 0
 -342 684 -305 715 -256 715 c 0
 -204 715 -170 694 -154 660 c 0
 -149 649 -148 642 -148 629 c 0
 -148 615 -149 608 -154 597 c 0
 -169 565 -203 542 -251 542 c 0
 -305 542 -342 572 -352 610 c 0
 -353 614 -353 621 -353 628 c 0
 -353 635 -353 643 -352 647 c 0
-250 579 m 0
 -203 579 -187 586 -187 628 c 0
 -187 656 -196 671 -218 677 c 0
 -223 678 -231 678 -247 678 c 0
 -256 678 -262 679 -266 679 c 0
 -299 679 -313 665 -313 629 c 0
 -313 608 -311 598 -302 590 c 0
 -291 580 -283 579 -250 579 c 0
EndSplineSet
EndChar

StartChar: uni030B
Encoding: 779 779 125
Width: 0
GlyphClass: 2
Flags: MW
HStem: 510 191<-344 -280 -300.5 -177.5>
VStem: -378 298<527.5 669.5>
LayerCount: 2
Fore
SplineSet
-292 701 m 0
 -268 701 -246 681 -246 658 c 0
 -246 652 -247 647 -250 641 c 0
 -253 635 -343 510 -344 510 c 2
 -344 510 -378 527 -378 528 c 0
 -378 531 -333 662 -327 676 c 0
 -321 690 -309 701 -292 701 c 0
-126 701 m 0
 -102 701 -80 681 -80 658 c 0
 -80 652 -81 647 -84 641 c 0
 -87 635 -177 510 -178 510 c 2
 -178 510 -212 527 -212 528 c 0
 -212 531 -167 662 -161 676 c 0
 -155 690 -143 701 -126 701 c 0
EndSplineSet
EndChar

StartChar: uni030C
Encoding: 780 780 126
Width: 0
GlyphClass: 2
Flags: MW
HStem: 513 131<-364 -250.5>
VStem: -386 271<611 611>
LayerCount: 2
Fore
SplineSet
-386 611 m 1
 -373 630 l 2
 -369 638 -364 644 -364 644 c 2
 -363 644 -338 630 -307 612 c 0
 -277 595 -251 581 -250 581 c 2
 -194 612 l 2
 -163 630 -138 644 -137 644 c 2
 -115 611 l 1
 -182 562 l 2
 -220 535 -250 513 -251 513 c 2
 -386 611 l 1
EndSplineSet
EndChar

StartChar: uni0338
Encoding: 824 824 127
Width: 0
GlyphClass: 2
Flags: MW
HStem: 696 20G<-163.5 -154.5>
LayerCount: 2
Fore
SplineSet
-619 -215 m 0
 -630 -215 -639 -209 -639 -197 c 0
 -639 -193 -638 -189 -634 -183 c 0
 -624 -163 -179 704 -176 707 c 0
 -174 712 -167 716 -160 716 c 0
 -149 716 -140 706 -140 696 c 0
 -140 689 -602 -209 -608 -212 c 0
 -612 -215 -613 -215 -619 -215 c 0
EndSplineSet
EndChar

StartChar: Gamma
Encoding: 915 915 128
Width: 625
GlyphClass: 2
Flags: MW
HStem: 0 46<25 36 25 58 348 360 348 348> 440 21G<542 582 542 542> 634 46<25 58 25 554 314 408>
VStem: 128 105<61 619> 542 40<440 444 440 444>
LayerCount: 2
Fore
SplineSet
128 619 m 1
 116 631 115 633 58 634 c 2
 25 634 l 1
 25 680 l 1
 554 680 l 1
 554 676 l 2
 554 675 582 445 582 444 c 2
 582 440 l 1
 542 440 l 1
 542 444 l 2
 541 447 540 458 538 469 c 0
 520 608 482 634 334 634 c 0
 294 634 249 633 245 632 c 0
 239 631 234 627 233 621 c 0
 232 618 232 538 232 339 c 2
 233 61 l 1
 244 50 247 49 285 47 c 0
 296 46 318 46 333 46 c 2
 360 46 l 1
 360 0 l 1
 348 0 l 2
 331 2 214 3 182 3 c 0
 150 3 55 3 36 0 c 2
 25 0 l 1
 25 46 l 1
 58 46 l 2
 115 47 116 49 128 61 c 1
 128 619 l 1
EndSplineSet
EndChar

StartChar: Delta
Encoding: 916 916 129
Width: 833
GlyphClass: 2
Flags: MW
HStem: 0 91<383 630 383 781> 696 20G<407 416 416 426>
LayerCount: 2
Fore
SplineSet
51 0 m 2
 49 1 46 4 46 7 c 0
 46 9 384 704 388 709 c 0
 391 715 396 716 407 716 c 2
 416 716 l 2
 436 716 440 715 444 709 c 0
 448 704 786 9 786 7 c 0
 786 4 783 1 781 0 c 2
 51 0 l 2
507 344 m 2
 384 596 l 1
 137 92 l 1
 383 91 l 1
 630 91 l 2
 630 92 575 205 507 344 c 2
EndSplineSet
EndChar

StartChar: Theta
Encoding: 920 920 130
Width: 778
GlyphClass: 2
Flags: MW
HStem: -22 38<380 421.5 377.5 480> 263 159<223 263 223 263 514 554> 668 37<383.5 390>
VStem: 56 112<324.5 387 316 393> 223 40<263 297 388 422> 514 40<263 297 297 297 388 422 263 422> 610 112<292 349 240 375>
LayerCount: 2
Fore
SplineSet
722 341 m 0
 722 139 572 -22 388 -22 c 0
 372 -22 356 -21 339 -18 c 0
 198 5 86 122 61 273 c 0
 56 298 56 309 56 340 c 0
 56 446 90 519 138 581 c 0
 151 596 176 622 191 633 c 0
 241 674 301 698 362 704 c 0
 371 705 379 705 388 705 c 0
 458 705 528 680 587 633 c 0
 601 622 626 596 639 581 c 0
 684 525 710 459 720 383 c 0
 721 374 722 357 722 341 c 0
418 665 m 0
 410 667 396 668 384 668 c 0
 377 668 370 667 366 667 c 0
 308 658 256 622 221 566 c 0
 182 508 168 435 168 339 c 0
 168 293 169 269 176 235 c 0
 194 132 248 58 324 28 c 0
 345 20 367 16 388 16 c 0
 455 16 521 55 561 123 c 0
 594 179 610 245 610 339 c 0
 610 411 601 461 583 512 c 0
 556 588 492 653 418 665 c 0
223 263 m 1
 223 422 l 1
 263 422 l 1
 263 388 l 1
 514 388 l 1
 514 422 l 1
 554 422 l 1
 554 263 l 1
 514 263 l 1
 514 297 l 1
 263 297 l 1
 263 263 l 1
 223 263 l 1
EndSplineSet
EndChar

StartChar: Lambda
Encoding: 923 923 131
Width: 694
GlyphClass: 2
Flags: MW
HStem: 0 46<32 38 32 45 248 253 379 390 653 661 653 653> 696 20G<339 348 348 357.5>
VStem: 320 52<708 708>
LayerCount: 2
Fore
SplineSet
320 708 m 0
 325 715 328 716 339 716 c 2
 348 716 l 2
 367 716 368 716 372 708 c 0
 376 704 571 71 575 62 c 0
 585 45 599 47 634 46 c 2
 661 46 l 1
 661 0 l 1
 653 0 l 2
 638 3 558 3 532 3 c 0
 504 3 405 2 390 0 c 2
 379 0 l 1
 379 46 l 1
 392 46 l 2
 429 46 464 50 464 65 c 0
 463 70 317 540 316 539 c 2
 246 316 l 2
 188 130 177 95 177 84 c 0
 177 81 178 79 179 77 c 0
 187 60 216 46 248 46 c 2
 253 46 l 1
 253 0 l 1
 245 0 l 2
 234 2 152 3 130 3 c 0
 109 3 49 3 38 0 c 2
 32 0 l 1
 32 46 l 1
 45 46 l 2
 89 49 117 64 127 91 c 0
 128 92 320 707 320 708 c 0
EndSplineSet
EndChar

StartChar: Xi
Encoding: 926 926 132
Width: 667
GlyphClass: 2
Flags: MW
HStem: 0 86 311 83<179 487 179 487> 425 20G<139 179 179 179 487 527 527 527> 594 83<256.5 409.5 256.5 427.5>
VStem: 42 40<169.5 180> 139 40<260 311 394 445> 487 40<260 311 311 311 394 445 260 445> 584 40<169.5 180>
LayerCount: 2
Fore
SplineSet
47 509 m 2
 55 676 l 2
 55 677 180 677 333 677 c 0
 486 677 611 677 611 676 c 2
 619 509 l 2
 619 508 610 508 599 508 c 0
 581 508 579 508 579 510 c 0
 579 528 574 585 564 589 c 0
 553 593 522 594 333 594 c 0
 144 594 113 593 102 589 c 0
 92 585 87 528 87 510 c 0
 87 508 85 508 67 508 c 0
 56 508 47 508 47 509 c 2
139 260 m 1
 139 445 l 1
 179 445 l 1
 179 394 l 1
 487 394 l 1
 487 445 l 1
 527 445 l 1
 527 260 l 1
 487 260 l 1
 487 311 l 1
 179 311 l 1
 179 260 l 1
 139 260 l 1
50 0 m 1
 42 180 l 1
 62 180 l 2
 81 180 82 180 82 178 c 0
 82 161 86 117 89 105 c 0
 93 90 94 88 108 86 c 0
 127 84 163 83 333 83 c 0
 503 83 539 84 558 86 c 0
 572 88 573 90 577 105 c 0
 580 117 584 161 584 178 c 0
 584 180 585 180 604 180 c 2
 624 180 l 1
 616 0 l 1
 50 0 l 1
EndSplineSet
EndChar

StartChar: Pi
Encoding: 928 928 133
Width: 750
GlyphClass: 2
Flags: MW
HStem: 0 46<25 36 25 58 324 335 324 324 414 425 713 724 713 713> 634 46<25 58 25 724 232 232 232 517 691 691 691 724>
VStem: 128 104<348 619 619 619> 517 105<61 619 61 634 61 634>
LayerCount: 2
Fore
SplineSet
128 619 m 1
 116 631 115 633 58 634 c 2
 25 634 l 1
 25 680 l 1
 724 680 l 1
 724 634 l 1
 691 634 l 2
 637 633 631 632 622 619 c 1
 622 61 l 1
 631 48 637 47 691 46 c 2
 724 46 l 1
 724 0 l 1
 713 0 l 2
 696 3 599 3 569 3 c 0
 539 3 442 3 425 0 c 2
 414 0 l 1
 414 46 l 1
 447 46 l 2
 504 47 505 49 517 61 c 1
 517 634 l 1
 232 634 l 1
 232 348 l 1
 233 61 l 1
 242 48 248 47 302 46 c 2
 335 46 l 1
 335 0 l 1
 324 0 l 2
 307 3 210 3 180 3 c 0
 150 3 53 3 36 0 c 2
 25 0 l 1
 25 46 l 1
 58 46 l 2
 115 47 116 49 128 61 c 1
 128 619 l 1
EndSplineSet
EndChar

StartChar: Sigma
Encoding: 931 931 134
Width: 722
GlyphClass: 2
Flags: MW
HStem: 0 57<154 351> 443 21G<626 666 626 626> 637 46
VStem: 626 40<250.5 251 443 447>
LayerCount: 2
Fore
SplineSet
666 247 m 2
 663 241 641 10 638 4 c 2
 638 0 l 1
 351 0 l 2
 35 0 60 0 57 6 c 0
 55 10 55 13 57 17 c 0
 58 18 114 82 182 159 c 2
 305 299 l 1
 56 644 l 1
 55 658 l 2
 55 675 56 678 60 681 c 0
 63 683 71 683 351 683 c 2
 638 683 l 1
 638 679 l 2
 638 678 666 448 666 447 c 2
 666 443 l 1
 626 443 l 1
 626 447 l 1
 609 566 584 621 464 633 c 0
 435 636 401 637 294 637 c 2
 189 637 l 1
 293 494 l 2
 350 415 397 349 398 348 c 0
 400 344 401 340 399 337 c 2
 154 57 l 1
 154 57 407 57 428 58 c 0
 505 62 541 69 575 103 c 0
 601 131 616 171 624 235 c 0
 625 243 626 250 626 251 c 2
 666 251 l 1
 666 247 l 2
EndSplineSet
EndChar

StartChar: Upsilon
Encoding: 933 933 135
Width: 778
GlyphClass: 2
Flags: MW
HStem: 0 46<209 221 209 236 557 569 557 557> 616 89<166.5 193.5 568 594.5>
VStem: 55 46<544 569 542 594> 337 105<61 209 209 222 61 284> 677 45<541 583>
LayerCount: 2
Fore
SplineSet
78 536 m 2
 73 536 l 2
 60 536 55 537 55 551 c 0
 55 637 115 705 194 705 c 0
 359 705 389 474 389 474 c 2
 390 475 391 482 392 489 c 0
 407 558 431 617 472 658 c 0
 502 688 534 705 584 705 c 0
 605 705 623 701 641 692 c 0
 683 671 722 615 722 551 c 0
 722 536 720 536 699 536 c 0
 683 536 680 536 677 541 c 0
 677 543 676 546 676 548 c 0
 676 590 633 616 588 616 c 0
 548 616 527 606 505 582 c 0
 471 547 451 490 443 403 c 0
 442 385 442 370 442 222 c 2
 442 61 l 1
 453 50 456 49 494 47 c 0
 505 46 527 46 542 46 c 2
 569 46 l 1
 569 0 l 1
 557 0 l 2
 538 3 423 3 389 3 c 0
 355 3 240 3 221 0 c 2
 209 0 l 1
 209 46 l 1
 236 46 l 2
 251 46 273 46 284 47 c 0
 323 49 324 51 337 61 c 1
 337 209 l 2
 337 359 337 383 333 415 c 0
 321 534 279 603 213 615 c 0
 207 616 198 616 189 616 c 0
 144 616 101 590 101 548 c 0
 101 536 93 536 78 536 c 2
EndSplineSet
EndChar

StartChar: Phi
Encoding: 934 934 136
Width: 722
GlyphClass: 2
Flags: MW
HStem: 0 46<184 196 184 211 526 538 526 526> 150 38<310 312 310 310 411 411> 495 38<307 312 310 312 310 312> 637 46<184 196 184 211 184 196 526 538>
VStem: 56 114<337.5 346.5> 312 99<61 150 61 150 61 495 533 622> 551 114<330 353.5 330 387.5>
LayerCount: 2
Fore
SplineSet
526 0 m 2
 508 3 394 3 361 3 c 0
 328 3 214 3 196 0 c 2
 184 0 l 1
 184 46 l 1
 211 46 l 2
 226 46 248 46 259 47 c 0
 298 49 299 51 312 61 c 1
 312 150 l 1
 310 150 l 2
 309 151 301 152 294 153 c 0
 247 158 198 174 160 195 c 0
 103 227 68 270 57 317 c 0
 56 323 56 333 56 342 c 0
 56 351 56 360 57 366 c 0
 68 413 103 456 160 488 c 0
 198 509 247 525 294 530 c 0
 301 531 309 532 310 533 c 2
 312 533 l 1
 312 622 l 1
 299 632 298 634 259 636 c 0
 248 637 226 637 211 637 c 2
 184 637 l 1
 184 683 l 1
 196 683 l 2
 214 680 328 680 361 680 c 0
 394 680 508 680 526 683 c 2
 538 683 l 1
 538 637 l 1
 511 637 l 2
 496 637 474 637 463 636 c 0
 425 634 422 633 411 622 c 1
 411 533 l 1
 425 531 l 2
 528 518 617 467 650 402 c 0
 662 380 665 365 665 342 c 0
 665 318 662 303 650 281 c 0
 617 216 528 165 425 152 c 2
 411 150 l 1
 411 61 l 1
 422 50 425 49 463 47 c 0
 474 46 496 46 511 46 c 2
 538 46 l 1
 538 0 l 1
 526 0 l 2
170 342 m 0
 170 246 218 201 307 188 c 1
 312 188 l 1
 312 495 l 1
 309 495 l 2
 305 495 289 492 279 489 c 0
 206 471 170 428 170 342 c 0
415 188 m 1
 504 202 551 245 551 342 c 0
 551 433 510 476 430 492 c 0
 424 493 417 494 415 495 c 2
 410 495 l 1
 410 188 l 1
 415 188 l 1
EndSplineSet
EndChar

StartChar: Psi
Encoding: 936 936 137
Width: 778
GlyphClass: 2
Flags: MW
HStem: 0 46<212 224 212 239 554 566 554 554> 151 41<339 340> 509 37<63 126.5 708 712.5> 637 46<212 224 212 239 212 224 554 566>
VStem: 117 98 340 98<106 151 106 151 106 151> 562 98
LayerCount: 2
Fore
SplineSet
69 509 m 0
 57 509 55 512 55 526 c 0
 55 534 55 537 56 540 c 0
 60 546 60 546 107 546 c 0
 146 546 150 546 157 544 c 0
 181 538 197 518 204 493 c 0
 212 473 214 455 215 411 c 0
 217 328 231 271 272 230 c 0
 289 214 307 202 330 195 c 0
 335 193 339 192 339 192 c 2
 340 192 340 289 340 407 c 2
 340 622 l 1
 327 632 326 634 287 636 c 0
 276 637 254 637 239 637 c 2
 212 637 l 1
 212 683 l 1
 224 683 l 2
 242 680 356 680 389 680 c 0
 422 680 536 680 554 683 c 2
 566 683 l 1
 566 637 l 1
 539 637 l 2
 524 637 502 637 491 636 c 0
 453 634 450 633 439 622 c 1
 438 407 l 2
 438 275 438 192 439 192 c 0
 441 192 458 199 466 203 c 0
 533 236 559 306 562 411 c 0
 563 455 565 473 573 493 c 0
 580 518 596 538 620 544 c 0
 627 546 631 546 671 546 c 2
 715 546 l 1
 722 540 l 1
 722 515 l 1
 718 512 717 509 708 509 c 0
 693 507 682 499 674 482 c 0
 665 464 661 445 660 406 c 0
 658 362 654 337 644 307 c 0
 614 221 549 169 451 153 c 2
 438 151 l 1
 438 106 l 1
 439 61 l 1
 450 50 453 49 491 47 c 0
 502 46 524 46 539 46 c 2
 566 46 l 1
 566 0 l 1
 554 0 l 2
 536 3 422 3 389 3 c 0
 356 3 242 3 224 0 c 2
 212 0 l 1
 212 46 l 1
 239 46 l 2
 254 46 276 46 287 47 c 0
 326 49 327 51 340 61 c 1
 340 151 l 1
 200 169 122 254 117 406 c 0
 116 445 112 464 103 482 c 0
 95 499 84 507 69 509 c 0
EndSplineSet
EndChar

StartChar: Omega
Encoding: 937 937 138
Width: 722
GlyphClass: 2
Flags: MW
HStem: 0 80<178 222 178 263 501.5 543> 668 36<337 352 352 375.5>
VStem: 44 41<170.5 177 170.5 177> 55 119<445 464> 222 48 451 48 548 118<444 464 442.5 502>
LayerCount: 2
Fore
SplineSet
270 20 m 0xde
 270 8 268 5 263 0 c 1
 77 0 l 1
 77 2 l 2
 76 3 69 42 61 89 c 0
 52 135 45 174 44 175 c 2
 44 177 l 1
 84 177 l 1
 85 172 l 2xee
 85 169 87 160 89 153 c 0
 94 123 100 101 104 93 c 0
 106 90 107 88 111 86 c 0
 122 82 130 81 178 80 c 2
 222 80 l 1
 222 83 l 2
 219 92 209 116 200 136 c 0
 187 161 175 181 145 228 c 0
 95 308 78 340 65 385 c 0
 59 407 55 431 55 454 c 0
 55 474 58 494 63 511 c 0
 92 609 193 692 322 703 c 0
 328 704 334 704 337 704 c 2
 352 704 l 2
 455 704 522 679 583 627 c 0
 619 595 646 554 658 511 c 0
 663 494 666 474 666 454 c 0
 666 431 662 407 656 385 c 0
 643 340 626 308 576 228 c 0
 546 181 534 161 521 136 c 0
 512 116 502 92 499 83 c 2
 499 80 l 1
 543 80 l 2
 591 81 599 82 610 86 c 0
 614 88 615 90 617 93 c 0
 621 101 627 123 632 153 c 0
 634 160 636 169 636 172 c 2
 637 177 l 1
 677 177 l 1
 677 175 l 2
 676 174 669 135 660 89 c 0
 652 42 645 3 644 2 c 2
 644 0 l 1
 552 0 l 2
 451 0 456 0 453 6 c 0
 452 8 451 13 451 20 c 0
 451 39 455 71 460 99 c 0
 467 133 476 163 499 234 c 0
 526 315 534 346 541 386 c 0
 545 410 548 433 548 455 c 0
 548 549 510 615 445 648 c 0
 418 661 390 668 361 668 c 0
 287 668 235 630 205 583 c 0
 184 550 174 506 174 456 c 0
 174 434 176 410 180 386 c 0
 187 346 195 315 222 234 c 0
 245 163 254 133 261 99 c 0
 266 72 270 39 270 20 c 0xde
EndSplineSet
EndChar

StartChar: endash
Encoding: 8211 8211 146
Width: 500
GlyphClass: 2
Flags: MW
HStem: 248 37<0 499 0 499>
LayerCount: 2
Fore
SplineSet
0 248 m 1
 0 285 l 1
 499 285 l 1
 499 248 l 1
 0 248 l 1
EndSplineSet
EndChar

StartChar: emdash
Encoding: 8212 8212 147
Width: 1000
GlyphClass: 2
Flags: MW
HStem: 248 37<0 999 0 999>
LayerCount: 2
Fore
SplineSet
0 248 m 1
 0 285 l 1
 999 285 l 1
 999 248 l 1
 0 248 l 1
EndSplineSet
EndChar

StartChar: quoteleft
Encoding: 8216 8216 148
Width: 278
GlyphClass: 2
Flags: MW
HStem: 674 20G<156 162.5>
VStem: 64 37<497.5 500.5>
LayerCount: 2
Fore
SplineSet
198 440 m 0
 198 407 173 379 139 379 c 0
 109 379 91 398 80 418 c 0
 69 439 64 459 64 494 c 0
 64 507 65 520 66 527 c 0
 74 576 94 623 123 660 c 0
 132 670 152 694 160 694 c 0
 165 694 182 675 182 672 c 0
 182 668 176 662 170 656 c 0
 128 613 104 561 101 501 c 0
 101 494 101 489 102 489 c 2
 102 489 105 491 109 493 c 0
 118 498 128 500 138 500 c 0
 172 500 198 474 198 440 c 0
EndSplineSet
EndChar

StartChar: quoteright
Encoding: 8217 8217 149
Width: 278
GlyphClass: 2
Flags: MW
VStem: 176 36<572 575.5>
LayerCount: 2
Fore
SplineSet
78 634 m 0
 78 667 103 694 138 694 c 0
 159 694 170 687 183 675 c 0
 204 651 212 625 212 579 c 0
 212 529 203 499 185 464 c 0
 171 435 157 415 136 394 c 0
 126 384 122 379 118 379 c 0
 113 379 95 398 95 401 c 0
 95 405 101 411 107 417 c 0
 149 460 173 512 176 572 c 0
 176 579 176 584 175 584 c 2
 175 584 172 582 168 580 c 0
 159 575 149 573 139 573 c 0
 105 573 78 600 78 634 c 0
EndSplineSet
EndChar

StartChar: quotedblleft
Encoding: 8220 8220 150
Width: 500
GlyphClass: 2
Flags: MW
HStem: 379 110<164.5 219> 674 20G<219 225.5 423 429.5>
VStem: 128 36<497.5 500.5> 332 36<497.5 500.5>
LayerCount: 2
Fore
SplineSet
223 694 m 0
 228 694 245 675 245 671 c 0
 245 667 241 664 233 656 c 0
 191 613 167 561 164 501 c 0
 164 494 164 489 165 489 c 2
 165 489 168 491 172 493 c 0
 181 498 191 500 201 500 c 0
 235 500 262 474 262 440 c 0
 262 407 236 379 202 379 c 0
 172 379 154 398 143 418 c 0
 132 439 128 459 128 494 c 0
 128 507 128 520 129 527 c 0
 137 576 157 623 186 660 c 0
 195 670 215 694 223 694 c 0
466 440 m 0
 466 407 440 379 406 379 c 0
 376 379 358 398 347 418 c 0
 336 439 332 459 332 494 c 0
 332 507 332 520 333 527 c 0
 341 576 361 623 390 660 c 0
 399 670 419 694 427 694 c 0
 432 694 449 675 449 672 c 0
 449 668 443 662 437 656 c 0
 395 613 371 561 368 501 c 0
 368 494 368 489 369 489 c 2
 369 489 372 491 376 493 c 0
 385 498 395 500 405 500 c 0
 439 500 466 474 466 440 c 0
EndSplineSet
EndChar

StartChar: quotedblright
Encoding: 8221 8221 151
Width: 500
GlyphClass: 2
Flags: MW
HStem: 584 110<75.5 130.5>
VStem: 131 37<572 575.5> 335 37<572 575.5>
LayerCount: 2
Fore
SplineSet
34 634 m 0
 34 667 58 694 93 694 c 0
 114 694 125 687 138 675 c 0
 159 651 168 625 168 579 c 0
 168 529 158 499 140 464 c 0
 126 435 112 415 91 394 c 0
 81 384 77 379 73 379 c 0
 68 379 50 398 50 401 c 0
 50 405 56 411 62 417 c 0
 104 460 128 512 131 572 c 0
 131 579 131 584 130 584 c 2
 130 584 127 582 123 580 c 0
 114 575 104 573 94 573 c 0
 60 573 34 600 34 634 c 0
238 634 m 0
 238 667 262 694 297 694 c 0
 318 694 329 687 342 675 c 0
 363 651 372 625 372 579 c 0
 372 529 362 499 344 464 c 0
 330 435 316 415 295 394 c 0
 285 384 281 379 277 379 c 0
 272 379 254 398 254 401 c 0
 254 405 260 411 266 417 c 0
 308 460 332 512 335 572 c 0
 335 579 335 584 334 584 c 2
 334 584 331 582 327 580 c 0
 318 575 308 573 298 573 c 0
 264 573 238 600 238 634 c 0
EndSplineSet
EndChar

StartChar: dagger
Encoding: 8224 8224 152
Width: 444
GlyphClass: 2
Flags: MW
HStem: 390 82<86 105.5 338.5 358> 685 20G<210.5 234.5>
VStem: 181 82<166.5 248> 204 36<405 412 405 412>
LayerCount: 2
Fore
SplineSet
182 675 m 1xd0
 189 691 199 705 222 705 c 0
 247 705 254 691 263 675 c 1xe0
 262 655 l 2
 262 627 260 606 251 547 c 0
 244 501 241 477 240 454 c 2
 240 449 l 1
 251 451 263 454 282 460 c 0
 310 468 331 472 346 472 c 0
 370 472 389 456 389 431 c 0
 389 408 372 390 346 390 c 0
 331 390 310 394 282 403 c 0
 267 407 246 412 243 412 c 2
 240 412 l 1
 240 405 l 2xd0
 242 391 245 370 250 342 c 0
 262 285 263 271 263 225 c 0
 263 108 256 -42 245 -168 c 0
 242 -213 242 -210 239 -213 c 0
 236 -216 236 -216 222 -216 c 0
 208 -216 208 -216 205 -213 c 0
 202 -210 202 -213 199 -168 c 0
 188 -42 181 108 181 225 c 0xe0
 181 271 182 285 194 342 c 0
 199 370 202 391 204 405 c 2
 204 412 l 1
 201 412 l 2
 198 412 177 407 162 403 c 0
 134 394 113 390 98 390 c 0
 74 390 55 406 55 431 c 0
 55 453 72 472 98 472 c 0
 113 472 134 468 162 460 c 0
 181 454 192 451 205 449 c 1
 204 454 l 2
 203 477 200 501 193 547 c 0
 184 606 182 627 182 655 c 2
 182 675 l 1xd0
EndSplineSet
EndChar

StartChar: daggerdbl
Encoding: 8225 8225 153
Width: 444
GlyphClass: 2
Flags: MW
HStem: -19 82<86 105.5 338.5 358> 3 38<199.5 204 201 204 240 243 201 240> 438 81<87 101 84 106 338 344 344 357> 459 37<201 203 201 203.5 241 243> 685 20G<208 236>
VStem: 181 82<-172.5 -149 193 216 282.5 306 649 672> 204 36<-4 3 -4 3 41 48 454.5 457 498 500.5>
LayerCount: 2
Fore
SplineSet
181 658 m 0x1c
 181 686 194 705 222 705 c 0
 250 705 263 686 263 658 c 0x1c
 263 640 260 615 252 575 c 0
 244 534 240 504 240 497 c 0
 240 496 240 496 241 496 c 0x1a
 245 496 261 501 282 506 c 0
 313 515 331 519 345 519 c 0
 369 519 388 504 388 478 c 0
 388 454 376 447 361 438 c 1
 344 438 l 2x2a
 324 438 319 438 282 449 c 0
 261 454 245 459 241 459 c 2
 241 459 240 458 240 456 c 0x1a
 240 447 245 418 252 381 c 0
 260 341 263 315 263 297 c 0
 263 268 247 250 222 250 c 0
 197 250 181 268 181 297 c 0x1c
 181 315 184 341 192 381 c 0
 200 421 204 451 204 458 c 0
 204 459 204 459 203 459 c 0x1a
 199 459 183 454 162 449 c 0
 125 438 120 438 101 438 c 2
 84 438 l 1
 68 446 56 454 56 478 c 0
 56 504 75 519 99 519 c 0x2a
 113 519 131 515 162 506 c 0
 183 501 199 496 203 496 c 2
 203 496 204 497 204 499 c 0x1a
 204 508 199 538 192 575 c 0
 184 615 181 640 181 658 c 0x1c
181 202 m 0
 181 230 194 249 222 249 c 0
 250 249 263 230 263 202 c 0x4c
 263 184 260 158 251 114 c 0
 245 81 242 62 240 48 c 2
 240 41 l 1
 243 41 l 2x4a
 246 41 267 46 282 50 c 0
 310 59 331 63 346 63 c 0
 370 63 389 47 389 22 c 0
 389 -1 372 -19 346 -19 c 0x8a
 331 -19 310 -15 282 -6 c 0
 267 -2 246 3 243 3 c 2
 240 3 l 1
 240 -4 l 2x4a
 242 -18 245 -37 251 -70 c 0
 260 -114 263 -140 263 -158 c 0
 263 -187 247 -205 222 -205 c 0
 197 -205 181 -187 181 -158 c 0x4c
 181 -140 184 -114 193 -70 c 0
 199 -37 202 -18 204 -4 c 2
 204 3 l 1
 201 3 l 2x4a
 198 3 177 -2 162 -6 c 0
 134 -15 113 -19 98 -19 c 0
 74 -19 55 -3 55 22 c 0
 55 44 72 63 98 63 c 0x8a
 113 63 134 59 162 50 c 0
 177 46 198 41 201 41 c 2
 204 41 l 1
 204 48 l 2x4a
 202 62 199 81 193 114 c 0
 184 158 181 184 181 202 c 0
EndSplineSet
EndChar

StartChar: ellipsis
Encoding: 8230 8230 154
Width: 1172
GlyphClass: 2
Flags: MW
HStem: 0 120<121 154.5 568 601.5 1015 1048.5>
VStem: 78 121<44.5 76.5 43 77> 525 121<44.5 76.5 43 77> 972 121<44.5 76.5 43 77>
CounterMasks: 1 70
LayerCount: 2
Fore
SplineSet
78 60 m 0
 78 94 104 120 138 120 c 0
 174 120 199 92 199 61 c 0
 199 25 170 0 139 0 c 0
 103 0 78 29 78 60 c 0
525 60 m 0
 525 94 551 120 585 120 c 0
 621 120 646 92 646 61 c 0
 646 25 617 0 586 0 c 0
 550 0 525 29 525 60 c 0
972 60 m 0
 972 94 998 120 1032 120 c 0
 1068 120 1093 92 1093 61 c 0
 1093 25 1064 0 1033 0 c 0
 997 0 972 29 972 60 c 0
EndSplineSet
EndChar

StartChar: minute
Encoding: 8242 8242 155
Width: 275
GlyphClass: 2
Flags: MW
VStem: 30 54
LayerCount: 2
Fore
SplineSet
198 560 m 0
 233 560 262 531 262 501 c 0
 262 496 261 491 260 486 c 0
 258 476 86 47 84 45 c 0
 82 43 81 43 79 43 c 0
 75 43 69 44 56 48 c 0
 35 55 30 57 30 61 c 0
 30 69 138 513 146 528 c 0
 154 546 172 560 198 560 c 0
EndSplineSet
EndChar

StartChar: uni20D7
Encoding: 8407 8407 156
Width: 0
GlyphClass: 2
Flags: MW
HStem: 595 40<-287 -116 -287 -287> 694 20G<-109 -100.5>
VStem: -123 42
LayerCount: 2
Fore
SplineSet
-123 694 m 0
 -123 704 -115 714 -103 714 c 0
 -98 714 -94 712 -91 709 c 0
 -87 706 -85 702 -81 690 c 0
 -75 667 -60 646 -40 633 c 0
 -32 628 -29 623 -29 615 c 0
 -29 602 -33 601 -46 594 c 0
 -77 578 -99 559 -121 531 c 0
 -131 520 -131 516 -143 516 c 0
 -152 516 -163 524 -163 536 c 0
 -163 554 -129 584 -116 595 c 1
 -287 595 l 1
 -458 596 l 1
 -465 601 -471 606 -471 615 c 0
 -471 624 -464 629 -458 635 c 1
 -99 635 l 1
 -109 651 -123 681 -123 694 c 0
EndSplineSet
EndChar

StartChar: uni210F
Encoding: 8463 8463 157
Width: 540
GlyphClass: 2
Flags: MW
HStem: -13 57<395 431.5> 386 55<337.5 360> 535 57<138 138 138 146.5 324.5 399> 619 69 675 20G<284 292>
VStem: 42 96 166 67 318 94<53 86> 386 99<318.5 341 313.5 352.5>
LayerCount: 2
Fore
SplineSet
42 26 m 0xee80
 42 36 166 530 166 530 c 2
 166 535 164 535 129 535 c 0
 95 535 91 535 86 539 c 0
 78 545 74 553 74 562 c 0
 74 567 75 572 78 577 c 0
 86 590 89 590 138 592 c 2
 182 595 l 1
 182 599 l 2
 182 610 180 615 164 617 c 0
 155 619 142 619 133 619 c 0
 113 619 109 621 109 630 c 0
 109 639 120 677 122 681 c 0
 124 684 146 686 202 688 c 0xf680
 242 692 282 695 286 695 c 0
 298 695 304 690 304 684 c 0
 304 681 286 608 282 597 c 0
 282 592 289 592 360 592 c 0
 438 592 440 590 446 586 c 0
 455 580 460 572 460 563 c 0
 460 556 457 548 451 541 c 2
 442 535 l 1
 266 535 l 1
 251 468 l 2
 242 432 233 401 233 399 c 0
 233 395 235 397 244 404 c 0
 277 428 316 441 357 441 c 0
 418 441 463 414 478 375 c 0
 482 362 485 349 485 333 c 0xee80
 485 294 470 240 435 141 c 0
 418 94 412 70 412 58 c 0
 412 48 417 44 426 44 c 0
 437 44 453 52 466 68 c 0
 482 84 491 104 500 130 c 2
 509 152 l 1
 531 152 l 1
 550 152 l 2
 559 152 562 151 562 144 c 0
 562 138 559 127 551 108 c 0
 526 46 486 4 438 -10 c 0
 430 -12 423 -13 415 -13 c 0
 375 -13 335 10 322 44 c 0
 318 52 318 59 318 77 c 0xef
 318 95 318 97 335 148 c 0
 369 240 386 300 386 337 c 0
 386 368 374 386 346 386 c 0
 329 386 306 380 286 370 c 0
 262 359 226 324 211 292 c 0
 206 286 193 237 173 157 c 0
 155 88 140 28 138 21 c 0
 135 17 129 8 122 4 c 0
 110 -7 96 -12 83 -12 c 0
 61 -12 42 2 42 26 c 0xee80
EndSplineSet
EndChar

StartChar: Ifraktur
Encoding: 8465 8465 158
Width: 722
GlyphClass: 2
Flags: MW
HStem: 146 36<60 71> 310 37<237.5 279 237.5 279> 393 38<560.5 587.5> 475 37<559.5 584 559.5 591> 667 38<249.5 269>
VStem: 55 47<500.5 513 493 562> 420 97<304 312 312 332 302.5 339> 533 98<132 140.5 132 140.5> 647 46<328.5 335 544.5 554>
LayerCount: 2
Fore
SplineSet
55 507 m 0
 55 617 148 705 260 705 c 0
 311 705 364 687 413 653 c 0
 451 627 485 593 526 541 c 0
 547 516 552 512 567 512 c 0
 601 512 647 521 647 550 c 0
 647 562 655 561 670 561 c 2
 679 561 l 2
 689 561 693 560 693 548 c 0
 693 541 691 532 686 523 c 0
 669 490 617 475 565 475 c 0
 531 475 509 481 481 495 c 0
 448 511 427 530 383 584 c 0
 344 629 327 646 304 657 c 0
 287 665 279 667 259 667 c 0
 240 667 228 666 211 660 c 0
 155 642 114 594 103 536 c 0
 102 529 102 518 102 508 c 0
 102 478 108 461 116 441 c 0
 141 390 202 347 273 347 c 0
 285 347 287 344 287 329 c 0
 287 313 286 310 272 310 c 0
 172 310 81 375 59 468 c 0
 56 481 55 494 55 507 c 0
667 320 m 2
 652 320 647 320 647 335 c 0
 644 368 609 393 566 393 c 0
 555 393 553 393 549 391 c 0
 530 382 517 352 517 312 c 0
 517 293 522 281 536 264 c 0
 543 255 550 249 581 222 c 0
 605 202 618 185 625 169 c 0
 630 156 631 149 631 132 c 0
 630 111 626 97 617 78 c 0
 594 33 547 1 487 -9 c 0
 478 -10 470 -10 417 -10 c 0
 359 -10 357 -10 347 -8 c 0
 285 5 224 64 175 101 c 0
 135 131 106 144 71 146 c 0
 61 146 60 147 58 149 c 0
 55 152 55 152 55 163 c 0
 55 176 56 180 60 182 c 0
 62 182 85 183 108 183 c 0
 131 183 155 182 161 182 c 0
 222 174 260 136 306 93 c 0
 362 40 380 26 420 13 c 1
 473 25 513 59 527 101 c 0
 531 112 533 125 533 136 c 0
 533 145 532 153 529 159 c 0
 523 175 509 191 483 214 c 0
 448 242 437 254 428 273 c 0
 422 286 420 291 420 304 c 2
 420 312 l 2
 420 366 452 396 491 414 c 0
 513 425 535 431 564 431 c 0
 629 431 688 396 693 336 c 0
 693 321 688 320 676 320 c 2
 667 320 l 2
EndSplineSet
EndChar

StartChar: afii61289
Encoding: 8467 8467 159
Width: 417
GlyphClass: 2
Flags: MW
HStem: -20 37<194 223 194 229> 668 37<334.5 346>
VStem: 91 68<116.5 185 116.5 186.5> 360 37<628.5 638 616 645>
LayerCount: 2
Fore
SplineSet
349 104 m 0
 354 104 369 87 369 80 c 0
 369 75 364 70 352 59 c 0
 293 4 252 -20 206 -20 c 0
 148 -20 111 26 97 114 c 0
 96 121 95 128 94 129 c 0
 94 132 35 70 28 70 c 0
 23 70 21 72 13 82 c 0
 8 89 7 91 7 94 c 0
 7 99 3 95 58 147 c 2
 91 179 l 1
 91 185 l 2
 91 188 92 195 92 200 c 0
 92 237 101 293 115 347 c 0
 141 454 178 542 230 620 c 0
 263 671 293 697 325 704 c 0
 329 704 332 705 336 705 c 0
 370 705 387 689 395 660 c 0
 397 652 397 649 397 627 c 0
 397 605 397 601 395 587 c 0
 375 472 311 360 194 233 c 2
 165 201 l 1
 163 186 l 2
 161 164 159 143 159 123 c 0
 159 110 160 98 161 87 c 0
 167 38 180 17 208 17 c 0
 238 17 261 30 292 56 c 0
 314 73 343 104 349 104 c 0
360 634 m 0
 360 656 356 668 336 668 c 0
 333 668 329 667 327 667 c 0
 311 661 293 637 272 592 c 0
 247 536 231 483 197 347 c 0
 188 312 179 274 179 273 c 0
 179 271 206 302 221 322 c 0
 283 398 334 484 355 590 c 0
 359 608 360 623 360 634 c 0
EndSplineSet
EndChar

StartChar: weierstrass
Encoding: 8472 8472 160
Width: 636
GlyphClass: 2
Flags: MW
HStem: -216 38<129 144> -10 36<378.5 399.5> 373 37<476.5 494.5 469 507> 416 37<242 250>
VStem: 67 38<-140.5 -117 -140.5 -94.5> 81 61<198.5 228 198.5 232> 214 62<-78.5 -68> 300 40<74 76 61.5 90.5> 551 74<278.5 293.5 215 313>
LayerCount: 2
Fore
SplineSet
362 109 m 0xf780
 362 94 353 83 340 76 c 1
 340 47 364 26 393 26 c 0
 419 26 449 41 474 67 c 0
 502 96 518 130 535 195 c 0
 546 238 551 267 551 290 c 0
 551 336 530 373 484 373 c 0
 469 373 448 370 429 366 c 0
 343 346 259 276 197 172 c 0
 186 153 174 131 174 130 c 2
 174 130 254 30 265 10 c 0
 272 -6 276 -23 276 -41 c 0
 276 -116 221 -204 154 -215 c 0
 150 -216 146 -216 142 -216 c 0xf780
 87 -216 67 -174 67 -118 c 0xfb80
 67 -71 82 2 104 64 c 2
 110 81 l 1
 91 105 81 134 81 174 c 0
 81 290 153 435 235 451 c 0
 239 452 244 453 247 453 c 0
 253 453 259 450 259 445 c 0
 259 442 254 422 253 420 c 0
 252 418 248 416 242 416 c 0
 227 414 211 400 193 372 c 0
 164 332 142 253 142 203 c 0
 142 194 145 165 149 165 c 2
 158 180 l 2
 208 267 287 352 382 389 c 0
 417 403 453 410 485 410 c 0
 504 410 522 407 536 402 c 0
 590 381 625 332 625 255 c 0
 625 175 584 106 539 59 c 0
 509 30 477 10 443 -1 c 0
 421 -9 410 -10 389 -10 c 0
 335 -10 303 23 300 74 c 0
 300 107 308 133 338 133 c 0
 354 133 362 122 362 109 c 0xf780
105 -123 m 0xfb80
 105 -158 113 -178 145 -178 c 0
 153 -178 155 -178 160 -176 c 0
 186 -162 214 -117 214 -73 c 0
 214 -63 212 -55 209 -48 c 0
 208 -46 142 43 139 43 c 0
 138 43 138 41 135 33 c 0
 124 -1 112 -52 107 -86 c 0
 105 -96 105 -111 105 -123 c 0xfb80
EndSplineSet
EndChar

StartChar: Rfraktur
Encoding: 8476 8476 161
Width: 722
GlyphClass: 2
Flags: MW
HStem: -22 37<177.5 206.5> 90 36<107 107> 243 37<106 129 106 146> 338 46<343 424 343 452 343 424> 664 52 668 36<155.5 182>
VStem: 40 67<88.5 98.5> 56 44<575 604> 147 47<389 391.5> 244 99<280 338 280 384 384 422.5> 452 98<337 338 338 338> 461 98<83.5 106.5 83.5 106.5>
LayerCount: 2
Fore
SplineSet
114 243 m 0xf5c0
 75 243 55 282 55 322 c 0
 55 334 59 336 75 336 c 0
 89 336 95 336 95 322 c 0
 95 306 99 280 113 280 c 0
 145 280 146 329 147 375 c 0
 147 408 147 410 145 418 c 0
 140 437 130 454 101 487 c 0
 75 517 65 533 58 555 c 0
 56 563 56 565 56 580 c 0xf5c0
 56 628 78 666 107 686 c 0
 123 698 142 704 169 704 c 0xf6c0
 202 704 222 694 244 679 c 0
 264 664 287 637 300 614 c 1
 309 623 324 640 334 648 c 0
 382 686 452 709 531 715 c 0
 538 715 549 716 557 716 c 0
 568 716 570 716 572 714 c 0
 575 712 715 447 715 444 c 0
 715 442 714 440 713 439 c 0
 707 433 578 364 549 354 c 1
 550 348 l 2xfae0
 550 326 561 150 561 128 c 0
 561 116 559 112 559 101 c 0
 559 66 574 44 591 25 c 2
 599 18 l 1
 631 51 l 2
 651 71 664 86 669 86 c 0
 678 86 700 70 702 68 c 0
 703 65 703 61 702 59 c 0
 702 57 617 -19 613 -21 c 0
 612 -22 606 -22 598 -22 c 0
 557 -22 537 -17 512 0 c 0
 483 19 461 59 461 101 c 0xf8d0
 461 112 463 117 463 129 c 0
 463 134 452 330 452 331 c 2
 452 338 l 1
 343 338 l 1
 343 280 l 2
 342 210 341 192 333 157 c 0
 322 97 297 44 267 12 c 0
 244 -11 220 -22 193 -22 c 0
 131 -22 90 25 72 74 c 0
 71 76 71 76 67 74 c 0
 60 72 58 73 48 82 c 0
 41 90 40 91 40 95 c 0
 40 102 49 106 57 109 c 1
 57 113 l 2
 57 116 57 117 67 127 c 0
 76 136 78 137 81 137 c 0
 88 137 91 130 93 123 c 1
 97 124 104 127 108 126 c 0
 112 124 126 110 127 107 c 0
 127 97 114 94 107 90 c 0xfae0
 107 87 116 69 120 62 c 0
 139 35 163 15 192 15 c 0
 226 15 236 64 239 96 c 0
 243 127 244 136 244 334 c 0
 244 511 243 526 242 542 c 0
 239 564 236 585 233 596 c 0
 220 637 198 668 166 668 c 0
 124 668 100 625 100 584 c 0
 100 566 106 555 132 528 c 0
 162 494 184 467 193 423 c 0
 194 415 194 409 194 389 c 0
 192 317 178 243 114 243 c 0xf5c0
324 562 m 1
 337 515 341 496 343 427 c 2
 343 384 l 1
 424 384 l 1
 505 385 l 1
 528 393 552 404 584 422 c 2
 609 435 l 2
 610 435 583 487 550 550 c 0
 516 612 489 664 488 664 c 2xf8e0
 476 662 l 2
 436 653 403 641 378 624 c 0
 354 610 332 587 324 562 c 1
EndSplineSet
EndChar

StartChar: aleph
Encoding: 8501 8501 162
Width: 611
GlyphClass: 2
Flags: MW
HStem: 0 37<68.5 129.5> 674 20G<79 88 412 420>
VStem: 55 39 83 82<236 246> 140 112<56.5 75> 516 39
LayerCount: 2
Fore
SplineSet
76 37 m 0xec
 115 39 140 43 140 70 c 0xec
 140 80 138 93 133 106 c 0
 129 115 121 131 107 157 c 0
 89 190 83 209 83 236 c 0xd4
 83 256 85 266 89 286 c 0
 97 329 116 375 149 432 c 0
 159 448 160 450 159 452 c 0
 142 469 101 517 95 524 c 0
 73 551 61 573 56 594 c 0
 55 599 55 606 55 613 c 0
 55 628 56 646 59 657 c 0
 63 671 73 694 85 694 c 0
 91 694 94 689 94 681 c 0xe4
 97 646 109 619 134 588 c 0
 139 581 202 512 408 289 c 1
 412 285 l 1
 420 344 445 478 447 509 c 2
 447 519 l 1
 438 526 l 2
 427 536 413 549 407 558 c 0
 393 575 388 590 388 617 c 0
 388 631 390 647 392 657 c 0
 396 671 406 694 418 694 c 0
 422 694 426 690 427 684 c 0
 429 675 444 650 470 611 c 0
 487 584 488 586 512 564 c 0
 537 542 555 530 555 487 c 0
 555 473 553 458 551 447 c 0
 547 430 535 411 528 409 c 0
 518 409 516 412 515 426 c 0
 514 439 509 453 503 463 c 0
 498 471 491 481 490 481 c 2
 490 481 489 474 488 465 c 0
 484 436 460 299 456 267 c 0
 455 257 454 250 454 246 c 0
 454 228 512 187 542 132 c 0
 552 113 555 99 555 79 c 0
 555 46 550 25 538 9 c 0
 533 3 528 0 524 0 c 0
 519 0 516 4 516 13 c 0
 513 48 501 75 476 106 c 0
 471 112 257 346 200 407 c 2
 195 412 l 1
 194 408 l 1
 174 368 165 297 165 240 c 0xd4
 165 232 165 224 166 220 c 0
 170 203 180 187 203 161 c 0
 229 132 236 122 243 106 c 0
 249 93 252 82 252 70 c 0
 252 28 214 7 175 1 c 0
 170 0 144 0 115 0 c 0
 59 0 59 0 56 5 c 0
 55 7 55 13 55 20 c 0
 55 31 55 31 58 34 c 0
 60 37 61 37 76 37 c 0xec
EndSplineSet
EndChar

StartChar: arrowleft
Encoding: 8592 8592 163
Width: 1000
GlyphClass: 2
Flags: MW
HStem: 230 40<165 929 165 929>
VStem: 267 42
LayerCount: 2
Fore
SplineSet
944 250 m 0
 944 239 937 234 929 230 c 1
 165 230 l 1
 168 227 l 1
 237 174 280 114 303 25 c 0
 306 14 309 6 309 0 c 0
 309 -8 303 -11 288 -11 c 0
 272 -11 270 -9 267 4 c 0
 266 7 264 15 263 21 c 0
 239 118 167 199 73 236 c 0
 60 241 57 243 55 247 c 0
 55 259 61 261 73 264 c 0
 167 301 239 382 263 479 c 0
 267 499 265 511 288 511 c 0
 303 511 309 508 309 500 c 0
 309 494 306 486 303 475 c 0
 281 388 234 325 168 273 c 1
 165 270 l 1
 929 270 l 1
 937 266 944 261 944 250 c 0
EndSplineSet
EndChar

StartChar: arrowup
Encoding: 8593 8593 164
Width: 500
GlyphClass: 2
Flags: MW
HStem: -193 21G<244.5 255.5> 414 42 674 20G<247 253.5>
VStem: 230 40<-179 555 -179 555> 238 23
LayerCount: 2
Fore
SplineSet
27 414 m 0xf0
 18 414 17 419 17 433 c 0
 17 453 19 451 36 456 c 0
 91 470 148 506 180 549 c 0
 210 586 231 632 238 678 c 0
 239 689 243 694 251 694 c 0
 256 694 260 690 261 684 c 0xe8
 261 681 263 674 264 668 c 0
 286 565 364 481 464 456 c 0
 481 451 483 453 483 433 c 0
 483 418 481 413 473 413 c 0
 469 413 464 414 458 416 c 0
 385 436 319 482 277 545 c 2
 270 555 l 1
 270 -179 l 1
 266 -187 261 -193 250 -193 c 0
 239 -193 234 -187 230 -179 c 1
 230 555 l 1
 223 545 l 2
 192 498 150 462 99 437 c 0
 71 424 38 414 27 414 c 0xf0
EndSplineSet
EndChar

StartChar: arrowright
Encoding: 8594 8594 165
Width: 1000
GlyphClass: 2
Flags: MW
HStem: 230 40<70 835 70 835>
VStem: 690 42
LayerCount: 2
Fore
SplineSet
56 250 m 0
 56 261 62 266 70 270 c 1
 835 270 l 1
 784 308 751 348 725 398 c 0
 709 429 697 465 692 493 c 0
 692 496 691 498 691 500 c 0
 691 510 698 511 711 511 c 0
 727 511 729 509 732 497 c 0
 734 485 739 467 743 456 c 0
 772 369 842 292 935 261 c 0
 941 259 944 256 944 250 c 0
 944 244 941 241 935 239 c 0
 843 208 772 131 743 44 c 0
 739 33 734 15 732 4 c 0
 729 -9 727 -11 711 -11 c 0
 696 -11 690 -8 690 0 c 0
 690 6 693 14 696 25 c 0
 718 113 766 179 835 230 c 1
 70 230 l 1
 62 234 56 239 56 250 c 0
EndSplineSet
EndChar

StartChar: arrowdown
Encoding: 8595 8595 166
Width: 500
GlyphClass: 2
Flags: MW
HStem: -194 21G<247 253.5> 44 43 674 20G<246 251>
VStem: 230 40<-55 312 312 490> 238 23
LayerCount: 2
Fore
SplineSet
473 86 m 0xf0
 482 86 483 81 483 67 c 0
 483 47 481 49 464 44 c 0
 364 19 286 -65 264 -168 c 0
 263 -174 261 -181 261 -184 c 0
 260 -190 256 -194 251 -194 c 0
 243 -194 239 -189 238 -178 c 0xe8
 228 -113 188 -44 139 -8 c 0
 109 16 72 35 36 44 c 0
 19 49 17 47 17 67 c 0
 17 82 19 87 27 87 c 0
 31 87 36 86 42 84 c 0
 115 64 181 18 223 -45 c 2
 230 -55 l 1
 230 312 l 2
 230 668 230 679 232 683 c 0
 235 689 241 694 251 694 c 0
 262 693 266 687 270 679 c 1
 270 -55 l 1
 277 -45 l 2
 308 2 350 38 402 63 c 0
 429 76 462 86 473 86 c 0xf0
EndSplineSet
EndChar

StartChar: arrowboth
Encoding: 8596 8596 167
Width: 1000
GlyphClass: 2
Flags: MW
HStem: 230 40<165 835 165 835>
VStem: 267 42
LayerCount: 2
Fore
SplineSet
267 497 m 0
 271 510 272 511 288 511 c 0
 303 511 309 508 309 500 c 0
 309 494 306 486 303 475 c 0
 281 388 234 325 168 273 c 1
 165 270 l 1
 835 270 l 1
 764 323 719 384 696 475 c 0
 693 486 690 494 690 500 c 0
 690 508 696 511 711 511 c 0
 727 511 729 509 732 497 c 0
 734 485 739 467 743 456 c 0
 772 369 842 292 935 261 c 0
 941 259 944 256 944 250 c 0
 944 244 941 241 935 239 c 0
 843 208 772 131 743 44 c 0
 739 33 734 15 732 4 c 0
 729 -9 727 -11 711 -11 c 0
 696 -11 690 -8 690 0 c 0
 690 6 693 14 696 25 c 0
 718 113 766 179 835 230 c 1
 165 230 l 1
 168 227 l 1
 237 174 280 114 303 25 c 0
 306 14 309 6 309 0 c 0
 309 -8 303 -11 288 -11 c 0
 272 -11 270 -9 267 4 c 0
 266 7 264 15 263 21 c 0
 239 118 167 199 73 236 c 0
 60 241 57 243 55 247 c 0
 55 259 61 261 73 264 c 0
 167 301 239 382 263 479 c 0
 264 485 266 493 267 497 c 0
EndSplineSet
EndChar

StartChar: arrowupdn
Encoding: 8597 8597 168
Width: 500
GlyphClass: 2
Flags: MW
HStem: -34 43 492 42
VStem: 230 40<-133 633 -133 633> 236 25
LayerCount: 2
Fore
SplineSet
27 492 m 0xe0
 18 492 17 497 17 511 c 0
 17 531 19 529 36 534 c 0
 91 548 148 584 180 627 c 0
 208 662 228 704 236 747 c 0
 239 765 240 766 243 769 c 0
 245 771 247 772 250 772 c 0
 256 772 260 768 261 762 c 0xd0
 261 759 263 752 264 746 c 0
 286 643 364 558 464 534 c 0
 481 529 483 531 483 511 c 0
 483 496 481 491 473 491 c 0
 469 491 464 492 458 494 c 0
 385 514 319 560 277 623 c 2
 270 633 l 1
 270 -133 l 1xe0
 277 -123 l 2
 308 -76 350 -40 402 -15 c 0
 429 -2 462 8 473 8 c 0
 482 8 483 3 483 -11 c 0
 483 -31 481 -29 464 -34 c 0
 364 -59 286 -143 264 -246 c 0
 263 -252 261 -259 261 -262 c 0
 260 -268 256 -272 250 -272 c 0
 247 -272 245 -271 243 -269 c 0
 240 -266 239 -265 236 -246 c 0xd0
 224 -185 186 -120 139 -86 c 0
 109 -62 72 -43 36 -34 c 0
 19 -29 17 -31 17 -11 c 0
 17 4 19 9 27 9 c 0
 31 9 36 8 42 6 c 0
 115 -14 181 -60 223 -123 c 2
 230 -133 l 1
 230 633 l 1
 223 623 l 2
 192 576 150 540 99 515 c 0
 71 502 38 492 27 492 c 0xe0
EndSplineSet
EndChar

StartChar: uni2196
Encoding: 8598 8598 169
Width: 1000
GlyphClass: 2
Flags: MW
HStem: -195 21G<922.5 929.5> 623 39<201 213 177.5 218.5>
VStem: 86 40<507 541 541 557 500.5 572>
LayerCount: 2
Fore
SplineSet
52 332 m 0
 49 332 29 350 29 355 c 0
 29 359 32 363 38 372 c 0
 69 423 86 469 86 545 c 0
 86 599 76 635 59 671 c 0
 57 676 55 682 55 683 c 0
 55 689 61 695 67 694 c 0
 105 675 151 662 204 662 c 0
 222 662 242 663 253 665 c 0
 298 672 339 687 377 711 c 0
 386 717 390 720 394 720 c 0
 399 720 417 700 417 697 c 0
 417 691 414 688 400 679 c 0
 354 650 303 632 248 625 c 0
 238 624 225 623 212 623 c 0
 190 623 167 625 153 628 c 0
 150 628 235 543 546 232 c 0
 873 -95 942 -165 943 -168 c 0
 944 -170 944 -172 944 -174 c 0
 944 -185 935 -195 924 -195 c 0
 921 -195 919 -194 916 -193 c 0
 914 -192 801 -80 517 204 c 0
 299 421 121 599 121 598 c 0
 125 589 126 573 126 557 c 2
 126 541 l 2
 126 460 106 406 70 349 c 0
 61 335 58 332 52 332 c 0
EndSplineSet
EndChar

StartChar: uni2197
Encoding: 8599 8599 170
Width: 1000
GlyphClass: 2
Flags: MW
HStem: -195 21G<69.5 76.5> 623 39<786 798> 674 20G<933 936>
VStem: 874 39<541 567 567 572 507 573.5>
LayerCount: 2
Fore
SplineSet
582 697 m 0
 582 700 600 720 605 720 c 0
 609 720 613 717 622 711 c 0
 660 687 701 672 747 665 c 0
 757 663 777 662 795 662 c 0
 843 662 880 672 918 688 c 0
 925 692 932 694 934 694 c 0
 938 694 943 690 944 685 c 0
 944 682 943 679 940 671 c 0
 923 635 913 599 913 545 c 0
 913 469 930 423 961 372 c 0
 967 363 970 359 970 355 c 0
 970 350 950 332 947 332 c 0
 941 332 938 335 929 349 c 0
 893 406 874 461 874 541 c 2
 874 567 l 2
 874 580 874 591 878 598 c 0
 878 599 700 421 482 204 c 0
 198 -80 85 -192 83 -193 c 0
 80 -194 78 -195 75 -195 c 0
 64 -195 55 -185 55 -174 c 0
 55 -172 55 -170 56 -168 c 0
 57 -165 126 -95 453 232 c 0
 764 543 849 628 847 628 c 0
 833 625 809 623 787 623 c 0
 774 623 761 624 751 625 c 0
 696 632 645 650 599 679 c 0
 585 688 582 691 582 697 c 0
EndSplineSet
EndChar

StartChar: uni2198
Encoding: 8600 8600 171
Width: 1000
GlyphClass: 2
Flags: MW
HStem: -194 21G<933 936> -162 39<786 798 780.5 819> 675 20G<69 76.5>
VStem: 878 35<-98 -7>
LayerCount: 2
Fore
SplineSet
55 675 m 0
 55 685 63 695 75 695 c 0
 78 695 80 694 83 693 c 0
 85 692 198 580 482 296 c 0
 700 79 878 -99 878 -97 c 0
 877 -96 876 -89 875 -81 c 0
 874 -71 874 -56 874 -41 c 0
 874 40 893 94 929 151 c 0
 938 165 941 168 947 168 c 0
 950 168 970 150 970 145 c 0
 970 141 967 137 961 128 c 0
 930 77 913 31 913 -45 c 0
 913 -99 923 -135 940 -171 c 0
 943 -179 944 -182 944 -185 c 0
 943 -190 938 -194 934 -194 c 0
 932 -194 925 -192 918 -188 c 0
 880 -172 843 -162 795 -162 c 0
 777 -162 757 -163 747 -165 c 0
 701 -172 660 -187 622 -211 c 0
 613 -217 609 -220 605 -220 c 0
 600 -220 582 -200 582 -197 c 0
 582 -191 585 -188 599 -179 c 0
 645 -150 696 -132 751 -125 c 0
 761 -124 774 -123 787 -123 c 0
 809 -123 833 -125 847 -128 c 0
 849 -128 764 -43 453 268 c 0
 126 595 57 665 56 668 c 0
 55 670 55 673 55 675 c 0
EndSplineSet
EndChar

StartChar: uni2199
Encoding: 8601 8601 172
Width: 1000
GlyphClass: 2
Flags: MW
HStem: -162 34<151.5 213> 675 20G<922.5 929.5>
VStem: 86 40<-48.5 -7>
LayerCount: 2
Fore
SplineSet
29 145 m 0
 29 150 49 168 52 168 c 0
 58 168 61 165 70 151 c 0
 106 94 126 39 126 -41 c 0
 126 -56 125 -71 124 -81 c 0
 123 -89 122 -96 121 -97 c 0
 121 -99 299 79 517 296 c 0
 779 559 914 692 916 693 c 0
 919 694 921 695 924 695 c 0
 935 695 944 685 944 674 c 0
 944 672 944 670 943 668 c 0
 942 665 873 595 546 268 c 0
 235 -43 150 -128 153 -128 c 0
 167 -125 190 -123 212 -123 c 0
 225 -123 238 -124 248 -125 c 0
 303 -132 354 -150 400 -179 c 0
 414 -188 417 -191 417 -197 c 0
 417 -200 399 -220 394 -220 c 0
 390 -220 386 -217 377 -211 c 0
 339 -187 298 -172 253 -165 c 0
 242 -163 222 -162 204 -162 c 0
 156 -162 117 -172 82 -188 c 0
 76 -191 69 -193 67 -194 c 0
 61 -195 55 -189 55 -183 c 0
 55 -182 57 -176 59 -171 c 0
 76 -135 86 -99 86 -45 c 0
 86 31 69 77 38 128 c 0
 32 137 29 141 29 145 c 0
EndSplineSet
EndChar

StartChar: uni21A6
Encoding: 8614 8614 173
Width: 1000
GlyphClass: 2
Flags: MW
HStem: 230 40<95 835 95 835> 417 20G<70.5 78>
VStem: 55 40<156 230 270 332> 690 42
LayerCount: 2
Fore
SplineSet
57 425 m 0
 60 431 66 437 75 437 c 0
 81 437 86 434 89 431 c 0
 95 424 95 428 95 345 c 2
 95 270 l 1
 835 270 l 1
 784 308 751 348 725 398 c 0
 709 429 697 465 692 493 c 0
 692 496 691 498 691 500 c 0
 691 510 698 511 711 511 c 0
 727 511 729 509 732 497 c 0
 734 485 739 467 743 456 c 0
 772 369 842 292 935 261 c 0
 941 259 944 256 944 250 c 0
 944 244 941 241 935 239 c 0
 843 208 772 131 743 44 c 0
 739 33 734 15 732 4 c 0
 729 -9 727 -11 711 -11 c 0
 696 -11 690 -8 690 0 c 0
 690 6 693 14 696 25 c 0
 718 113 766 179 835 230 c 1
 95 230 l 1
 95 155 l 2
 95 72 95 76 89 69 c 0
 86 66 81 63 75 63 c 0
 69 63 64 66 61 69 c 0
 55 76 55 62 55 250 c 0
 55 414 55 421 57 425 c 0
EndSplineSet
EndChar

StartChar: uni21A9
Encoding: 8617 8617 174
Width: 1126
GlyphClass: 2
Flags: MW
HStem: 230 40<165 929 165 929> 424 40<929 929>
VStem: 267 42 1030 40<340 371.5>
LayerCount: 2
Fore
SplineSet
1070 347 m 0
 1070 279 1004 230 929 230 c 2
 165 230 l 1
 168 227 l 1
 237 174 280 114 303 25 c 0
 306 14 309 6 309 0 c 0
 309 -8 303 -11 288 -11 c 0
 272 -11 270 -9 267 4 c 0
 266 7 264 15 263 21 c 0
 239 118 167 199 73 236 c 0
 60 241 57 243 55 247 c 0
 55 259 61 261 73 264 c 0
 167 301 239 382 263 479 c 0
 267 499 265 511 288 511 c 0
 303 511 309 508 309 500 c 0
 309 494 306 486 303 475 c 0
 281 388 234 325 168 273 c 1
 165 270 l 1
 929 270 l 2
 967 273 997 285 1015 307 c 0
 1025 319 1030 333 1030 347 c 0
 1030 396 979 420 929 424 c 0
 912 425 903 430 903 444 c 0
 903 457 912 464 929 464 c 0
 1004 464 1070 415 1070 347 c 0
EndSplineSet
EndChar

StartChar: uni21AA
Encoding: 8618 8618 175
Width: 1126
GlyphClass: 2
Flags: MW
HStem: 230 40<158.5 961 196 961> 424 40<196 196>
VStem: 55 40<322.5 354 322.5 381> 816 42
LayerCount: 2
Fore
SplineSet
196 230 m 2
 121 230 55 279 55 347 c 0
 55 415 123 464 197 464 c 0
 213 464 222 457 222 444 c 0
 222 430 213 425 196 424 c 0
 158 421 128 409 110 387 c 0
 100 375 95 361 95 347 c 0
 95 298 146 274 196 270 c 1
 961 270 l 1
 910 308 877 348 851 398 c 0
 835 429 823 465 818 493 c 0
 818 496 817 498 817 500 c 0
 817 510 824 511 837 511 c 0
 853 511 855 509 858 497 c 0
 860 485 865 467 869 456 c 0
 898 369 968 292 1061 261 c 0
 1067 259 1070 256 1070 250 c 0
 1070 244 1067 241 1061 239 c 0
 969 208 898 131 869 44 c 0
 865 33 860 15 858 4 c 0
 855 -9 853 -11 837 -11 c 0
 822 -11 816 -8 816 0 c 0
 816 6 819 14 822 25 c 0
 844 113 892 179 961 230 c 1
 196 230 l 2
EndSplineSet
EndChar

StartChar: uni21BC
Encoding: 8636 8636 176
Width: 1000
GlyphClass: 2
Flags: MW
HStem: 230 40<148 929 148 929>
LayerCount: 2
Fore
SplineSet
62 230 m 1
 57 235 56 234 55 244 c 0
 55 255 56 256 69 265 c 0
 158 318 226 397 265 493 c 0
 270 510 269 511 283 511 c 2
 288 511 l 2
 300 511 304 510 306 505 c 0
 309 501 308 499 303 484 c 0
 273 403 218 325 151 273 c 1
 148 270 l 1
 929 270 l 1
 937 266 944 261 944 250 c 0
 944 239 937 234 929 230 c 1
 62 230 l 1
EndSplineSet
EndChar

StartChar: uni21BD
Encoding: 8637 8637 177
Width: 1000
GlyphClass: 2
Flags: MW
HStem: 230 40<148 929 148 148>
LayerCount: 2
Fore
SplineSet
55 256 m 0
 56 266 57 265 62 270 c 1
 929 270 l 1
 937 266 944 261 944 250 c 0
 944 239 937 234 929 230 c 1
 148 230 l 1
 158 220 178 204 191 191 c 0
 240 141 279 81 303 16 c 0
 308 1 309 -1 306 -5 c 0
 304 -10 300 -11 288 -11 c 0
 272 -11 272 -11 265 7 c 0
 222 108 159 181 69 235 c 0
 56 244 55 245 55 256 c 0
EndSplineSet
EndChar

StartChar: uni21C0
Encoding: 8640 8640 178
Width: 1000
GlyphClass: 2
Flags: MW
HStem: 230 40<70 852 70 937 70 852>
VStem: 691 43
LayerCount: 2
Fore
SplineSet
691 500 m 0
 691 509 699 511 711 511 c 0
 727 511 727 511 734 493 c 0
 774 400 832 328 912 276 c 0
 920 271 929 265 933 263 c 0
 943 257 944 256 944 245 c 0
 944 234 942 235 937 230 c 1
 70 230 l 1
 62 234 56 239 56 250 c 0
 56 261 62 266 70 270 c 1
 852 270 l 1
 784 321 726 402 696 484 c 0
 693 492 691 499 691 500 c 0
EndSplineSet
EndChar

StartChar: uni21C1
Encoding: 8641 8641 179
Width: 1000
GlyphClass: 2
Flags: MW
HStem: 230 40<70 852 70 937>
LayerCount: 2
Fore
SplineSet
56 250 m 0
 56 261 62 266 70 270 c 1
 937 270 l 1
 941 266 944 266 944 256 c 0
 944 244 943 242 933 238 c 0
 841 182 774 105 734 7 c 0
 727 -11 727 -11 711 -11 c 0
 699 -11 695 -10 693 -5 c 0
 690 -1 691 1 696 16 c 0
 726 98 783 179 852 230 c 1
 70 230 l 1
 62 234 56 239 56 250 c 0
EndSplineSet
EndChar

StartChar: uni21CC
Encoding: 8652 8652 180
Width: 1000
GlyphClass: 2
Flags: MW
HStem: 230 40<148 929 148 148> 390 40<70 852 70 937 70 852>
VStem: 691 43
LayerCount: 2
Fore
SplineSet
691 660 m 0
 691 669 699 671 711 671 c 0
 727 671 727 671 734 653 c 0
 774 560 832 488 912 436 c 0
 920 431 929 425 933 423 c 0
 943 417 944 416 944 405 c 0
 944 394 942 395 937 390 c 1
 70 390 l 1
 62 394 56 399 56 410 c 0
 56 421 62 426 70 430 c 1
 852 430 l 1
 784 481 726 562 696 644 c 0
 693 652 691 659 691 660 c 0
55 256 m 0
 56 266 57 265 62 270 c 1
 929 270 l 1
 937 266 944 261 944 250 c 0
 944 239 937 234 929 230 c 1
 148 230 l 1
 158 220 178 204 191 191 c 0
 240 141 279 81 303 16 c 0
 308 1 309 -1 306 -5 c 0
 304 -10 300 -11 288 -11 c 0
 272 -11 272 -11 265 7 c 0
 222 108 159 181 69 235 c 0
 56 244 55 245 55 256 c 0
EndSplineSet
EndChar

StartChar: arrowdblleft
Encoding: 8656 8656 181
Width: 1000
GlyphClass: 2
Flags: MW
HStem: 133 40<318 929 318 318> 327 40<318 602>
LayerCount: 2
Fore
SplineSet
944 153 m 0
 944 142 937 137 929 133 c 1
 318 133 l 1
 328 123 l 2
 359 90 392 43 414 0 c 0
 417 -7 419 -12 419 -16 c 0
 419 -22 413 -24 399 -24 c 0
 384 -24 383 -24 377 -12 c 0
 330 81 252 159 160 204 c 0
 132 218 99 230 72 237 c 0
 58 241 56 243 56 250 c 0
 56 257 58 259 72 263 c 0
 211 299 317 393 377 512 c 0
 384 524 383 525 395 525 c 2
 401 525 l 2
 414 524 419 521 419 515 c 0
 419 511 417 507 414 500 c 0
 392 457 359 410 328 377 c 2
 318 367 l 1
 929 367 l 1
 937 363 944 358 944 347 c 0
 944 336 937 332 930 328 c 2
 602 327 l 1
 274 327 l 1
 264 319 l 2
 230 293 185 269 147 250 c 1
 147 250 151 247 157 245 c 0
 191 230 234 204 264 181 c 2
 274 173 l 1
 930 173 l 1
 936 168 944 165 944 153 c 0
EndSplineSet
EndChar

StartChar: arrowdblup
Encoding: 8657 8657 182
Width: 611
GlyphClass: 2
Flags: MW
HStem: -194 21G<203 213.5 396 405.5> 674 20G<303.5 308.5>
VStem: 188 40<125 148> 382 40<-177 125 -181 475>
LayerCount: 2
Fore
SplineSet
228 -179 m 1
 223 -186 219 -194 208 -194 c 0
 198 -194 193 -186 189 -181 c 2
 188 125 l 1
 188 430 l 1
 176 419 l 2
 141 387 99 358 59 338 c 0
 49 332 44 330 40 330 c 0
 36 330 35 333 31 337 c 1
 31 350 l 2
 31 366 31 366 46 374 c 0
 164 431 256 546 292 677 c 0
 295 687 296 689 298 692 c 0
 300 693 302 694 305 694 c 0
 312 694 314 691 318 677 c 0
 354 546 446 431 564 374 c 0
 579 366 579 366 579 350 c 2
 579 337 l 1
 575 333 574 330 570 330 c 0
 566 330 561 332 551 338 c 0
 511 358 469 387 435 419 c 2
 423 430 l 1
 422 125 l 1
 422 -181 l 1
 417 -188 410 -194 401 -194 c 0
 391 -194 385 -187 382 -177 c 2
 382 475 l 1
 373 487 l 2
 347 521 322 563 305 602 c 1
 305 602 303 598 301 593 c 0
 285 558 261 518 238 488 c 2
 229 476 l 1
 228 148 l 1
 228 -179 l 1
EndSplineSet
EndChar

StartChar: arrowdblright
Encoding: 8658 8658 183
Width: 1000
GlyphClass: 2
Flags: MW
HStem: 133 40<72 681 70 725> 327 40<72 681 70 725 72 72>
LayerCount: 2
Fore
SplineSet
580 514 m 0
 580 521 587 525 596 525 c 0
 616 525 615 524 622 512 c 0
 673 410 761 328 867 284 c 0
 883 277 911 267 927 263 c 0
 941 259 944 257 944 250 c 0
 944 243 941 241 927 237 c 0
 788 201 682 106 622 -12 c 0
 616 -24 615 -24 600 -24 c 0
 586 -24 580 -22 580 -16 c 0
 580 -12 582 -7 585 0 c 0
 607 43 640 90 671 123 c 2
 681 133 l 1
 70 133 l 1
 62 137 56 142 56 153 c 0
 56 165 62 170 72 173 c 2
 725 173 l 1
 735 181 l 2
 769 207 814 231 852 250 c 1
 852 250 848 253 842 255 c 0
 808 270 765 296 735 319 c 2
 725 327 l 1
 72 327 l 2
 62 330 56 335 56 347 c 0
 56 358 62 363 70 367 c 1
 681 367 l 1
 671 377 l 2
 640 410 607 457 585 500 c 0
 582 506 580 512 580 514 c 0
EndSplineSet
EndChar

StartChar: arrowdbldown
Encoding: 8659 8659 184
Width: 611
GlyphClass: 2
Flags: MW
HStem: -194 21G<301.5 308.5> 674 20G<203 213.5 401 405.5>
VStem: 188 40<352 375 375 375> 382 40<375 678 678 678>
LayerCount: 2
Fore
SplineSet
401 694 m 0
 410 694 417 688 422 681 c 1
 422 375 l 1
 423 70 l 1
 435 81 l 2
 469 113 511 142 551 162 c 0
 561 168 566 170 570 170 c 0
 574 170 575 167 579 163 c 1
 579 150 l 2
 579 134 579 134 564 126 c 0
 447 68 356 -40 318 -177 c 0
 314 -191 312 -194 305 -194 c 0
 298 -194 296 -191 292 -177 c 0
 254 -40 163 68 46 126 c 0
 31 134 31 134 31 150 c 2
 31 163 l 1
 35 167 36 170 40 170 c 0
 44 170 49 168 59 162 c 0
 99 142 141 113 176 81 c 2
 188 70 l 1
 188 375 l 1
 189 681 l 2
 193 686 198 694 208 694 c 0
 219 694 223 687 228 680 c 1
 228 352 l 1
 229 25 l 1
 238 12 l 2
 263 -21 288 -63 305 -102 c 1
 305 -102 307 -98 309 -93 c 0
 325 -58 349 -18 373 13 c 2
 382 25 l 1
 382 678 l 1
 386 687 391 693 401 694 c 0
EndSplineSet
EndChar

StartChar: arrowdblboth
Encoding: 8660 8660 185
Width: 1000
GlyphClass: 2
Flags: MW
HStem: 133 40<432.5 567> 327 40<432.5 567 432.5 783>
VStem: 299 41
LayerCount: 2
Fore
SplineSet
308 524 m 0
 314 525 318 526 323 526 c 0
 333 526 340 523 340 514 c 0
 340 510 339 505 336 499 c 0
 318 456 290 410 262 376 c 0
 258 372 255 368 255 368 c 2
 255 367 365 367 500 367 c 0
 634 367 744 367 744 368 c 2
 744 368 741 372 737 376 c 0
 709 410 681 456 663 499 c 0
 660 506 658 511 658 515 c 0
 658 523 665 525 680 525 c 0
 693 524 694 524 701 507 c 0
 743 414 811 335 902 287 c 0
 916 279 942 266 955 262 c 0
 963 259 966 256 966 250 c 0
 966 244 963 241 955 238 c 0
 942 234 916 221 902 213 c 0
 811 163 742 88 701 -7 c 0
 694 -24 693 -24 680 -25 c 0
 665 -25 658 -23 658 -15 c 0
 658 -11 660 -6 663 1 c 0
 681 44 709 90 737 124 c 0
 741 128 744 132 744 132 c 2
 744 133 634 133 500 133 c 0
 365 133 255 133 255 132 c 2
 255 132 258 128 262 124 c 0
 290 90 318 44 336 1 c 0
 339 -6 341 -11 341 -15 c 0
 341 -23 334 -25 319 -25 c 0
 306 -24 305 -24 298 -7 c 0
 256 86 188 165 97 213 c 0
 83 221 57 234 44 238 c 0
 36 241 34 244 34 250 c 0
 34 256 36 259 44 262 c 0
 57 266 83 279 97 287 c 0
 188 337 258 415 299 509 c 0
 304 521 304 522 308 524 c 0
792 319 m 2
 783 327 l 1
 216 327 l 1
 192 303 154 276 120 256 c 2
 110 250 l 1
 120 244 l 2
 150 226 183 203 207 181 c 2
 216 173 l 1
 783 173 l 1
 792 181 l 2
 816 203 849 226 879 244 c 2
 889 250 l 1
 879 256 l 2
 849 274 816 297 792 319 c 2
EndSplineSet
EndChar

StartChar: uni21D5
Encoding: 8661 8661 186
Width: 611
GlyphClass: 2
Flags: MW
VStem: 188 40<-50 550 550 550> 382 40<100 400 100 589>
LayerCount: 2
Fore
SplineSet
290 755 m 0
 296 765 296 772 305 772 c 0
 311 772 314 769 320 755 c 0
 361 645 457 550 565 506 c 0
 572 502 575 501 579 497 c 1
 579 484 l 2
 579 469 578 466 572 464 c 0
 568 463 566 463 550 470 c 0
 505 489 458 521 423 550 c 1
 422 400 l 1
 422 100 l 1
 423 -50 l 1
 458 -21 504 10 550 30 c 0
 566 37 568 37 572 36 c 0
 578 34 579 31 579 16 c 2
 579 3 l 1
 575 -1 572 -2 565 -6 c 0
 526 -22 485 -47 449 -77 c 0
 436 -88 404 -120 393 -132 c 0
 362 -170 336 -212 320 -254 c 0
 314 -269 311 -272 305 -272 c 0
 299 -272 296 -269 290 -254 c 0
 274 -212 248 -170 217 -132 c 0
 206 -120 174 -88 162 -77 c 0
 125 -47 84 -22 45 -6 c 0
 38 -2 35 -1 31 3 c 1
 31 16 l 2
 31 31 32 34 38 36 c 0
 42 37 44 37 61 30 c 0
 102 12 149 -17 181 -45 c 1
 188 -50 l 1
 188 550 l 1
 181 545 l 1
 149 517 102 488 61 470 c 0
 44 463 42 463 38 464 c 0
 32 466 31 469 31 484 c 2
 31 497 l 1
 35 501 38 502 45 506 c 0
 84 522 125 547 162 577 c 0
 214 625 264 686 290 755 c 0
374 598 m 2
 349 624 325 663 305 695 c 1
 305 695 302 691 300 687 c 0
 283 657 258 621 236 598 c 2
 228 589 l 1
 228 -89 l 1
 236 -98 l 2
 261 -124 285 -163 305 -195 c 1
 305 -195 308 -191 310 -187 c 0
 327 -157 352 -121 374 -98 c 2
 382 -89 l 1
 382 589 l 1
 374 598 l 2
EndSplineSet
EndChar

StartChar: universal
Encoding: 8704 8704 187
Width: 556
GlyphClass: 2
Flags: MW
HStem: 411 40<223.5 332.5> 674 20G<14.5 23 534.5 538>
VStem: 519 37
LayerCount: 2
Fore
SplineSet
0 673 m 0
 0 684 9 694 20 694 c 0
 26 694 32 691 35 687 c 0
 37 685 58 631 82 567 c 2
 126 451 l 1
 430 451 l 1
 473 566 l 2
 497 629 518 682 519 685 c 0
 522 690 531 694 538 694 c 0
 548 693 556 684 556 674 c 0
 556 669 297 -11 293 -15 c 0
 290 -19 284 -22 278 -22 c 0
 272 -22 266 -19 263 -15 c 0
 259 -10 1 667 0 673 c 0
414 410 m 2
 414 411 387 411 278 411 c 0
 169 411 142 411 142 410 c 2
 278 55 l 1
 414 410 l 2
EndSplineSet
EndChar

StartChar: partialdiff
Encoding: 8706 8706 188
Width: 531
GlyphClass: 2
Flags: MW
HStem: -22 43<199.5 235 199.5 254.5> 428 37<315 331 315 336> 676 39<333 345 345 351.5 333 353.5>
VStem: 42 90<84.5 172> 158 106<534.5 584> 478 88<496 525.5 434.5 552.5>
LayerCount: 2
Fore
SplineSet
202 508 m 0
 177 508 158 522 158 547 c 0
 158 553 159 560 162 570 c 0
 182 642 233 693 301 710 c 0
 311 712 323 715 333 715 c 2
 345 715 l 2
 358 715 378 715 384 714 c 0
 495 694 566 594 566 457 c 0
 566 412 560 376 544 316 c 0
 512 204 470 115 402 53 c 0
 348 3 286 -22 223 -22 c 0
 151 -22 108 3 73 56 c 0
 58 78 49 99 44 123 c 0
 42 132 42 136 42 159 c 0
 42 185 42 191 48 215 c 0
 64 286 93 338 146 386 c 0
 193 429 234 452 280 461 c 0
 294 464 308 465 322 465 c 0
 340 465 358 463 372 458 c 0
 410 445 444 412 455 367 c 1
 458 378 l 2
 473 440 478 477 478 515 c 0
 478 590 451 642 399 665 c 0
 382 672 363 676 344 676 c 0
 290 676 246 646 223 612 c 1
 248 608 264 596 264 572 c 0
 264 536 235 508 202 508 c 0
430 306 m 0
 430 371 405 416 349 427 c 0
 344 428 339 428 333 428 c 0
 282 428 253 411 222 382 c 0
 208 367 200 357 192 342 c 0
 177 316 167 287 150 221 c 0
 137 169 132 139 132 116 c 0
 132 53 167 21 232 21 c 0
 238 21 244 21 250 22 c 0
 298 30 345 64 374 112 c 0
 385 131 400 167 412 206 c 0
 426 250 430 273 430 306 c 0
EndSplineSet
EndChar

StartChar: existential
Encoding: 8707 8707 189
Width: 556
GlyphClass: 2
Flags: MW
HStem: 0 40<70 279 70 460> 327 40<84 460 84 460> 654 40<70 460 70 487>
VStem: 460 40<40 327 327 327 367 654 654 654>
CounterMasks: 1 e0
LayerCount: 2
Fore
SplineSet
56 674 m 0
 56 685 62 690 70 694 c 1
 487 694 l 1
 492 690 497 686 500 679 c 2
 500 15 l 2
 497 8 492 5 487 1 c 2
 279 0 l 1
 70 0 l 1
 62 4 56 9 56 20 c 0
 56 31 62 36 70 40 c 1
 460 40 l 1
 460 327 l 1
 84 327 l 1
 76 331 70 336 70 347 c 0
 70 358 76 363 84 367 c 1
 460 367 l 1
 460 654 l 1
 70 654 l 1
 62 658 56 663 56 674 c 0
EndSplineSet
EndChar

StartChar: emptyset
Encoding: 8709 8709 190
Width: 500
GlyphClass: 2
Flags: MW
HStem: -22 38<238 268 235 272> 679 37<230.5 251>
VStem: 39 82<337.5 395> 351 37 378 82<356 402 288 404 288 444>
LayerCount: 2
Fore
SplineSet
132 -78 m 0xe8
 123 -78 111 -70 111 -60 c 0
 111 -54 114 -43 122 -18 c 2
 133 21 l 1
 125 29 l 2
 105 48 91 69 77 100 c 0
 50 161 39 232 39 344 c 0
 39 446 48 513 69 571 c 0
 85 615 104 649 137 675 c 0
 170 702 210 716 251 716 c 0
 279 716 308 708 326 698 c 2
 331 696 l 1
 341 725 350 761 351 762 c 0
 354 767 359 772 367 772 c 0
 376 772 388 764 388 754 c 0xf0
 388 748 385 737 377 712 c 2
 366 673 l 1
 378 661 l 2
 396 642 408 623 420 596 c 0
 449 533 460 460 460 344 c 0
 460 232 449 161 422 100 c 0
 408 68 393 47 373 27 c 0
 338 -5 294 -22 250 -22 c 0
 226 -22 203 -17 180 -7 c 0
 174 -5 168 -3 168 -4 c 2
 159 -33 l 2
 149 -67 148 -71 142 -75 c 0
 139 -77 136 -78 132 -78 c 0xe8
276 676 m 2
 268 678 256 679 246 679 c 0
 207 679 180 658 159 631 c 0
 123 581 121 476 121 356 c 0
 121 319 122 284 122 266 c 0
 125 166 132 119 151 80 c 1
 234 366 l 2
 280 524 318 653 318 654 c 0
 318 655 303 664 294 669 c 2
 276 676 l 2
181 42 m 1
 196 27 220 16 250 16 c 0
 286 16 303 28 324 47 c 0
 361 85 373 133 377 266 c 0
 377 284 378 319 378 356 c 2
 378 404 l 2xe8
 378 484 377 543 359 593 c 0
 356 603 353 609 349 616 c 1
 348 613 l 2
 348 611 310 482 264 326 c 2
 181 42 l 1
EndSplineSet
EndChar

StartChar: gradient
Encoding: 8711 8711 191
Width: 833
GlyphClass: 2
Flags: MW
HStem: 597 86<339.5 519>
LayerCount: 2
Fore
SplineSet
46 676 m 0
 46 679 49 682 51 683 c 2
 781 683 l 2
 783 682 786 679 786 676 c 0
 786 674 448 -21 444 -26 c 0
 440 -32 436 -33 416 -33 c 0
 396 -33 392 -32 388 -26 c 0
 384 -21 46 674 46 676 c 0
697 596 m 2
 697 597 593 597 445 597 c 0
 234 597 193 597 193 596 c 0
 195 591 444 80 445 80 c 2
 697 596 l 2
EndSplineSet
EndChar

StartChar: element
Encoding: 8712 8712 192
Width: 667
GlyphClass: 2
Flags: MW
HStem: -40 40<466 471 471 568> 230 40<124 568 124 568> 500 40<466 568>
VStem: 84 40<270 272>
CounterMasks: 1 e0
LayerCount: 2
Fore
SplineSet
84 250 m 0
 84 415 213 524 360 539 c 0
 365 539 414 540 469 540 c 2
 568 540 l 1
 577 536 583 530 583 520 c 0
 583 511 577 506 570 501 c 1
 466 500 l 2
 354 499 355 499 329 494 c 0
 229 469 154 401 130 309 c 0
 127 297 124 277 124 272 c 2
 124 270 l 1
 568 270 l 1
 576 266 583 261 583 250 c 0
 583 239 576 234 568 230 c 1
 124 230 l 1
 124 228 l 2
 124 223 127 203 130 191 c 0
 154 102 229 28 328 7 c 0
 355 1 354 1 466 0 c 2
 570 0 l 1
 577 -5 583 -11 583 -20 c 0
 583 -30 577 -36 568 -40 c 1
 471 -40 l 2
 371 -40 362 -40 338 -36 c 0
 217 -16 113 74 89 192 c 0
 84 215 84 224 84 250 c 0
EndSplineSet
EndChar

StartChar: notelement
Encoding: 8713 8713 193
Width: 667
GlyphClass: 2
Flags: MW
HStem: -40 40<466 471 471 568> 230 40<124 301 124 321 366 568 124 346> 500 40<440 440 434.5 484> 696 20G<559.5 568.5>
VStem: 84 40<270 272>
LayerCount: 2
Fore
SplineSet
104 -215 m 0
 93 -215 84 -209 84 -197 c 0
 84 -193 85 -189 89 -183 c 2
 196 26 l 1
 142 67 103 125 89 192 c 0
 84 215 84 224 84 250 c 0
 84 415 213 524 360 539 c 0
 365 539 409 540 460 540 c 1
 511 638 546 706 547 707 c 0
 549 712 556 716 563 716 c 0
 574 716 583 706 583 696 c 0
 583 694 552 632 505 540 c 1
 568 540 l 1
 577 536 583 530 583 520 c 0
 583 511 577 506 570 501 c 1
 484 500 l 1
 366 270 l 1
 568 270 l 1
 576 266 583 261 583 250 c 0
 583 239 576 234 568 230 c 1
 346 230 l 1
 247 39 l 1
 271 24 299 13 328 7 c 0
 355 1 354 1 466 0 c 2
 570 0 l 1
 577 -5 583 -11 583 -20 c 0
 583 -30 577 -36 568 -40 c 1
 471 -40 l 2
 371 -40 362 -40 338 -36 c 0
 299 -30 262 -15 229 4 c 1
 165 -120 117 -211 115 -212 c 0
 111 -215 110 -215 104 -215 c 0
214 62 m 1
 301 230 l 1
 124 230 l 1
 124 228 l 2
 124 223 127 203 130 191 c 0
 144 141 173 96 214 62 c 1
321 270 m 1
 440 500 l 1
 354 499 353 499 329 494 c 0
 229 469 154 401 130 309 c 0
 127 297 124 277 124 272 c 2
 124 270 l 1
 321 270 l 1
EndSplineSet
EndChar

StartChar: suchthat
Encoding: 8715 8715 194
Width: 667
GlyphClass: 2
Flags: MW
HStem: -40 40<98 195 98 98> 230 40<98 542 98 542> 501 39<96 195>
VStem: 542 40<228 263 230 263 237 272 237 274.5>
LayerCount: 2
Fore
SplineSet
83 520 m 0
 83 530 89 536 98 540 c 1
 195 540 l 2
 295 540 304 540 328 536 c 0
 449 517 553 426 577 309 c 0
 582 285 582 276 582 250 c 0
 582 224 582 215 577 192 c 0
 552 68 437 -28 304 -39 c 0
 297 -40 257 -40 195 -40 c 2
 98 -40 l 1
 89 -36 83 -30 83 -20 c 0
 83 -11 89 -5 96 0 c 1
 200 0 l 2
 312 1 311 1 337 6 c 0
 361 12 378 18 401 28 c 0
 418 37 429 44 445 55 c 0
 490 90 522 138 536 191 c 0
 539 203 542 223 542 228 c 2
 542 230 l 1
 98 230 l 1
 90 234 84 239 84 250 c 0
 84 261 90 266 98 270 c 1
 542 270 l 1
 542 272 l 2
 542 277 539 297 536 309 c 0
 522 362 490 410 445 445 c 0
 429 456 418 463 401 472 c 0
 378 482 362 488 338 493 c 0
 311 499 312 499 200 500 c 2
 96 501 l 1
 89 506 83 511 83 520 c 0
EndSplineSet
EndChar

StartChar: minus
Encoding: 8722 8722 195
Width: 778
GlyphClass: 2
Flags: MW
HStem: 230 40<98 679 98 679>
LayerCount: 2
Fore
SplineSet
84 250 m 0
 84 261 90 266 98 270 c 1
 679 270 l 1
 687 266 694 261 694 250 c 0
 694 239 687 234 679 230 c 1
 98 230 l 1
 90 234 84 239 84 250 c 0
EndSplineSet
EndChar

StartChar: uni2213
Encoding: 8723 8723 196
Width: 778
GlyphClass: 2
Flags: MW
HStem: 147 40<70 369 70 369 409 707> 460 40<70 369 70 707 409 707 409 409>
VStem: 369 40<-2 0 0 147 187 460>
LayerCount: 2
Fore
SplineSet
56 480 m 0
 56 491 62 496 70 500 c 1
 707 500 l 1
 715 496 722 491 722 480 c 0
 722 469 715 464 707 460 c 1
 409 460 l 1
 409 187 l 1
 707 187 l 1
 715 183 722 178 722 167 c 0
 722 156 715 151 707 147 c 1
 409 147 l 1
 409 0 l 2
 409 -160 409 -153 403 -160 c 0
 399 -164 394 -166 389 -166 c 0
 382 -166 375 -162 371 -155 c 0
 369 -151 369 -147 369 -2 c 2
 369 147 l 1
 70 147 l 1
 62 151 56 156 56 167 c 0
 56 178 62 183 70 187 c 1
 369 187 l 1
 369 460 l 1
 70 460 l 1
 62 464 56 469 56 480 c 0
EndSplineSet
EndChar

StartChar: uni2215
Encoding: 8725 8725 197
Width: 500
GlyphClass: 2
Flags: W
LayerCount: 2
Fore
SplineSet
75 -250 m 0
 65 -250 56 -241 56 -231 c 0
 56 -216 405 737 407 740 c 0
 410 746 415 750 425 750 c 0
 436 749 445 740 444 730 c 0
 444 723 98 -228 92 -240 c 0
 88 -246 82 -250 75 -250 c 0
EndSplineSet
EndChar

StartChar: uni2216
Encoding: 8726 8726 198
Width: 500
GlyphClass: 2
Flags: W
LayerCount: 2
Fore
SplineSet
56 731 m 0
 56 741 65 750 75 750 c 0
 82 750 88 746 92 740 c 0
 96 733 444 -221 444 -231 c 0
 444 -241 434 -250 424 -250 c 0
 417 -250 411 -246 407 -240 c 0
 405 -237 56 716 56 731 c 0
EndSplineSet
EndChar

StartChar: asteriskmath
Encoding: 8727 8727 199
Width: 500
GlyphClass: 2
Flags: MW
HStem: 124 60 315 59<74 100>
VStem: 216 67<54.5 71 54.5 78 428 443>
LayerCount: 2
Fore
SplineSet
229 286 m 1
 229 286 216 420 216 436 c 0
 216 450 227 459 240 464 c 0
 242 464 247 465 251 465 c 0
 268 464 283 453 283 436 c 0
 283 406 270 301 270 286 c 1
 328 328 l 2
 359 351 387 371 389 372 c 0
 393 374 397 375 401 375 c 0
 419 375 435 355 435 338 c 0
 435 329 431 321 425 315 c 0
 419 311 296 252 289 250 c 1
 355 219 l 1
 425 184 l 2
 431 178 434 170 434 161 c 0
 434 142 422 125 401 125 c 0
 397 125 393 125 389 127 c 0
 387 128 359 148 328 171 c 2
 270 213 l 1
 270 213 283 79 283 63 c 0
 283 46 269 35 250 35 c 0
 230 35 216 46 216 63 c 0
 216 93 229 198 229 213 c 1
 171 171 l 2
 140 148 112 128 110 127 c 0
 106 125 102 124 98 124 c 0
 80 124 64 144 64 161 c 0
 64 170 68 178 74 184 c 0
 76 186 142 216 210 250 c 1
 74 315 l 2
 68 321 65 329 65 338 c 0
 65 357 77 374 98 374 c 0
 102 374 106 374 110 372 c 0
 112 371 140 351 171 328 c 2
 229 286 l 1
EndSplineSet
EndChar

StartChar: uni2218
Encoding: 8728 8728 200
Width: 500
GlyphClass: 2
Flags: MW
HStem: 55 41<230.5 269.5 230.5 301.5> 403 41<229 266>
VStem: 55 41<226 277.5> 403 41<220 273.5 194 280.5>
LayerCount: 2
Fore
SplineSet
444 249 m 0
 444 139 353 55 250 55 c 0
 198 55 145 77 109 115 c 0
 75 150 55 201 55 251 c 0
 55 304 77 352 109 384 c 0
 143 420 192 444 249 444 c 0
 301 444 354 422 390 384 c 0
 424 349 444 298 444 249 c 0
337 377 m 0
 310 395 287 403 245 403 c 0
 213 403 187 394 162 377 c 0
 126 351 96 310 96 250 c 0
 96 189 125 149 162 122 c 0
 188 105 211 96 250 96 c 0
 289 96 311 105 337 122 c 0
 373 148 403 190 403 250 c 0
 403 311 374 350 337 377 c 0
EndSplineSet
EndChar

StartChar: uni2219
Encoding: 8729 8729 201
Width: 500
GlyphClass: 2
Flags: MW
HStem: 55 389<224 275 220.5 301.5>
VStem: 55 389<226 273.5 194 277.5>
LayerCount: 2
Fore
SplineSet
444 249 m 0
 444 139 353 55 250 55 c 0
 198 55 145 77 109 115 c 0
 75 150 55 201 55 251 c 0
 55 304 77 352 109 384 c 0
 143 420 192 444 249 444 c 0
 301 444 354 422 390 384 c 0
 424 349 444 298 444 249 c 0
EndSplineSet
EndChar

StartChar: radical
Encoding: 8730 8730 202
Width: 833
GlyphClass: 2
Flags: MW
VStem: 814 39
LayerCount: 2
Fore
SplineSet
95 178 m 0
 90 178 72 192 72 200 c 0
 72 201 72 203 73 204 c 0
 76 211 202 304 207 309 c 0
 208 310 211 311 212 311 c 0
 218 311 220 309 224 301 c 0
 226 297 266 210 312 108 c 2
 397 -77 l 2
 400 -77 807 774 814 786 c 0
 819 795 824 800 834 800 c 0
 845 800 852 789 853 782 c 2
 853 776 l 1
 620 293 l 2
 492 28 387 -191 385 -193 c 0
 382 -198 376 -200 366 -200 c 0
 358 -200 357 -200 354 -197 c 0
 352 -195 326 -138 256 15 c 2
 160 225 l 2
 160 226 98 179 95 178 c 0
EndSplineSet
EndChar

StartChar: proportional
Encoding: 8733 8733 203
Width: 778
GlyphClass: 2
Flags: MW
HStem: -11 42<222 225 178 286.5> -11 55<686.5 687> 387 55<210 218> 400 42
VStem: 56 37<168.5 256.5 168.5 271>
LayerCount: 2
Fore
SplineSet
56 216 m 0x88
 56 326 122 442 238 442 c 0xa8
 319 442 380 393 423 342 c 0
 431 332 452 301 462 285 c 1
 469 297 l 2
 496 343 530 382 566 406 c 0
 599 428 633 442 679 442 c 0
 694 442 708 439 722 437 c 1
 722 398 l 1
 718 398 l 2
 710 400 702 400 694 400 c 0
 686 400 676 400 666 398 c 0
 612 389 561 349 521 285 c 0
 507 264 493 237 495 235 c 0
 498 228 547 153 554 143 c 0
 584 101 614 72 644 57 c 0
 661 48 677 44 696 44 c 0
 703 44 718 45 719 46 c 2
 722 46 l 1
 722 -5 l 1
 709 -8 696 -11 678 -11 c 0x58
 631 -11 584 7 541 41 c 0
 504 69 482 104 454 146 c 1
 447 134 l 2
 403 60 338 -11 235 -11 c 0
 209 -11 190 -6 168 4 c 0
 105 35 56 115 56 216 c 0x88
93 213 m 0
 93 124 136 31 220 31 c 0
 230 31 241 31 249 33 c 0
 304 43 355 81 395 146 c 0
 409 167 423 194 421 196 c 0
 418 203 369 278 362 288 c 0
 321 346 282 377 241 385 c 0
 234 386 223 387 213 387 c 0
 207 387 202 387 198 386 c 0
 136 373 93 300 93 213 c 0
EndSplineSet
EndChar

StartChar: infinity
Encoding: 8734 8734 204
Width: 1000
GlyphClass: 2
Flags: MW
HStem: -11 44<241 256 231 265.5> -11 62<739.5 768.5> 380 62<230 237> 397 45<743.5 758>
VStem: 55 37<217 224 224 224> 907 37<207 214 207 264.5>
LayerCount: 2
Fore
SplineSet
136 398 m 0x8c
 168 425 206 442 254 442 c 0xac
 323 442 375 415 419 381 c 0
 446 359 463 342 493 303 c 2
 507 284 l 1
 514 294 l 2
 551 347 605 402 665 426 c 0
 692 436 720 442 747 442 c 0
 769 442 791 438 810 431 c 0
 884 401 944 319 944 214 c 2
 944 207 l 1
 940 134 907 68 863 33 c 0x9c
 833 7 794 -11 743 -11 c 0x4c
 675 -11 623 16 580 50 c 0
 553 72 536 89 506 128 c 2
 492 147 l 1
 485 137 l 2
 448 84 394 29 334 5 c 0
 307 -5 279 -11 252 -11 c 0
 230 -11 208 -7 189 0 c 0
 115 30 55 112 55 217 c 2
 55 224 l 1
 59 297 92 363 136 398 c 0x8c
765 51 m 0x5c
 855 51 907 136 907 217 c 0
 907 312 852 397 761 397 c 0
 726 397 689 386 657 365 c 0
 615 338 577 293 543 238 c 1
 574 198 l 2
 591 176 609 153 614 147 c 0
 669 79 714 51 765 51 c 0x5c
233 380 m 0xac
 142 380 92 295 92 214 c 0
 92 134 135 60 195 41 c 0
 209 36 223 33 239 33 c 0
 273 33 310 45 343 66 c 0
 384 93 422 138 456 193 c 1
 425 233 l 2
 408 255 390 278 385 284 c 0
 337 342 298 371 255 378 c 0
 249 379 241 380 233 380 c 0xac
EndSplineSet
EndChar

StartChar: angle
Encoding: 8736 8736 205
Width: 722
GlyphClass: 2
Flags: MW
HStem: 0 40<386 651> 674 20G<645.5 652>
LayerCount: 2
Fore
SplineSet
71 0 m 1
 64 4 55 9 55 20 c 0
 55 23 56 25 57 28 c 0
 59 31 153 141 346 361 c 0
 603 656 633 690 638 692 c 0
 641 693 644 694 647 694 c 0
 657 694 666 686 666 674 c 0
 666 670 665 666 663 663 c 0
 661 661 539 520 390 350 c 2
 120 41 l 1
 386 40 l 1
 653 40 l 1
 660 35 666 29 666 20 c 0
 666 10 660 4 651 0 c 1
 71 0 l 1
EndSplineSet
EndChar

StartChar: uni2223
Encoding: 8739 8739 206
Width: 278
GlyphClass: 2
Flags: MW
VStem: 119 40<-235 251 251 251>
LayerCount: 2
Fore
SplineSet
139 -249 m 0
 128 -249 123 -243 119 -235 c 1
 119 251 l 1
 120 737 l 2
 124 742 129 750 139 750 c 0
 149 750 155 743 159 735 c 1
 159 -235 l 1
 155 -243 150 -249 139 -249 c 0
EndSplineSet
EndChar

StartChar: uni2225
Encoding: 8741 8741 207
Width: 500
GlyphClass: 2
Flags: MW
VStem: 132 40<12.5 462> 329 38
LayerCount: 2
Fore
SplineSet
133 736 m 0
 135 742 143 750 153 750 c 0
 160 750 166 746 170 739 c 0
 172 735 172 725 172 250 c 0
 172 -225 172 -235 170 -239 c 0
 166 -246 159 -250 152 -250 c 0
 147 -250 142 -248 138 -244 c 0
 132 -237 132 -277 132 250 c 0
 132 674 132 731 133 736 c 0
329 739 m 0
 332 744 338 750 346 750 c 0
 351 750 357 747 361 744 c 0
 367 737 367 777 367 250 c 0
 367 -277 367 -237 361 -244 c 0
 357 -248 352 -250 347 -250 c 0
 340 -250 333 -246 329 -239 c 0
 327 -235 327 -225 327 250 c 0
 327 725 327 735 329 739 c 0
EndSplineSet
EndChar

StartChar: logicaland
Encoding: 8743 8743 208
Width: 667
GlyphClass: 2
Flags: MW
VStem: 55 41<-4 3> 570 41<-4 3>
LayerCount: 2
Fore
SplineSet
318 591 m 0
 321 594 326 598 333 598 c 0
 339 598 345 596 348 591 c 0
 349 590 611 10 611 -4 c 0
 610 -15 601 -22 591 -22 c 0
 578 -22 576 -16 570 -4 c 2
 333 528 l 1
 96 -4 l 2
 90 -16 88 -22 75 -22 c 0
 65 -22 56 -15 55 -4 c 0
 55 10 317 590 318 591 c 0
EndSplineSet
EndChar

StartChar: logicalor
Encoding: 8744 8744 209
Width: 667
GlyphClass: 2
Flags: MW
VStem: 55 41<573 580> 570 41<573 580>
LayerCount: 2
Fore
SplineSet
55 580 m 0
 56 588 63 598 75 598 c 0
 88 598 90 592 96 580 c 2
 333 48 l 1
 570 580 l 2
 576 592 578 598 591 598 c 0
 601 598 610 591 611 580 c 0
 611 566 349 -14 348 -15 c 0
 345 -19 339 -22 333 -22 c 0
 327 -22 321 -19 318 -15 c 0
 317 -14 55 566 55 580 c 0
EndSplineSet
EndChar

StartChar: intersection
Encoding: 8745 8745 210
Width: 667
GlyphClass: 2
Flags: MW
HStem: 558 40<292 372.5>
VStem: 55 40<-7 193 -7 200 -7 200> 572 39<-9 194>
LayerCount: 2
Fore
SplineSet
75 -21 m 0
 64 -21 59 -15 55 -7 c 1
 55 200 l 2
 56 425 55 409 61 431 c 0
 67 456 83 485 101 506 c 0
 150 561 234 598 332 598 c 0
 443 598 535 554 579 487 c 0
 596 461 607 434 610 405 c 0
 611 399 611 326 611 194 c 2
 611 -7 l 1
 607 -16 601 -22 591 -22 c 0
 582 -22 577 -16 572 -9 c 1
 570 405 l 1
 563 439 553 460 529 485 c 0
 487 530 411 558 334 558 c 0
 250 558 179 529 136 484 c 0
 113 459 100 432 96 401 c 0
 95 396 95 323 95 193 c 2
 95 -7 l 1
 91 -15 86 -21 75 -21 c 0
EndSplineSet
EndChar

StartChar: union
Encoding: 8746 8746 211
Width: 667
GlyphClass: 2
Flags: MW
HStem: -22 40<281 374 278 379.5>
VStem: 56 39<378 585> 571 40<383 583 376 583>
LayerCount: 2
Fore
SplineSet
591 598 m 0
 602 598 607 590 611 583 c 1
 611 376 l 2
 610 151 611 167 605 145 c 0
 599 120 583 91 565 70 c 0
 515 13 426 -22 333 -22 c 0
 229 -22 132 22 87 89 c 0
 69 115 59 143 56 173 c 0
 55 180 55 247 55 384 c 2
 56 585 l 2
 60 591 64 598 75 598 c 0
 84 598 90 592 95 585 c 1
 95 378 l 1
 96 172 l 1
 98 162 l 2
 118 69 224 18 332 18 c 0
 416 18 487 47 530 92 c 0
 553 117 566 144 570 175 c 0
 571 180 571 253 571 383 c 2
 571 583 l 1
 575 591 580 598 591 598 c 0
EndSplineSet
EndChar

StartChar: integral
Encoding: 8747 8747 212
Width: 417
GlyphClass: 2
Flags: MW
HStem: 696 20G<389.5 406.5>
VStem: 421 51<597.5 662>
LayerCount: 2
Fore
SplineSet
55 -113 m 0
 55 -82 77 -64 103 -64 c 0
 130 -64 151 -85 151 -112 c 0
 151 -136 135 -155 112 -159 c 2
 106 -161 l 2
 106 -163 114 -172 118 -174 c 0
 126 -180 138 -180 146 -176 c 0
 155 -172 164 -160 170 -146 c 0
 182 -118 188 -78 202 63 c 0
 213 179 219 225 232 310 c 0
 242 377 268 526 277 567 c 0
 296 658 328 705 378 715 c 0
 383 716 387 716 392 716 c 0
 421 716 444 700 459 671 c 0
 467 653 472 630 472 613 c 0
 472 582 450 564 424 564 c 0
 397 564 376 585 376 612 c 0
 376 636 392 655 415 659 c 2
 421 661 l 2
 421 663 413 672 409 674 c 0
 401 680 389 680 380 675 c 0
 368 669 358 651 351 623 c 0
 344 596 338 550 326 438 c 0
 308 246 287 110 253 -57 c 0
 241 -118 224 -160 201 -186 c 0
 183 -204 162 -214 138 -216 c 0
 84 -216 55 -167 55 -113 c 0
EndSplineSet
EndChar

StartChar: similar
Encoding: 8764 8764 213
Width: 778
GlyphClass: 2
Flags: MW
HStem: 134 55<543.5 554 554 562> 311 56<218 227.5 218 238>
VStem: 694 28<329 341.5 329 346.5>
LayerCount: 2
Fore
SplineSet
69 133 m 0
 58 133 55 152 55 166 c 0
 55 171 55 177 56 184 c 0
 66 282 122 353 201 365 c 0
 206 366 214 367 222 367 c 0
 233 367 245 366 253 364 c 0
 309 352 350 315 395 275 c 0
 435 240 452 226 473 214 c 0
 500 198 523 189 554 189 c 0
 582 189 610 198 632 214 c 0
 666 239 694 288 694 338 c 0
 694 355 701 367 708 367 c 0
 719 367 722 349 722 334 c 0
 722 324 721 311 718 296 c 0
 707 229 670 173 620 149 c 0
 598 138 584 134 562 134 c 2
 554 134 l 2
 533 134 523 135 504 142 c 0
 469 154 441 173 382 225 c 0
 342 260 325 274 304 286 c 0
 277 302 253 311 223 311 c 0
 195 311 167 302 145 286 c 0
 57 215 99 133 69 133 c 0
EndSplineSet
EndChar

StartChar: uni2240
Encoding: 8768 8768 214
Width: 278
GlyphClass: 2
Flags: MW
HStem: -83 28 555 28<83 83>
VStem: 55 56<63.5 95.5 63.5 97> 166 56<404.5 436.5>
LayerCount: 2
Fore
SplineSet
55 569 m 0
 55 578 70 583 83 583 c 0
 175 583 222 502 222 411 c 0
 222 397 221 383 218 370 c 0
 211 337 199 307 165 246 c 0
 133 186 122 160 115 128 c 0
 113 115 111 102 111 89 c 0
 111 38 128 -9 153 -34 c 0
 167 -48 178 -54 195 -55 c 0
 209 -56 222 -58 222 -69 c 0
 222 -79 203 -83 189 -83 c 0
 101 -83 55 3 55 90 c 0
 55 104 56 118 59 131 c 0
 66 163 78 193 112 255 c 0
 144 314 155 340 162 372 c 0
 164 385 166 398 166 411 c 0
 166 462 149 509 124 534 c 0
 110 548 99 554 83 555 c 0
 67 556 55 560 55 569 c 0
EndSplineSet
EndChar

StartChar: uni2243
Encoding: 8771 8771 215
Width: 778
GlyphClass: 2
Flags: MW
HStem: 36 40<72 706 72 707 70 706> 251 56<541.5 558 554 558 558 564> 407 56<207 217 217 219 219 223>
VStem: 55 28 694 28<433 439>
LayerCount: 2
Fore
SplineSet
708 464 m 0
 719 464 722 446 722 432 c 0
 722 345 671 280 603 258 c 0
 589 253 579 251 564 251 c 2
 554 251 l 2
 529 251 513 254 489 264 c 0
 459 276 437 290 382 332 c 0
 332 370 310 384 284 395 c 0
 261 404 246 407 223 407 c 2
 219 407 l 2
 181 407 149 393 122 367 c 0
 99 343 85 320 83 280 c 0
 82 264 80 250 69 250 c 0
 59 250 55 271 55 283 c 0
 55 379 117 451 207 463 c 1
 217 463 l 2
 265 463 286 454 321 434 c 0
 341 423 356 412 395 382 c 0
 445 344 467 330 493 319 c 0
 516 310 531 307 554 307 c 2
 558 307 l 2
 629 307 689 361 694 433 c 0
 694 448 699 464 708 464 c 0
56 56 m 0
 56 68 62 73 72 76 c 2
 706 76 l 1
 715 72 722 67 722 56 c 0
 722 45 715 40 707 36 c 1
 70 36 l 1
 62 40 56 45 56 56 c 0
EndSplineSet
EndChar

StartChar: congruent
Encoding: 8773 8773 216
Width: 1000
GlyphClass: 2
Flags: MW
HStem: 22 40<72 707 70 708> 216 40<72 390 72 72> 356 55<543.5 554 554 562> 533 56<218 227.5 218 238>
VStem: 694 28<551 563.5>
LayerCount: 2
Fore
SplineSet
69 355 m 0
 58 355 55 374 55 388 c 0
 55 393 55 399 56 406 c 0
 66 504 122 575 201 587 c 0
 206 588 214 589 222 589 c 0
 233 589 245 588 253 586 c 0
 309 574 350 537 395 497 c 0
 435 462 452 448 473 436 c 0
 500 420 523 411 554 411 c 0
 582 411 610 420 632 436 c 0
 666 461 694 510 694 560 c 0
 694 577 701 589 708 589 c 0
 719 589 722 571 722 556 c 0
 722 546 721 533 718 518 c 0
 707 451 670 395 620 371 c 0
 598 360 584 356 562 356 c 2
 554 356 l 2
 533 356 523 357 504 364 c 0
 469 376 441 395 382 447 c 0
 342 482 325 496 304 508 c 0
 277 524 253 533 223 533 c 0
 195 533 167 524 145 508 c 0
 57 437 99 355 69 355 c 0
56 236 m 0
 56 247 62 252 70 256 c 1
 707 256 l 1
 715 252 722 247 722 236 c 0
 722 225 715 221 708 217 c 2
 390 216 l 1
 72 216 l 2
 62 219 56 224 56 236 c 0
56 42 m 0
 56 54 62 59 72 62 c 2
 708 62 l 1
 714 57 722 54 722 42 c 0
 722 31 715 26 707 22 c 1
 70 22 l 1
 62 26 56 31 56 42 c 0
EndSplineSet
EndChar

StartChar: approxequal
Encoding: 8776 8776 217
Width: 778
GlyphClass: 2
Flags: MW
HStem: 55 57<548.5 572.5 548.5 599.5> 192 57<219.5 229> 289 57<548.5 564> 426 57<219.5 229>
VStem: 55 28<85 85 319 319> 694 28<220 225 212.5 226.5 454 459>
LayerCount: 2
Fore
SplineSet
708 483 m 0
 719 483 722 466 722 452 c 0
 722 374 674 319 609 298 c 0
 591 292 573 289 555 289 c 0
 533 289 509 294 485 303 c 0
 460 312 436 326 384 360 c 0
 364 372 342 386 335 391 c 0
 303 409 278 419 250 425 c 0
 243 426 234 426 224 426 c 0
 184 426 160 417 135 401 c 0
 110 385 85 354 83 318 c 0
 82 303 80 289 69 289 c 0
 60 289 55 305 55 319 c 0
 55 329 57 342 59 353 c 0
 71 411 111 456 168 474 c 0
 178 478 196 482 205 482 c 0
 209 482 216 483 223 483 c 0
 260 483 283 475 316 459 c 0
 335 449 352 439 393 413 c 2
 443 381 l 2
 474 363 499 353 528 347 c 0
 534 346 544 346 553 346 c 0
 592 346 617 355 642 371 c 0
 669 388 690 417 694 454 c 0
 694 468 699 483 708 483 c 0
69 55 m 0
 59 55 55 71 55 85 c 0
 55 95 57 108 59 119 c 0
 71 177 111 222 168 240 c 0
 178 244 196 248 205 248 c 0
 209 248 216 249 223 249 c 0
 260 249 283 241 316 225 c 0
 335 215 352 205 393 179 c 2
 443 147 l 2
 474 129 499 119 528 113 c 0
 534 112 544 112 553 112 c 0
 592 112 617 121 642 137 c 0
 669 154 690 183 694 220 c 0
 694 233 698 249 708 249 c 0
 718 249 722 233 722 217 c 0
 722 208 721 197 718 185 c 0
 703 113 644 55 555 55 c 0
 533 55 509 60 485 69 c 0
 460 78 436 92 384 126 c 0
 364 138 342 152 335 157 c 0
 303 175 278 185 250 191 c 0
 243 192 234 192 224 192 c 0
 184 192 160 183 135 167 c 0
 110 151 85 120 83 84 c 0
 82 69 80 55 69 55 c 0
EndSplineSet
EndChar

StartChar: uni224D
Encoding: 8781 8781 218
Width: 778
GlyphClass: 2
Flags: MW
HStem: 144 39<381.5 396.5> 316 40<381.5 396.5 381.5 418>
LayerCount: 2
Fore
SplineSet
55 464 m 0
 55 473 63 484 74 484 c 0
 80 484 86 481 94 474 c 0
 162 419 250 371 352 358 c 0
 358 357 374 356 389 356 c 0
 404 356 419 357 426 358 c 0
 527 371 615 419 683 474 c 0
 689 479 694 484 703 484 c 0
 713 484 722 475 722 464 c 0
 722 453 717 451 707 442 c 0
 647 394 584 359 523 339 c 0
 479 325 447 316 389 316 c 0
 331 316 298 325 254 339 c 0
 193 359 130 394 70 442 c 0
 60 451 55 453 55 464 c 0
254 161 m 0
 295 174 332 183 381 183 c 0
 445 183 475 176 523 161 c 0
 584 141 647 106 707 58 c 0
 717 49 722 47 722 36 c 0
 722 25 713 16 703 16 c 0
 694 16 689 21 683 26 c 0
 615 81 527 129 426 142 c 0
 419 143 404 144 389 144 c 0
 374 144 358 143 352 142 c 0
 250 129 162 82 94 26 c 0
 88 21 83 16 74 16 c 0
 64 16 55 25 55 36 c 0
 55 47 60 49 70 58 c 0
 130 106 193 141 254 161 c 0
EndSplineSet
EndChar

StartChar: uni2250
Encoding: 8784 8784 219
Width: 778
GlyphClass: 2
Flags: MW
HStem: 133 40<72 707 70 708> 327 40<72 390 72 72> 550 120<372 405.5>
VStem: 329 121<594.5 626.5 593 627>
LayerCount: 2
Fore
SplineSet
56 347 m 0
 56 358 62 363 70 367 c 1
 707 367 l 1
 715 363 722 358 722 347 c 0
 722 336 715 332 708 328 c 2
 390 327 l 1
 72 327 l 2
 62 330 56 335 56 347 c 0
56 153 m 0
 56 165 62 170 72 173 c 2
 708 173 l 1
 714 168 722 165 722 153 c 0
 722 142 715 137 707 133 c 1
 70 133 l 1
 62 137 56 142 56 153 c 0
329 610 m 0
 329 644 355 670 389 670 c 0
 425 670 450 642 450 611 c 0
 450 575 421 550 390 550 c 0
 354 550 329 579 329 610 c 0
EndSplineSet
EndChar

StartChar: notequal
Encoding: 8800 8800 220
Width: 778
GlyphClass: 2
Flags: MW
HStem: 133 40<72 306 70 327 72 351 371 707> 327 40<72 406 72 72 70 451> 696 20G<614.5 623.5>
LayerCount: 2
Fore
SplineSet
159 -215 m 0
 148 -215 139 -209 139 -197 c 0
 139 -193 140 -189 144 -183 c 2
 306 133 l 1
 70 133 l 1
 62 137 56 142 56 153 c 0
 56 165 62 170 72 173 c 2
 327 173 l 1
 406 327 l 1
 72 327 l 2
 62 330 56 335 56 347 c 0
 56 358 62 363 70 367 c 1
 426 367 l 1
 519 549 601 706 602 707 c 0
 604 712 611 716 618 716 c 0
 629 716 638 706 638 696 c 0
 638 693 562 544 471 367 c 1
 707 367 l 1
 715 363 722 358 722 347 c 0
 722 336 715 332 708 328 c 2
 451 327 l 1
 371 173 l 1
 708 173 l 1
 714 168 722 165 722 153 c 0
 722 142 715 137 707 133 c 1
 351 133 l 1
 256 -52 173 -211 170 -212 c 0
 166 -215 165 -215 159 -215 c 0
EndSplineSet
EndChar

StartChar: equivalence
Encoding: 8801 8801 221
Width: 778
GlyphClass: 2
Flags: MW
HStem: 36 40<72 706 72 707 70 706> 230 40<70 707 70 707> 424 40<72 706 72 72>
CounterMasks: 1 e0
LayerCount: 2
Fore
SplineSet
56 444 m 0
 56 455 62 460 70 464 c 1
 707 464 l 1
 715 460 722 455 722 444 c 0
 722 433 715 428 706 424 c 1
 72 424 l 2
 62 427 56 432 56 444 c 0
56 250 m 0
 56 261 62 266 70 270 c 1
 707 270 l 1
 715 266 722 261 722 250 c 0
 722 239 715 234 707 230 c 1
 70 230 l 1
 62 234 56 239 56 250 c 0
56 56 m 0
 56 68 62 73 72 76 c 2
 706 76 l 1
 715 72 722 67 722 56 c 0
 722 45 715 40 707 36 c 1
 70 36 l 1
 62 40 56 45 56 56 c 0
EndSplineSet
EndChar

StartChar: lessequal
Encoding: 8804 8804 222
Width: 778
GlyphClass: 2
Flags: MW
HStem: -138 40<99 678 99 679 98 678> 601 35
LayerCount: 2
Fore
SplineSet
674 636 m 0
 686 636 694 624 694 615 c 0
 694 609 692 605 687 601 c 0
 685 599 564 542 417 472 c 2
 151 346 l 1
 399 228 l 2
 715 79 687 92 691 87 c 0
 693 83 694 80 694 76 c 0
 694 66 687 57 676 56 c 2
 670 56 l 1
 382 192 l 2
 223 267 92 329 90 331 c 0
 86 334 83 341 83 348 c 0
 84 356 87 360 96 365 c 0
 107 370 659 631 665 634 c 0
 669 636 671 636 674 636 c 0
84 -118 m 0
 84 -108 91 -103 99 -98 c 1
 678 -98 l 1
 687 -102 694 -107 694 -118 c 0
 694 -129 687 -134 679 -138 c 1
 98 -138 l 1
 90 -134 84 -127 84 -118 c 0
EndSplineSet
EndChar

StartChar: greaterequal
Encoding: 8805 8805 223
Width: 778
GlyphClass: 2
Flags: MW
HStem: -138 40<99 678 99 679 98 678> 601 35
LayerCount: 2
Fore
SplineSet
83 616 m 0
 83 623 90 636 99 636 c 0
 116 636 686 362 687 361 c 0
 691 358 694 352 694 346 c 0
 694 340 691 334 687 331 c 0
 685 329 554 267 395 192 c 2
 107 56 l 1
 101 56 l 2
 90 57 83 66 83 76 c 0
 83 80 84 83 86 87 c 0
 90 92 62 79 378 228 c 2
 626 346 l 1
 360 472 l 2
 213 542 92 599 90 601 c 0
 87 604 83 610 83 616 c 0
84 -118 m 0
 84 -108 91 -103 99 -98 c 1
 678 -98 l 1
 687 -102 694 -107 694 -118 c 0
 694 -129 687 -134 679 -138 c 1
 98 -138 l 1
 90 -134 84 -127 84 -118 c 0
EndSplineSet
EndChar

StartChar: uni226A
Encoding: 8810 8810 224
Width: 1000
GlyphClass: 2
Flags: W
LayerCount: 2
Fore
SplineSet
639 -48 m 0
 639 -58 630 -67 619 -67 c 0
 615 -67 612 -66 605 -63 c 0
 576 -46 63 231 59 239 c 0
 56 243 56 244 56 250 c 0
 56 256 56 257 59 261 c 0
 63 269 612 566 615 567 c 0
 617 567 619 568 619 568 c 1
 619 568 622 567 625 567 c 0
 634 564 639 556 639 548 c 0
 639 543 637 538 633 534 c 0
 632 532 515 468 374 391 c 2
 117 250 l 1
 374 109 l 2
 515 32 632 -32 633 -34 c 0
 637 -38 639 -43 639 -48 c 0
944 -48 m 0
 944 -58 935 -67 924 -67 c 0
 920 -67 917 -66 910 -63 c 0
 881 -46 368 231 364 239 c 0
 361 243 361 244 361 250 c 0
 361 256 361 257 364 261 c 0
 368 269 917 566 920 567 c 0
 922 567 924 568 924 568 c 1
 924 568 927 567 930 567 c 0
 939 564 944 556 944 548 c 0
 944 543 942 538 938 534 c 0
 937 532 820 468 679 391 c 2
 422 250 l 1
 679 109 l 2
 820 32 937 -32 938 -34 c 0
 942 -38 944 -43 944 -48 c 0
EndSplineSet
EndChar

StartChar: uni226B
Encoding: 8811 8811 225
Width: 1000
GlyphClass: 2
Flags: W
LayerCount: 2
Fore
SplineSet
55 547 m 0
 55 556 62 567 74 567 c 0
 78 567 82 566 89 562 c 0
 91 561 630 269 636 261 c 0
 638 257 639 256 639 250 c 0
 639 244 638 243 635 239 c 0
 631 230 89 -62 89 -62 c 2
 83 -65 78 -67 73 -67 c 0
 63 -67 55 -57 55 -47 c 0
 55 -43 58 -36 61 -33 c 0
 63 -32 179 32 320 109 c 0
 502 209 577 250 576 251 c 2
 576 251 63 530 62 533 c 0
 57 537 55 542 55 547 c 0
360 547 m 0
 360 556 367 567 379 567 c 0
 383 567 387 566 394 562 c 0
 396 561 935 269 941 261 c 0
 943 257 944 256 944 250 c 0
 944 244 943 243 940 239 c 0
 936 230 394 -62 394 -62 c 2
 388 -65 383 -67 378 -67 c 0
 368 -67 360 -57 360 -47 c 0
 360 -43 363 -36 366 -33 c 0
 368 -32 484 32 625 109 c 0
 807 209 882 250 881 251 c 2
 881 251 368 530 367 533 c 0
 362 537 360 542 360 547 c 0
EndSplineSet
EndChar

StartChar: uni227A
Encoding: 8826 8826 226
Width: 778
GlyphClass: 2
Flags: MW
HStem: 229 40<118 137>
VStem: 653 41<4.29497e+009 4.29497e+009>
LayerCount: 2
Fore
SplineSet
694 -17 m 0
 694 -33 686 -41 674 -41 c 0
 660 -41 656 -31 653 -17 c 0
 642 72 586 136 486 176 c 0
 400 210 291 226 137 229 c 0
 99 229 98 229 94 231 c 0
 88 235 84 240 84 249 c 0
 84 258 88 263 94 267 c 0
 98 269 99 269 137 269 c 0
 194 270 236 273 281 277 c 0
 441 293 549 335 606 404 c 0
 632 436 647 469 653 512 c 0
 655 531 660 539 676 539 c 0
 687 537 694 530 694 515 c 0
 689 464 667 413 639 380 c 0
 586 317 491 273 373 249 c 1
 404 242 442 233 472 223 c 0
 496 215 512 208 533 199 c 0
 613 159 663 104 685 30 c 0
 689 16 693 -6 694 -17 c 0
EndSplineSet
EndChar

StartChar: uni227B
Encoding: 8827 8827 227
Width: 778
GlyphClass: 2
Flags: MW
HStem: 231 39
VStem: 83 41<4.29497e+009 4.29497e+009>
LayerCount: 2
Fore
SplineSet
674 270 m 0
 683 270 694 263 694 249 c 0
 694 239 689 235 683 231 c 0
 679 229 678 229 640 229 c 0
 540 227 462 220 395 206 c 0
 227 171 139 99 124 -17 c 0
 121 -31 117 -41 103 -41 c 0
 91 -41 83 -32 83 -17 c 0
 88 34 110 85 138 118 c 0
 191 181 286 225 404 249 c 1
 373 256 335 265 305 275 c 0
 281 283 265 290 245 299 c 0
 164 339 114 394 92 468 c 0
 88 485 84 506 84 517 c 0
 84 530 90 539 102 539 c 0
 105 539 108 538 112 536 c 0
 120 532 122 528 124 512 c 0
 130 469 145 436 171 404 c 0
 228 335 336 293 497 277 c 0
 541 273 583 270 640 269 c 0
 658 269 668 270 674 270 c 0
EndSplineSet
EndChar

StartChar: propersubset
Encoding: 8834 8834 228
Width: 778
GlyphClass: 2
Flags: MW
HStem: -40 40<522 526 526 679> 500 40<522 679>
VStem: 84 40<243.5 256.5 243.5 332.5>
LayerCount: 2
Fore
SplineSet
84 250 m 0
 84 415 213 524 360 539 c 0
 365 539 439 540 524 540 c 2
 679 540 l 1
 688 536 694 530 694 520 c 0
 694 511 688 506 681 501 c 1
 522 500 l 2
 348 499 357 500 329 494 c 0
 223 468 143 394 125 285 c 0
 124 277 124 263 124 250 c 0
 124 237 124 224 125 216 c 0
 139 130 195 64 266 28 c 0
 288 18 304 12 328 7 c 0
 356 0 347 1 522 0 c 2
 681 0 l 1
 688 -5 694 -11 694 -20 c 0
 694 -30 688 -36 679 -40 c 1
 526 -40 l 2
 428 -40 369 -40 362 -39 c 0
 228 -26 115 67 89 192 c 0
 84 215 84 224 84 250 c 0
EndSplineSet
EndChar

StartChar: propersuperset
Encoding: 8835 8835 229
Width: 778
GlyphClass: 2
Flags: MW
HStem: -40 40<98 251 98 98> 501 39<96 251>
VStem: 654 39<243.5 256.5>
LayerCount: 2
Fore
SplineSet
83 520 m 0
 83 530 89 536 98 540 c 1
 251 540 l 2
 349 540 408 540 415 539 c 0
 549 526 662 433 688 309 c 0
 693 285 693 276 693 250 c 0
 693 224 693 215 688 192 c 0
 663 68 548 -28 415 -39 c 0
 407 -40 352 -40 251 -40 c 2
 98 -40 l 1
 89 -36 83 -30 83 -20 c 0
 83 -11 89 -5 96 0 c 1
 255 0 l 2
 429 1 420 0 448 6 c 0
 472 12 489 18 512 28 c 0
 582 64 638 130 652 216 c 0
 653 224 654 237 654 250 c 0
 654 263 653 277 652 285 c 0
 638 370 582 436 512 472 c 0
 489 482 473 488 449 493 c 0
 421 500 430 499 255 500 c 2
 96 501 l 1
 89 506 83 511 83 520 c 0
EndSplineSet
EndChar

StartChar: reflexsubset
Encoding: 8838 8838 230
Width: 778
GlyphClass: 2
Flags: MW
HStem: -138 40<118 679 118 679> 56 40<522 526 526 679> 596 40<522 679>
VStem: 84 40<339.5 352.5 339.5 428.5>
LayerCount: 2
Fore
SplineSet
84 346 m 0
 84 511 213 620 360 635 c 0
 365 635 439 636 524 636 c 2
 679 636 l 1
 688 632 694 626 694 616 c 0
 694 607 688 602 681 597 c 1
 522 596 l 2
 348 595 357 596 329 590 c 0
 223 564 143 490 125 381 c 0
 124 373 124 359 124 346 c 0
 124 333 124 320 125 312 c 0
 139 226 195 160 266 124 c 0
 288 114 304 108 328 103 c 0
 356 96 347 97 522 96 c 2
 681 96 l 1
 688 91 694 85 694 76 c 0
 694 66 688 60 679 56 c 1
 526 56 l 2
 428 56 369 56 362 57 c 0
 228 70 115 163 89 288 c 0
 84 311 84 320 84 346 c 0
104 -118 m 0
 104 -107 110 -102 118 -98 c 1
 679 -98 l 1
 687 -102 694 -107 694 -118 c 0
 694 -129 687 -134 679 -138 c 1
 118 -138 l 1
 110 -134 104 -129 104 -118 c 0
EndSplineSet
EndChar

StartChar: reflexsuperset
Encoding: 8839 8839 231
Width: 778
GlyphClass: 2
Flags: MW
HStem: -138 40<98 659 98 659> 56 40<98 251 98 98> 597 39<96 251>
VStem: 654 39<339.5 352.5>
LayerCount: 2
Fore
SplineSet
83 616 m 0
 83 626 89 632 98 636 c 1
 251 636 l 2
 349 636 408 636 415 635 c 0
 549 622 662 529 688 405 c 0
 693 381 693 372 693 346 c 0
 693 320 693 311 688 288 c 0
 663 164 548 68 415 57 c 0
 407 56 352 56 251 56 c 2
 98 56 l 1
 89 60 83 66 83 76 c 0
 83 85 89 91 96 96 c 1
 255 96 l 2
 429 97 420 96 448 102 c 0
 472 108 489 114 512 124 c 0
 582 160 638 226 652 312 c 0
 653 320 654 333 654 346 c 0
 654 359 653 373 652 381 c 0
 638 466 582 532 512 568 c 0
 489 578 473 584 449 589 c 0
 421 596 430 595 255 596 c 2
 96 597 l 1
 89 602 83 607 83 616 c 0
84 -118 m 0
 84 -107 90 -102 98 -98 c 1
 659 -98 l 1
 667 -102 674 -107 674 -118 c 0
 674 -129 667 -134 659 -138 c 1
 98 -138 l 1
 90 -134 84 -129 84 -118 c 0
EndSplineSet
EndChar

StartChar: uni228E
Encoding: 8846 8846 232
Width: 667
GlyphClass: 2
Flags: MW
HStem: -22 40<281 374 278 379.5> 285 40<151 313 151 313 353 515>
VStem: 56 39<378 585> 313 40<204 285 325 406> 571 40<383 583 376 583>
LayerCount: 2
Fore
SplineSet
591 598 m 0
 602 598 607 590 611 583 c 1
 611 376 l 2
 610 151 611 167 605 145 c 0
 599 120 583 91 565 70 c 0
 515 13 426 -22 333 -22 c 0
 229 -22 132 22 87 89 c 0
 69 115 59 143 56 173 c 0
 55 180 55 247 55 384 c 2
 56 585 l 2
 60 591 64 598 75 598 c 0
 84 598 90 592 95 585 c 1
 95 378 l 1
 96 172 l 1
 98 162 l 2
 118 69 224 18 332 18 c 0
 416 18 487 47 530 92 c 0
 553 117 566 144 570 175 c 0
 571 180 571 253 571 383 c 2
 571 583 l 1
 575 591 580 598 591 598 c 0
315 492 m 0
 318 497 325 503 333 503 c 0
 338 503 344 501 348 497 c 0
 353 491 353 494 353 406 c 2
 353 325 l 1
 515 325 l 1
 522 321 531 316 531 305 c 0
 531 294 522 289 515 285 c 1
 353 285 l 1
 353 204 l 2
 353 128 353 123 351 119 c 0
 349 113 342 107 333 107 c 0
 324 107 317 113 315 119 c 0
 313 123 313 128 313 204 c 2
 313 285 l 1
 151 285 l 1
 144 289 135 294 135 305 c 0
 135 316 144 321 151 325 c 1
 313 325 l 1
 313 406 l 2
 313 483 313 488 315 492 c 0
EndSplineSet
EndChar

StartChar: uni2291
Encoding: 8849 8849 233
Width: 778
GlyphClass: 2
Flags: MW
HStem: -138 40<100 698 100 699 98 698> 56 40<134 698 134 699 109 698> 596 40<134 699 134 134>
VStem: 94 40<344 596 96 620 96 620>
LayerCount: 2
Fore
SplineSet
714 76 m 0
 714 65 707 60 699 56 c 1
 109 56 l 2
 102 59 99 64 95 69 c 2
 94 344 l 1
 94 620 l 2
 97 626 98 630 105 633 c 2
 110 636 l 1
 699 636 l 1
 707 632 714 627 714 616 c 0
 714 605 707 600 699 596 c 1
 134 596 l 1
 134 96 l 1
 698 96 l 1
 707 92 714 87 714 76 c 0
84 -118 m 0
 84 -106 90 -101 100 -98 c 2
 698 -98 l 1
 707 -102 714 -107 714 -118 c 0
 714 -129 707 -134 699 -138 c 1
 98 -138 l 1
 90 -134 84 -129 84 -118 c 0
EndSplineSet
EndChar

StartChar: uni2292
Encoding: 8850 8850 234
Width: 778
GlyphClass: 2
Flags: MW
HStem: -138 40<79 678 79 679 78 678> 56 40<80 643 80 668 78 643> 596 40<78 643 78 668>
VStem: 643 40<96 596 596 596>
LayerCount: 2
Fore
SplineSet
64 616 m 0
 64 627 70 632 78 636 c 1
 668 636 l 2
 675 633 679 628 683 623 c 1
 683 69 l 1
 679 64 675 59 668 56 c 2
 78 56 l 1
 70 60 64 65 64 76 c 0
 64 88 70 93 80 96 c 2
 643 96 l 1
 643 596 l 1
 78 596 l 1
 70 600 64 605 64 616 c 0
64 -118 m 0
 64 -108 71 -103 79 -98 c 1
 678 -98 l 1
 687 -102 694 -107 694 -118 c 0
 694 -129 687 -134 679 -138 c 1
 78 -138 l 1
 70 -134 64 -127 64 -118 c 0
EndSplineSet
EndChar

StartChar: uni2293
Encoding: 8851 8851 235
Width: 667
GlyphClass: 2
Flags: MW
HStem: 0 21G<76.5 83 580.5 587> 558 40<101 565 101 101>
VStem: 61 40<16 301 301 301> 565 40<16 558 558 558>
LayerCount: 2
Fore
SplineSet
101 15 m 1
 97 7 91 1 83 0 c 0
 70 0 66 8 61 16 c 1
 61 301 l 1
 62 585 l 2
 66 590 69 594 76 598 c 1
 592 598 l 1
 597 594 602 590 605 583 c 2
 605 15 l 1
 601 7 595 1 587 0 c 0
 574 0 570 8 565 16 c 1
 565 558 l 1
 101 558 l 1
 101 15 l 1
EndSplineSet
EndChar

